<svg width="25" height="23" viewBox="0 0 25 23" fill="none" xmlns="http://www.w3.org/2000/svg">
<path d="M1.25 20V8.65111C1.25 6.72561 2.35566 4.9712 4.09272 4.14044L10.5439 1.05509C11.9359 0.389374 13.5572 0.403596 14.9373 1.09363L21.5389 4.39443C22.894 5.072 23.75 6.45705 23.75 7.97214V20C23.75 21.1046 22.8546 22 21.75 22H3.25C2.14543 22 1.25 21.1046 1.25 20Z" fill="#3C4A60" stroke="#3C4A60"/>
<path d="M6.77726 11.3537V11.3544V17.1772C6.77726 17.4693 6.67993 17.7073 6.4858 17.9014C6.29169 18.0955 6.05416 18.1924 5.76305 18.1917C5.47156 18.191 5.23368 18.0937 5.03942 17.9001C4.84546 17.7068 4.74814 17.4693 4.74814 17.1772V11.3544C4.74814 11.0623 4.84546 10.8248 5.03942 10.6315C5.23368 10.4379 5.47156 10.3405 5.76305 10.3398C6.054 10.3391 6.29197 10.4363 6.48696 10.6313C6.68194 10.8263 6.77863 11.0637 6.77726 11.3537ZM13.7646 11.3537V11.3544V17.1772C13.7646 17.4693 13.6673 17.7073 13.4731 17.9014C13.279 18.0955 13.0415 18.1924 12.7504 18.1917C12.4589 18.191 12.221 18.0937 12.0268 17.9001C11.8328 17.7068 11.7355 17.4693 11.7355 17.1772V11.3544C11.7355 11.0623 11.8328 10.8248 12.0268 10.6315C12.221 10.4379 12.4589 10.3405 12.7504 10.3398C13.0413 10.3391 13.2793 10.4363 13.4743 10.6313C13.6693 10.8263 13.766 11.0637 13.7646 11.3537ZM20.7519 11.3537V11.3544V17.1772C20.7519 17.4693 20.6546 17.7073 20.4605 17.9014C20.2664 18.0955 20.0288 18.1924 19.7377 18.1917C19.4462 18.191 19.2084 18.0937 19.0141 17.9001C18.8201 17.7068 18.7228 17.4693 18.7228 17.1772V11.3544C18.7228 11.0623 18.8201 10.8248 19.0141 10.6315C19.2084 10.4379 19.4462 10.3405 19.7377 10.3398C20.0287 10.3391 20.2666 10.4363 20.4616 10.6313C20.6566 10.8263 20.7533 11.0637 20.7519 11.3537Z" fill="white" stroke="#3C4A60" stroke-width="0.3"/>
<path d="M12.5 3L6.05882 6.43529C5.78326 6.58226 5.88769 7 6.2 7H18.8C19.1123 7 19.2167 6.58226 18.9412 6.43529L12.5 3Z" fill="white"/>
</svg>
