<svg width="25" height="23" viewBox="0 0 25 23" fill="none" xmlns="http://www.w3.org/2000/svg">
<path d="M6.52728 11.3537V11.3544V17.1772C6.52728 17.4693 6.42995 17.7073 6.23582 17.9015C6.04171 18.0956 5.80418 18.1924 5.51308 18.1918C5.22158 18.1911 4.9837 18.0937 4.78944 17.9001C4.59548 17.7068 4.49817 17.4693 4.49817 17.1772V11.3544C4.49817 11.0623 4.59548 10.8248 4.78944 10.6315C4.9837 10.4379 5.22158 10.3406 5.51308 10.3399C5.80402 10.3392 6.04199 10.4363 6.23698 10.6313C6.43196 10.8263 6.52865 11.0638 6.52728 11.3537ZM13.5146 11.3537V11.3544V17.1772C13.5146 17.4693 13.4173 17.7073 13.2232 17.9015C13.029 18.0956 12.7915 18.1924 12.5004 18.1918C12.2089 18.1911 11.971 18.0937 11.7768 17.9001C11.5828 17.7068 11.4855 17.4693 11.4855 17.1772V11.3544C11.4855 11.0623 11.5828 10.8248 11.7768 10.6315C11.971 10.4379 12.2089 10.3406 12.5004 10.3399C12.7914 10.3392 13.0293 10.4363 13.2243 10.6313C13.4193 10.8263 13.516 11.0638 13.5146 11.3537ZM20.502 11.3537V11.3544V17.1772C20.502 17.4693 20.4046 17.7073 20.2105 17.9015C20.0164 18.0956 19.7789 18.1924 19.4877 18.1918C19.1963 18.1911 18.9584 18.0937 18.7641 17.9001C18.5702 17.7068 18.4728 17.4693 18.4728 17.1772V11.3544C18.4728 11.0623 18.5702 10.8248 18.7641 10.6315C18.9584 10.4379 19.1963 10.3406 19.4877 10.3399C19.7787 10.3392 20.0167 10.4363 20.2117 10.6313C20.4066 10.8263 20.5033 11.0638 20.502 11.3537ZM22.9814 7.71075H22.9811H1.9026C1.65069 7.71075 1.44123 7.62446 1.26547 7.44937C1.09005 7.27461 1.00382 7.06553 1.0045 6.81305V6.81265V6.17215C1.0045 5.98492 1.05103 5.83118 1.13867 5.70417C1.23144 5.56971 1.35337 5.45935 1.50698 5.3731L11.5174 0.367883C11.8267 0.222621 12.1537 0.15 12.5001 0.15C12.8464 0.15 13.1734 0.222621 13.4827 0.367883L23.438 5.34555L23.438 5.34564L23.443 5.34794C23.629 5.43246 23.7641 5.55643 23.8548 5.72059C23.95 5.89321 23.9963 6.07198 23.9956 6.25894V6.25949V6.6962C23.9956 6.98846 23.8986 7.22655 23.7051 7.42064C23.512 7.61444 23.2743 7.71144 22.9814 7.71075ZM22.9818 22.85H22.9811H2.01905C1.72696 22.85 1.48942 22.7527 1.29614 22.5587C1.10256 22.3645 1.00518 22.1266 1.0045 21.8351C1.00381 21.5441 1.10095 21.3067 1.29577 21.1125C1.49089 20.9181 1.72871 20.8209 2.01905 20.8209H22.9811C23.2732 20.8209 23.5112 20.9182 23.7053 21.1123C23.8994 21.3064 23.9963 21.544 23.9956 21.8351C23.9949 22.1266 23.8976 22.365 23.7038 22.5601C23.5107 22.7545 23.2735 22.8514 22.9818 22.85ZM5.97017 5.39724L6.03677 5.68164H18.9633L19.0299 5.39724L12.5667 2.19471L12.5001 2.16171L12.4335 2.19471L5.97017 5.39724Z" fill="#747474" stroke="#FFFFFF" stroke-width="0.3"/>
</svg>
