<svg width="46" height="43" viewBox="0 0 46 43" fill="none" xmlns="http://www.w3.org/2000/svg">
<path opacity="0.5" d="M29.7498 25.375H26.125V28.9998H29.7498V25.375Z" fill="#0074BF"/>
<path opacity="0.7" d="M26.1248 25.375H22.5V28.9998H26.1248V25.375Z" fill="#0074BF"/>
<path opacity="0.7" d="M22.4998 25.375H18.875V28.9998H22.4998V25.375Z" fill="#0074BF"/>
<path opacity="0.5" d="M18.8748 25.375H15.25V28.9998H18.8748V25.375Z" fill="#0074BF"/>
<path opacity="0.7" d="M33.3748 21.7504H29.75V25.3752H33.3748V21.7504Z" fill="#0082BF"/>
<path opacity="0.8" d="M29.7498 21.7504H26.125V25.3752H29.7498V21.7504Z" fill="#0082BF"/>
<path d="M26.1248 21.7504H22.5V25.3752H26.1248V21.7504Z" fill="#0082BF"/>
<path d="M22.4998 21.7504H18.875V25.3752H22.4998V21.7504Z" fill="#0082BF"/>
<path opacity="0.8" d="M18.8748 21.7504H15.25V25.3752H18.8748V21.7504Z" fill="#0082BF"/>
<path opacity="0.7" d="M15.2498 21.7504H11.625V25.3752H15.2498V21.7504Z" fill="#0082BF"/>
<path opacity="0.5" d="M36.9998 18.125H33.375V21.7498H36.9998V18.125Z" fill="#008FBF"/>
<path opacity="0.8" d="M33.3748 18.125H29.75V21.7498H33.3748V18.125Z" fill="#008FBF"/>
<path d="M29.7498 18.125H26.125V21.7498H29.7498V18.125Z" fill="#008FBF"/>
<path d="M26.1248 18.125H22.5V21.7498H26.1248V18.125Z" fill="#008FBF"/>
<path d="M22.4998 18.125H18.875V21.7498H22.4998V18.125Z" fill="#008FBF"/>
<path d="M18.8748 18.125H15.25V21.7498H18.8748V18.125Z" fill="#008FBF"/>
<path opacity="0.8" d="M15.2498 18.125H11.625V21.7498H15.2498V18.125Z" fill="#008FBF"/>
<path opacity="0.5" d="M11.6248 18.125H8V21.7498H11.6248V18.125Z" fill="#008FBF"/>
<path opacity="0.7" d="M36.9998 14.5H33.375V18.1248H36.9998V14.5Z" fill="#009DBF"/>
<path d="M33.3748 14.5H29.75V18.1248H33.3748V14.5Z" fill="#009DBF"/>
<path d="M29.7498 14.5H26.125V18.1248H29.7498V14.5Z" fill="#009DBF"/>
<path d="M26.1248 14.5H22.5V18.1248H26.1248V14.5Z" fill="#009DBF"/>
<path d="M22.4998 14.5H18.875V18.1248H22.4998V14.5Z" fill="#009DBF"/>
<path d="M18.8748 14.5H15.25V18.1248H18.8748V14.5Z" fill="#009DBF"/>
<path d="M15.2498 14.5H11.625V18.1248H15.2498V14.5Z" fill="#009DBF"/>
<path opacity="0.7" d="M11.6248 14.5H8V18.1248H11.6248V14.5Z" fill="#009DBF"/>
<path opacity="0.7" d="M36.9998 10.875H33.375V14.4998H36.9998V10.875Z" fill="#00ABBF"/>
<path d="M33.3748 10.875H29.75V14.4998H33.3748V10.875Z" fill="#00ABBF"/>
<path d="M29.7498 10.875H26.125V14.4998H29.7498V10.875Z" fill="#00ABBF"/>
<path d="M26.1248 10.875H22.5V14.4998H26.1248V10.875Z" fill="#00ABBF"/>
<path d="M22.4998 10.875H18.875V14.4998H22.4998V10.875Z" fill="#00ABBF"/>
<path d="M18.8748 10.875H15.25V14.4998H18.8748V10.875Z" fill="#00ABBF"/>
<path d="M15.2498 10.875H11.625V14.4998H15.2498V10.875Z" fill="#00ABBF"/>
<path opacity="0.7" d="M11.6248 10.875H8V14.4998H11.6248V10.875Z" fill="#00ABBF"/>
<path opacity="0.5" d="M36.9998 7.25037H33.375V10.8752H36.9998V7.25037Z" fill="#00B9BF"/>
<path opacity="0.8" d="M33.3748 7.25037H29.75V10.8752H33.3748V7.25037Z" fill="#00B9BF"/>
<path d="M29.7498 7.25037H26.125V10.8752H29.7498V7.25037Z" fill="#00B9BF"/>
<path d="M26.1248 7.25037H22.5V10.8752H26.1248V7.25037Z" fill="#00B9BF"/>
<path d="M22.4998 7.25037H18.875V10.8752H22.4998V7.25037Z" fill="#00B9BF"/>
<path d="M18.8748 7.25037H15.25V10.8752H18.8748V7.25037Z" fill="#00B9BF"/>
<path opacity="0.8" d="M15.2498 7.25037H11.625V10.8752H15.2498V7.25037Z" fill="#00B9BF"/>
<path opacity="0.5" d="M11.6248 7.25037H8V10.8752H11.6248V7.25037Z" fill="#00B9BF"/>
<path opacity="0.7" d="M33.3748 3.625H29.75V7.24984H33.3748V3.625Z" fill="#00C6BF"/>
<path opacity="0.8" d="M29.7498 3.625H26.125V7.24984H29.7498V3.625Z" fill="#00C6BF"/>
<path d="M26.1248 3.625H22.5V7.24984H26.1248V3.625Z" fill="#00C6BF"/>
<path d="M22.4998 3.625H18.875V7.24984H22.4998V3.625Z" fill="#00C6BF"/>
<path opacity="0.8" d="M18.8748 3.625H15.25V7.24984H18.8748V3.625Z" fill="#00C6BF"/>
<path opacity="0.7" d="M15.2498 3.625H11.625V7.24984H15.2498V3.625Z" fill="#00C6BF"/>
<path opacity="0.5" d="M29.7498 0H26.125V3.62484H29.7498V0Z" fill="#00D4BF"/>
<path opacity="0.7" d="M26.1248 0H22.5V3.62484H26.1248V0Z" fill="#00D4BF"/>
<path opacity="0.7" d="M22.4998 0H18.875V3.62484H22.4998V0Z" fill="#00D4BF"/>
<path opacity="0.5" d="M18.8748 0H15.25V3.62484H18.8748V0Z" fill="#00D4BF"/>
<path d="M17.5447 13.3565L18.5548 11.0959C18.9227 10.5163 18.874 9.80624 18.4712 9.40341C18.4175 9.34974 18.358 9.30216 18.2938 9.26152C18.1556 9.17673 18.0006 9.12306 17.8396 9.10427C17.6785 9.08548 17.5153 9.102 17.3613 9.1527C17.0116 9.26146 16.7127 9.49263 16.5196 9.80384C16.5196 9.80384 15.1368 13.0301 14.6221 14.4802C14.1074 15.9304 14.3131 18.5897 16.2971 20.578C18.4015 22.6823 21.4485 23.1633 23.3917 21.7047C23.473 21.6638 23.5494 21.614 23.6196 21.5562L29.6079 16.5557C29.8989 16.3152 30.3294 15.8198 29.9428 15.2546C29.5658 14.7033 28.8515 15.0785 28.5599 15.2649L25.1136 17.7708C25.0975 17.7841 25.0789 17.7941 25.0588 17.8C25.0387 17.8059 25.0177 17.8077 24.9969 17.8053C24.9761 17.8029 24.956 17.7963 24.9379 17.7859C24.9197 17.7756 24.9038 17.7616 24.8912 17.7449C24.8034 17.6373 24.7878 17.3523 24.9255 17.2393L30.2085 12.7559C30.6649 12.3447 30.7286 11.747 30.3588 11.3376C29.9981 10.9366 29.4251 10.9486 28.9646 11.3634L24.2082 15.0821C24.1859 15.1002 24.1602 15.1136 24.1326 15.1215C24.1049 15.1294 24.076 15.1315 24.0475 15.1278C24.019 15.1241 23.9916 15.1146 23.9669 15.0999C23.9423 15.0852 23.9208 15.0656 23.904 15.0424C23.8102 14.9372 23.7741 14.7574 23.8799 14.6522L29.267 9.42446C29.471 9.2341 29.5912 8.97055 29.6011 8.69167C29.611 8.4128 29.5099 8.14138 29.3199 7.937C29.2257 7.83776 29.1122 7.75879 28.9863 7.70493C28.8605 7.65107 28.725 7.62345 28.5882 7.62376C28.3064 7.6207 28.0347 7.72869 27.8318 7.92438L22.3275 13.095C22.1959 13.2267 21.9379 13.095 21.9067 12.9411C21.901 12.9135 21.9023 12.885 21.9105 12.8581C21.9186 12.8312 21.9335 12.8068 21.9536 12.7872L26.167 7.98991C26.2688 7.89493 26.3505 7.78044 26.4072 7.65324C26.4639 7.52604 26.4944 7.38875 26.497 7.24951C26.4995 7.11028 26.474 6.97196 26.422 6.84279C26.37 6.71361 26.2925 6.59621 26.1942 6.49759C26.0959 6.39896 25.9788 6.32111 25.8498 6.26868C25.7208 6.21624 25.5825 6.1903 25.4433 6.19238C25.304 6.19446 25.1666 6.22453 25.0393 6.28079C24.9119 6.33706 24.7971 6.41837 24.7018 6.51989L18.3125 13.5838C18.0834 13.8129 17.7461 13.8243 17.5856 13.6914C17.5362 13.6521 17.5042 13.595 17.4966 13.5323C17.4889 13.4697 17.5062 13.4066 17.5447 13.3565Z" fill="white"/>
<path fill-rule="evenodd" clip-rule="evenodd" d="M9.943 41.0832C11.4638 41.0832 12.2511 40.4255 12.6286 40.016L12.0475 38.5853C11.6374 39.0282 10.9686 39.4142 10.0412 39.4142C8.82065 39.4142 7.80851 38.5414 7.80851 37.0075C7.80851 35.4737 8.77942 34.5882 10.0412 34.5882C11.0241 34.5882 11.8211 35.2139 11.9613 35.407L12.4989 33.8855C12.3043 33.67 11.4743 33 9.94263 33C7.77477 33 6.03838 34.5104 6.03838 37.0414C6.03838 39.562 7.7534 41.0832 9.943 41.0832ZM3.48252 40.9469H5.2189V37.6425C5.2189 36.2802 4.81967 35.247 3.27746 35.247C2.49024 35.247 1.98305 35.6557 1.71352 36.1552C1.71352 36.1552 1.72439 35.5422 1.72439 34.9745V33.1135H0V40.9458H1.72439V38.1986C1.72439 37.3708 1.95081 36.7351 2.67355 36.7351C3.3963 36.7351 3.48252 37.3254 3.48252 38.0065V40.9469ZM18.0863 40.947H16.4368L16.4035 40.3574L16.391 40.3706C16.1627 40.6131 15.7299 41.0728 14.8826 41.0728C13.9455 41.0728 12.9521 40.539 12.9521 39.2903C12.9521 38.0415 14.0414 37.6213 15.0228 37.5759L16.3604 37.5193V37.3947C16.3604 36.8043 15.9611 36.4976 15.271 36.4976C14.5914 36.4976 13.9121 36.8155 13.6422 36.9971L13.1894 35.8165C13.6422 35.5783 14.4729 35.2489 15.4652 35.2489C16.4575 35.2489 17.0291 35.4871 17.4497 35.8962C17.8595 36.3056 18.087 36.8498 18.087 37.7922L18.0863 40.947ZM16.3712 38.4834L15.5192 38.5399C14.9906 38.5626 14.678 38.8005 14.678 39.2211C14.678 39.6524 15.0123 39.9137 15.4869 39.9137C15.9506 39.9137 16.2633 39.5959 16.3712 39.4031V38.4834ZM20.9011 40.2427C21.234 40.7649 21.7963 41.0716 22.5835 41.0716C24.1261 41.0716 25.0985 39.7986 25.0985 38.1528C25.0985 36.5069 24.1279 35.2466 22.5962 35.2466C21.7873 35.2466 21.2156 35.5771 20.8272 36.0654H20.8055L20.8164 35.3501H19.1767V43H20.9011V40.2427ZM20.8471 38.1312C20.8471 37.2699 21.3539 36.6796 22.0875 36.6796V36.6781C22.8324 36.6781 23.3389 37.2699 23.3389 38.1312C23.3389 38.9924 22.8317 39.5828 22.0875 39.5828C21.3539 39.5828 20.8471 38.9924 20.8471 38.1312ZM29.098 36.7351H27.9224V38.745C27.9224 39.2218 27.9872 39.3353 28.0723 39.4377C28.1473 39.5285 28.2556 39.5739 28.482 39.5739C28.6593 39.5698 28.8345 39.5352 28.9997 39.4715L29.086 40.8908C28.6867 41.0084 28.2728 41.0696 27.8564 41.0724C27.2416 41.0724 26.8319 40.8792 26.562 40.5513C26.2921 40.2234 26.1845 39.7566 26.1845 38.905V36.7351H25.4295V35.3613H26.1845V33.8401H27.9209V35.3613H29.0965L29.098 36.7351ZM34.1953 40.4062C34.1971 40.4045 34.1986 40.4031 34.1999 40.4021L33.7913 39.029C33.7913 39.029 33.2507 39.5739 32.4418 39.5739C31.6328 39.5739 31.1042 39.0175 31.1042 38.132C31.1042 37.2465 31.6868 36.7128 32.42 36.7128C32.9218 36.7128 33.4073 36.8899 33.7898 37.2123L34.1673 35.8385C34.1673 35.8385 33.5525 35.2482 32.1936 35.2482C30.7376 35.2482 29.3679 36.2926 29.3679 38.1659C29.3679 40.0276 30.7159 41.072 32.1722 41.072C33.4965 41.072 34.0722 40.5234 34.1837 40.4172C34.1883 40.4127 34.1922 40.409 34.1953 40.4062ZM40.1426 40.9469H38.4062V38.0065C38.4062 37.3254 38.32 36.7351 37.5973 36.7351C36.8745 36.7351 36.6481 37.3708 36.6481 38.1997V40.9469H34.9237V33.1135H36.6481V34.9745C36.6481 35.5422 36.6372 36.1552 36.6372 36.1552C36.9068 35.6557 37.414 35.247 38.2012 35.247C39.7434 35.247 40.1426 36.2802 40.1426 37.6425V40.9469ZM44.3498 40.947H45.9992L46 37.7922C46 36.8498 45.7725 36.3056 45.3627 35.8962C44.9421 35.4871 44.3704 35.2489 43.3782 35.2489C42.3859 35.2489 41.5552 35.5783 41.1024 35.8165L41.5563 36.9964C41.8262 36.8148 42.5055 36.4969 43.1851 36.4969C43.8753 36.4969 44.2745 36.8036 44.2745 37.3939V37.5186L42.937 37.5752C41.9556 37.6206 40.8662 38.0408 40.8662 39.2895C40.8662 40.5383 41.8596 41.072 42.7968 41.072C43.6441 41.072 44.0768 40.6124 44.3052 40.3699L44.3176 40.3567L44.3498 40.947ZM43.4322 38.5399L44.2842 38.4834V39.4031C44.1763 39.5959 43.8636 39.9137 43.3999 39.9137C42.9253 39.9137 42.591 39.6524 42.591 39.2211C42.591 38.8005 42.9036 38.5626 43.4322 38.5399Z" fill="#4D4D4D"/>
</svg>
