<svg width="45" height="45" viewBox="0 0 45 45" fill="none" xmlns="http://www.w3.org/2000/svg">
<rect width="45" height="45" rx="12" fill="#E7EDFF"/>
<path d="M17.4615 17.8462C17.4615 19.1314 17.9721 20.3641 18.8809 21.2729C19.7898 22.1817 21.0224 22.6923 22.3077 22.6923C23.593 22.6923 24.8256 22.1817 25.7344 21.2729C26.6433 20.3641 27.1538 19.1314 27.1538 17.8462C27.1538 16.5609 26.6433 15.3282 25.7344 14.4194C24.8256 13.5106 23.593 13 22.3077 13C21.0224 13 19.7898 13.5106 18.8809 14.4194C17.9721 15.3282 17.4615 16.5609 17.4615 17.8462ZM29.2308 31H14.6923C14.5087 31 14.3326 30.9271 14.2028 30.7972C14.0729 30.6674 14 30.4913 14 30.3077V28.2308C14 27.3127 14.3647 26.4323 15.0139 25.7831C15.663 25.1339 16.5435 24.7692 17.4615 24.7692H27.1538C28.0719 24.7692 28.9524 25.1339 29.6015 25.7831C30.2507 26.4323 30.6154 27.3127 30.6154 28.2308V30.3077C30.6154 30.4913 30.5424 30.6674 30.4126 30.7972C30.2828 30.9271 30.1067 31 29.9231 31H29.2308Z" fill="#396AFF"/>
</svg>
