<svg width="45" height="45" viewBox="0 0 45 45" fill="none" xmlns="http://www.w3.org/2000/svg">
<rect width="45" height="45" rx="12" fill="#FFF5D9"/>
<path d="M28.5 12H17.25C16.5625 12 16 12.5625 16 13.25V30.75C16 31.4375 16.5625 32 17.25 32H28.5C29.1875 32 29.75 31.4375 29.75 30.75V13.25C29.75 12.5625 29.1875 12 28.5 12ZM22.875 31.0975C22.7444 31.1022 22.6143 31.0805 22.4923 31.0338C22.3703 30.987 22.2589 30.9162 22.1649 30.8255C22.0709 30.7348 21.9961 30.6261 21.945 30.5058C21.894 30.3856 21.8676 30.2563 21.8676 30.1256C21.8676 29.995 21.894 29.8657 21.945 29.7454C21.9961 29.6252 22.0709 29.5165 22.1649 29.4257C22.2589 29.335 22.3703 29.2642 22.4923 29.2175C22.6143 29.1707 22.7444 29.1491 22.875 29.1537C23.1267 29.1628 23.3651 29.2691 23.54 29.4504C23.7149 29.6317 23.8126 29.8737 23.8126 30.1256C23.8126 30.3775 23.7149 30.6196 23.54 30.8008C23.3651 30.9821 23.1267 31.0885 22.875 31.0975ZM28.5 28.25H17.25V14.5H28.5V28.25Z" fill="#F3AD26"/>
</svg>
