<svg width="23" height="16" viewBox="0 0 23 16" fill="none" xmlns="http://www.w3.org/2000/svg">
<path d="M20.8 0H1.6C1.17565 0 0.768687 0.168571 0.468629 0.468629C0.168571 0.768687 0 1.17565 0 1.6V14.4C0 14.8243 0.168571 15.2313 0.468629 15.5314C0.768687 15.8314 1.17565 16 1.6 16H20.8C21.2243 16 21.6313 15.8314 21.9314 15.5314C22.2314 15.2313 22.4 14.8243 22.4 14.4V1.6C22.4 1.17565 22.2314 0.768687 21.9314 0.468629C21.6313 0.168571 21.2243 0 20.8 0ZM18.858 9.471C18.9198 9.55636 18.9642 9.65305 18.9886 9.75556C19.013 9.85807 19.017 9.96438 19.0003 10.0684C18.9836 10.1725 18.9466 10.2722 18.8914 10.362C18.8362 10.4517 18.7639 10.5297 18.6785 10.5915C18.5931 10.6533 18.4964 10.6977 18.3939 10.7221C18.2914 10.7465 18.1851 10.7505 18.0811 10.7338C17.977 10.7171 17.8773 10.6801 17.7875 10.6249C17.6978 10.5697 17.6198 10.4974 17.558 10.412L16.8 9.361L16.037 10.412C15.9122 10.5844 15.7241 10.7002 15.5139 10.7338C15.3038 10.7675 15.0889 10.7163 14.9165 10.5915C14.7441 10.4667 14.6284 10.2786 14.5947 10.0684C14.561 9.85829 14.6122 9.64339 14.737 9.471L15.501 8.421L14.265 8.021C14.1651 7.98817 14.0727 7.93599 13.993 7.86744C13.9133 7.79889 13.8479 7.71531 13.8005 7.62148C13.7047 7.43197 13.6882 7.2122 13.7545 7.0105C13.7873 6.91063 13.8395 6.8182 13.9081 6.7385C13.9766 6.65879 14.0602 6.59337 14.154 6.54597C14.3435 6.45023 14.5633 6.4337 14.765 6.5L16 6.9V5.6C16 5.38783 16.0843 5.18434 16.2343 5.03431C16.3843 4.88429 16.5878 4.8 16.8 4.8C17.0122 4.8 17.2157 4.88429 17.3657 5.03431C17.5157 5.18434 17.6 5.38783 17.6 5.6V6.9L18.835 6.5C18.9349 6.46717 19.0402 6.45433 19.1451 6.46222C19.2499 6.47011 19.3521 6.49856 19.446 6.54597C19.5398 6.59337 19.6234 6.65879 19.6919 6.7385C19.7605 6.8182 19.8127 6.91063 19.8455 7.0105C19.8783 7.11037 19.8912 7.21573 19.8833 7.32056C19.8754 7.42539 19.8469 7.52764 19.7995 7.62148C19.7521 7.71531 19.6867 7.79889 19.607 7.86744C19.5273 7.93599 19.4349 7.98817 19.335 8.021L18.099 8.421L18.858 9.471ZM11.658 9.471C11.7198 9.55636 11.7642 9.65305 11.7886 9.75556C11.813 9.85807 11.817 9.96438 11.8003 10.0684C11.7836 10.1725 11.7466 10.2722 11.6914 10.362C11.6362 10.4517 11.5639 10.5297 11.4785 10.5915C11.3931 10.6533 11.2964 10.6977 11.1939 10.7221C11.0914 10.7465 10.9851 10.7505 10.8811 10.7338C10.777 10.7171 10.6773 10.6801 10.5875 10.6249C10.4978 10.5697 10.4198 10.4974 10.358 10.412L9.6 9.361L8.837 10.412C8.71222 10.5844 8.52406 10.7002 8.31393 10.7338C8.10379 10.7675 7.88889 10.7163 7.7165 10.5915C7.54411 10.4667 7.42835 10.2786 7.39469 10.0684C7.36102 9.85829 7.41222 9.64339 7.537 9.471L8.301 8.421L7.065 8.021C6.96513 7.98817 6.8727 7.93599 6.793 7.86744C6.71329 7.79889 6.64787 7.71531 6.60047 7.62148C6.50473 7.43197 6.4882 7.2122 6.5545 7.0105C6.58733 6.91063 6.63951 6.8182 6.70806 6.7385C6.77661 6.65879 6.86019 6.59337 6.95402 6.54597C7.14353 6.45023 7.3633 6.4337 7.565 6.5L8.8 6.9V5.6C8.8 5.38783 8.88429 5.18434 9.03432 5.03431C9.18434 4.88429 9.38783 4.8 9.6 4.8C9.81217 4.8 10.0157 4.88429 10.1657 5.03431C10.3157 5.18434 10.4 5.38783 10.4 5.6V6.9L11.635 6.5C11.7349 6.46717 11.8402 6.45433 11.9451 6.46222C12.0499 6.47011 12.1521 6.49856 12.246 6.54597C12.3398 6.59337 12.4234 6.65879 12.4919 6.7385C12.5605 6.8182 12.6127 6.91063 12.6455 7.0105C12.6783 7.11037 12.6912 7.21573 12.6833 7.32056C12.6754 7.42539 12.6469 7.52764 12.5995 7.62148C12.5521 7.71531 12.4867 7.79889 12.407 7.86744C12.3273 7.93599 12.2349 7.98817 12.135 8.021L10.899 8.421L11.658 9.471ZM4.8 4V12C4.8 12.2122 4.71571 12.4157 4.56569 12.5657C4.41566 12.7157 4.21217 12.8 4 12.8C3.78783 12.8 3.58434 12.7157 3.43431 12.5657C3.28429 12.4157 3.2 12.2122 3.2 12V4C3.2 3.78783 3.28429 3.58434 3.43431 3.43431C3.58434 3.28429 3.78783 3.2 4 3.2C4.21217 3.2 4.41566 3.28429 4.56569 3.43431C4.71571 3.58434 4.8 3.78783 4.8 4Z" fill="white"/>
</svg>
