<svg width="45" height="45" viewBox="0 0 45 45" fill="none" xmlns="http://www.w3.org/2000/svg">
<rect width="45" height="45" rx="12" fill="#FFEEF4"/>
<path d="M32 23.13C31.85 23.14 31.71 23.19 31.61 23.3L30.61 24.3L32.66 26.3L33.66 25.3C33.88 25.09 33.88 24.74 33.66 24.53L32.42 23.3C32.3199 23.1966 32.1838 23.1357 32.04 23.13M30.04 24.88L24 30.94V33H26.06L32.12 26.93M31 15H15C14.4696 15 13.9609 15.2107 13.5858 15.5858C13.2107 15.9609 13 16.4696 13 17V29C13 29.5304 13.2107 30.0391 13.5858 30.4142C13.9609 30.7893 14.4696 31 15 31H22V30.11L30.24 21.89C30.71 21.4 31.36 21.13 32.04 21.13C32.38 21.13 32.72 21.19 33.04 21.32V17C33.04 15.88 32.12 15 31 15ZM31 19L23 24L15 19V17L23 22L31 17" fill="#FF82AC"/>
</svg>
