<svg width="45" height="45" viewBox="0 0 45 45" fill="none" xmlns="http://www.w3.org/2000/svg">
<rect width="45" height="45" rx="12" fill="#FFEEF4"/>
<path d="M23.1384 17.0909C23.1384 18.1759 22.7074 19.2164 21.9402 19.9836C21.173 20.7508 20.1325 21.1818 19.0475 21.1818C17.9625 21.1818 16.922 20.7508 16.1548 19.9836C15.3876 19.2164 14.9566 18.1759 14.9566 17.0909C14.9566 16.0059 15.3876 14.9654 16.1548 14.1982C16.922 13.431 17.9625 13 19.0475 13C20.1325 13 21.173 13.431 21.9402 14.1982C22.7074 14.9654 23.1384 16.0059 23.1384 17.0909ZM27.0657 29.3735C27.2457 30.2604 26.4962 31 25.593 31H12.502C11.5971 31 10.8493 30.2604 11.026 29.3735C11.4025 27.524 12.4065 25.8614 13.8682 24.6673C15.3299 23.4732 17.1593 22.8209 19.0467 22.8209C20.9341 22.8209 22.7635 23.4732 24.2252 24.6673C25.6868 25.8614 26.6909 27.524 27.0673 29.3735M32.1417 29.3636H29.5399C29.5258 29.2045 29.5039 29.0461 29.4744 28.8891C29.1611 27.3454 28.5089 25.8905 27.5648 24.6296C28.7675 24.2978 30.0515 24.4364 31.1558 25.0172C32.2601 25.5981 33.1017 26.5776 33.5097 27.7567C33.8042 28.6109 33.0466 29.3636 32.1417 29.3636ZM28.8657 22.8182C29.7337 22.8182 30.5661 22.4734 31.1799 21.8596C31.7936 21.2459 32.1384 20.4134 32.1384 19.5455C32.1384 18.6775 31.7936 17.845 31.1799 17.2313C30.5661 16.6175 29.7337 16.2727 28.8657 16.2727C27.9977 16.2727 27.1653 16.6175 26.5515 17.2313C25.9378 17.845 25.593 18.6775 25.593 19.5455C25.593 20.4134 25.9378 21.2459 26.5515 21.8596C27.1653 22.4734 27.9977 22.8182 28.8657 22.8182Z" fill="#FF82AC"/>
</svg>
