<svg width="256" height="256" viewBox="0 0 256 256" fill="none" xmlns="http://www.w3.org/2000/svg">
<g clip-path="url(#clip0_0_3)">
<path d="M23.4853 100.207C28.1032 100.127 32.5607 98.4996 36.1442 95.5858C39.3622 92.9331 43.0672 86.5325 39.2454 82.8108C38.3809 81.9809 37.2268 81.521 36.0285 81.5288C35.1845 81.5289 34.3579 81.7683 33.6445 82.219C31.4511 83.6123 31.0782 86.6216 29.6436 88.6274C28.874 89.6279 27.8723 90.426 26.7251 90.9526C25.5778 91.4791 24.3196 91.7184 23.0592 91.6496C16.1802 91.6496 13.8091 85.118 13.8091 79.2038C13.5828 75.7274 14.5141 72.2739 16.4574 69.3825C17.2533 68.324 18.2939 67.4741 19.49 66.9056C20.6862 66.3372 22.0023 66.0672 23.3257 66.1187C24.9838 66.1401 26.6005 66.64 27.9814 67.5582C29.3622 68.4764 30.4485 69.7739 31.1097 71.2947C32.6857 74.2629 36.2672 76.9095 39.2335 73.6879C40.0485 72.836 40.5005 71.7007 40.4941 70.5218C40.3993 68.3716 39.6376 66.3043 38.3148 64.6066C36.5384 62.3318 34.2503 60.5082 31.6366 59.2839C29.0228 58.0597 26.1571 57.4694 23.2723 57.561C11.4232 57.561 3.52042 67.5781 3.52042 78.9374C3.51198 80.8586 3.70337 82.7756 4.0915 84.6572C4.96762 89.1218 7.39548 93.1323 10.9451 95.9783C14.4947 98.8244 18.937 100.323 23.4853 100.207ZM70.4543 100.207C73.3921 100.255 76.3118 99.7389 79.0549 98.6862C87.1209 95.4409 90.6855 87.0682 90.6855 78.8309C90.7266 74.985 89.8881 71.1806 88.234 67.7084C87.6146 66.4517 86.8571 65.2679 85.9757 64.1788C84.0242 61.972 81.6019 60.2317 78.8878 59.0863C76.1737 57.9409 73.2369 57.4196 70.2944 57.561C58.1335 57.561 50.1697 66.9887 50.1697 78.7775C50.1697 90.7124 58.1193 100.207 70.4543 100.207ZM61.2442 73.1701C61.6657 71.7251 62.3703 70.3782 63.317 69.2079C64.1505 68.2233 65.1947 67.4386 66.3722 66.9117C67.6099 66.3761 68.946 66.106 70.2945 66.1186C72.1604 66.0851 73.9972 66.5839 75.5897 67.5566C77.1718 68.5773 78.4005 70.0612 79.108 71.806C80.0151 74.0157 80.4539 76.3896 80.3967 78.7776C80.4755 81.2888 79.9991 83.7865 79.0014 86.0924C78.2481 87.8217 76.9924 89.2846 75.3973 90.2913C74.0599 91.0655 72.5617 91.5203 71.0196 91.6204C69.4775 91.7205 67.9331 91.4632 66.5068 90.8684C65.3046 90.3248 64.2395 89.519 63.3894 88.51C62.4039 87.3214 61.6741 85.9424 61.2456 84.459C60.6994 82.6155 60.434 80.7002 60.4585 78.7776C60.4336 76.8793 60.6985 74.9884 61.2442 73.1701ZM102.166 99.4526C105.914 101.953 109.529 98.3831 109.529 94.5968V76.8187C109.529 76.8187 113.54 92.7621 113.552 92.8065C114.47 96.2339 115.633 100.207 119.951 100.207C124.337 100.207 125.465 96.3119 126.353 92.7977L130.373 76.8187V94.5968C130.302 95.2784 130.369 95.9673 130.57 96.6222C130.772 97.2772 131.103 97.8848 131.545 98.4086C131.987 98.9325 132.53 99.3618 133.141 99.6708C133.753 99.9799 134.421 100.162 135.104 100.207C138.281 100.207 139.916 97.5563 139.916 94.5968V63.704C139.989 62.8137 139.826 61.92 139.444 61.1127C139.062 60.3053 138.474 59.6128 137.739 59.1047C135.741 58.2584 133.555 57.9555 131.403 58.2267C129.789 58.0908 128.176 58.4967 126.819 59.3804C125.553 60.7335 124.75 62.4537 124.526 64.2928L119.951 81.5354L115.378 64.2954C114.833 62.211 114.385 59.6064 112.13 58.7061C110.15 58.1716 108.088 58.009 106.049 58.2266C102.505 58.2266 99.9861 59.9797 99.9861 63.7039V94.5968C99.9301 95.5221 100.099 96.4472 100.479 97.2929C100.859 98.1386 101.438 98.8797 102.166 99.4526ZM154.267 100.207C157.611 100.207 159.398 97.4096 159.398 94.2506V63.491C159.505 61.9037 159.001 60.3358 157.988 59.1086C157.505 58.6194 156.93 58.2314 156.295 57.9672C155.66 57.7031 154.979 57.568 154.292 57.5699C153.604 57.5718 152.924 57.7107 152.291 57.9785C151.658 58.2462 151.084 58.6374 150.604 59.1293C149.61 60.3573 149.115 61.9144 149.216 63.491V94.2506C149.216 97.2116 150.917 100.207 154.267 100.207ZM171.978 99.9365C175.716 101.159 178.375 98.0402 178.375 94.5435V75.49C178.375 75.49 191.115 95.0202 191.136 95.0524C192.816 97.6271 194.863 100.207 198.251 100.207C200.267 100.207 203.649 99.3905 203.649 93.9309V63.2245C203.649 60.2629 202.072 57.561 198.837 57.561C195.689 57.561 194.106 60.3385 194.106 63.2247V82.6658L180.988 62.8192C179.391 60.3106 177.861 57.5818 174.514 57.594C170.563 57.6082 168.699 60.8671 168.699 64.4231V94.5438C168.584 95.677 168.843 96.8166 169.434 97.7898C170.026 98.763 170.919 99.5167 171.978 99.9365ZM251.437 78.9432C250.764 78.1771 249.921 77.5804 248.974 77.2015C248.028 76.8225 247.006 76.6721 245.99 76.7624H237.015C236.436 76.7227 235.855 76.799 235.306 76.9869C234.757 77.1748 234.251 77.4705 233.817 77.8567C233.384 78.2428 233.032 78.7117 232.783 79.2357C232.533 79.7597 232.391 80.3283 232.364 80.9081C232.364 84.0041 235.313 84.9739 237.974 84.9739H242.963V89.4865C242.963 90.0376 238.807 91.1748 238.232 91.3185C234.048 92.3633 229.082 91.9825 226.122 88.5069C224.023 85.6746 223.001 82.188 223.238 78.6709C223.055 75.0246 224.278 71.4471 226.656 68.6762C228.118 67.3142 229.938 66.3976 231.903 66.0342C233.868 65.6707 235.895 65.8755 237.748 66.6245C238.64 67.0144 239.441 67.588 240.097 68.3078C241.496 69.9224 242.24 72.1323 244.237 73.1582C245.139 73.6199 246.163 73.7872 247.165 73.6365C248.167 73.4857 249.096 73.0246 249.822 72.3179C253.273 69.0257 249.881 63.9076 247.07 61.5319C243.447 58.7795 238.978 57.3753 234.432 57.5608C231.594 57.446 228.762 57.9178 226.115 58.9467C223.467 59.9755 221.06 61.5394 219.044 63.5405C217.027 65.5416 215.446 67.937 214.397 70.577C213.349 73.217 212.856 76.0449 212.949 78.884C212.912 81.8766 213.41 84.8519 214.418 87.6696C215.348 90.1967 216.81 92.4943 218.706 94.4063C220.601 96.3184 222.886 97.8003 225.405 98.7513C228.162 99.7465 231.075 100.24 234.006 100.207C240.074 100.207 252.48 98.0228 252.48 90.0161V82.5325C252.534 81.2542 252.168 79.9933 251.437 78.9432Z" fill="#3B4551"/>
<path d="M42.5527 154.848V142.868H12.3654C11.576 142.868 10.8029 143.092 10.1364 143.515C9.46998 143.938 8.9377 144.543 8.6018 145.257C8.26589 145.971 8.14025 146.766 8.23953 147.55C8.33882 148.333 8.65895 149.071 9.1625 149.679L26.5348 170.653L9.16256 191.627C8.65901 192.235 8.33889 192.974 8.2396 193.757C8.14031 194.54 8.26595 195.335 8.60185 196.05C8.93775 196.764 9.47002 197.368 10.1365 197.791C10.8029 198.214 11.576 198.439 12.3654 198.439H53.3102C57.3546 198.439 61.2333 196.832 64.0931 193.973C66.9529 191.113 68.5596 187.234 68.5596 183.19V175.642H63.3473C57.8322 175.642 52.543 173.451 48.6433 169.552C44.7436 165.652 42.5527 160.363 42.5527 154.848ZM243.635 142.868H213.43V154.848C213.43 160.363 211.239 165.652 207.339 169.552C203.44 173.451 198.15 175.642 192.635 175.642H187.44V183.19C187.44 187.234 189.047 191.113 191.907 193.973C194.767 196.832 198.645 198.439 202.69 198.439H243.635C244.424 198.439 245.197 198.214 245.863 197.791C246.53 197.368 247.062 196.764 247.398 196.05C247.734 195.335 247.86 194.54 247.76 193.757C247.661 192.974 247.341 192.235 246.837 191.627L229.465 170.653L246.838 149.679C247.341 149.071 247.661 148.333 247.76 147.55C247.86 146.766 247.734 145.971 247.398 145.257C247.062 144.542 246.53 143.938 245.864 143.515C245.197 143.092 244.424 142.868 243.635 142.868Z" fill="#2B79C2"/>
<path d="M109.075 128.378C103.755 128.378 101.549 133.415 101.549 138.064C101.549 141.583 102.658 145.762 106.177 147.316C107.558 147.91 109.085 148.071 110.56 147.78C112.034 147.488 113.385 146.757 114.435 145.683C116.133 143.52 116.976 140.808 116.805 138.064C116.805 133.287 114.425 128.378 109.075 128.378Z" fill="#3B4551"/>
<path d="M64.1375 112.567C61.5638 112.567 59.0955 113.589 57.2756 115.409C55.4558 117.229 54.4334 119.697 54.4334 122.271V154.041C54.4334 156.615 55.4558 159.083 57.2756 160.903C59.0955 162.723 61.5638 163.745 64.1375 163.745H191.825C194.398 163.745 196.867 162.723 198.686 160.903C200.506 159.083 201.529 156.615 201.529 154.041V122.271C201.529 119.697 200.506 117.229 198.686 115.409C196.867 113.589 194.398 112.567 191.825 112.567H64.1375ZM79.2292 154.135C73.9169 155.163 67.5032 154.131 64.3477 149.305C62.9651 147.19 61.8296 143.621 64.3901 141.884C66.8012 140.248 69.0223 142.007 69.9994 144.25C70.3553 145.512 71.1456 146.607 72.2306 147.342C73.3156 148.077 74.6256 148.406 75.9291 148.269C78.1974 148.152 81.5431 146.603 80.4638 143.751C79.5806 141.418 75.5878 141.097 73.5436 140.583C70.8506 140.091 68.3134 138.965 66.1419 137.297C64.9605 136.212 64.1171 134.808 63.7127 133.255C63.3083 131.703 63.3599 130.066 63.8614 128.542C64.4622 126.868 65.51 125.391 66.891 124.271C68.2721 123.151 69.9336 122.43 71.6952 122.188C76.8855 121.138 84.3456 122.102 86.577 127.738C87.5632 130.228 86.6505 133.653 83.4917 133.676C80.3872 133.7 80.294 130.158 78.1681 128.704C76.3245 127.444 72.4207 127.383 71.0825 129.485C69.483 131.999 73.658 133.079 75.3258 133.518C78.6955 134.131 81.9318 135.329 84.8875 137.059C85.8074 137.687 86.5823 138.504 87.1605 139.456C87.7386 140.408 88.1065 141.472 88.2395 142.578C89.04 148.535 84.8727 153.044 79.2292 154.135ZM109.198 154.462C99.7982 154.462 93.6763 147.168 93.6763 138.064C93.6763 128.994 99.7324 121.83 109.075 121.83C112 121.776 114.889 122.474 117.466 123.857C118.85 124.632 120.077 125.659 121.082 126.887C123.519 130.109 124.788 134.066 124.678 138.105C124.678 147.276 118.672 154.462 109.198 154.462ZM145.538 154.462C136.138 154.462 130.016 147.168 130.016 138.064C130.016 128.994 136.072 121.83 145.415 121.83C148.34 121.776 151.229 122.474 153.806 123.857C155.19 124.632 156.417 125.659 157.422 126.887C159.859 130.109 161.128 134.066 161.018 138.105C161.018 147.276 155.012 154.462 145.538 154.462ZM193.099 149.659C193.099 153.837 190.511 154.462 188.969 154.462C186.338 154.462 184.826 152.512 183.525 150.518L173.76 135.549V150.128C173.76 152.853 171.621 155.292 168.729 154.195C167.957 153.852 167.312 153.275 166.886 152.545C166.46 151.815 166.275 150.969 166.356 150.128V127.081C166.271 126.24 166.402 125.392 166.735 124.616C167.068 123.839 167.593 123.16 168.26 122.643C168.872 122.206 169.586 121.934 170.333 121.851C171.081 121.769 171.837 121.88 172.529 122.174C173.934 123.067 175.055 124.344 175.76 125.854C175.805 125.922 185.797 141.04 185.797 141.04V126.164C185.705 125.632 185.731 125.086 185.872 124.565C186.014 124.044 186.267 123.56 186.615 123.147C186.962 122.735 187.396 122.403 187.886 122.175C188.375 121.948 188.908 121.83 189.448 121.83C189.988 121.83 190.521 121.948 191.01 122.175C191.5 122.403 191.934 122.735 192.281 123.147C192.629 123.56 192.883 124.044 193.024 124.565C193.165 125.086 193.191 125.632 193.099 126.164L193.099 149.659Z" fill="#3B4551"/>
<path d="M145.415 128.378C140.095 128.378 137.889 133.415 137.889 138.064C137.889 141.583 138.998 145.762 142.517 147.316C143.898 147.91 145.425 148.071 146.9 147.78C148.374 147.488 149.725 146.757 150.775 145.683C152.473 143.52 153.316 140.808 153.145 138.064C153.145 133.287 150.765 128.378 145.415 128.378Z" fill="#3B4551"/>
</g>
<defs>
<clipPath id="clip0_0_3">
<rect width="256" height="256" fill="white"/>
</clipPath>
</defs>
</svg>
