<svg width="90" height="90" viewBox="0 0 90 90" fill="none" xmlns="http://www.w3.org/2000/svg">
<circle cx="45" cy="45" r="45" fill="#F75A42"/>
<path d="M45 64C42.3717 64 39.9017 63.5009 37.59 62.5028C35.2783 61.5047 33.2675 60.1512 31.5575 58.4425C29.8475 56.7338 28.4941 54.7229 27.4972 52.41C26.5003 50.0971 26.0013 47.6271 26 45C25.9987 42.3729 26.4978 39.9029 27.4972 37.59C28.4966 35.2771 29.85 33.2662 31.5575 31.5575C33.265 29.8488 35.2758 28.4953 37.59 27.4972C39.9042 26.4991 42.3742 26 45 26C47.6258 26 50.0958 26.4991 52.41 27.4972C54.7242 28.4953 56.735 29.8488 58.4425 31.5575C60.15 33.2662 61.504 35.2771 62.5047 37.59C63.5053 39.9029 64.0038 42.3729 64 45C63.9962 47.6271 63.4971 50.0971 62.5028 52.41C61.5084 54.7229 60.155 56.7338 58.4425 58.4425C56.73 60.1512 54.7191 61.5053 52.41 62.5047C50.1009 63.5041 47.6309 64.0025 45 64Z" fill="white"/>
<path d="M39.8571 52.1111C39.8571 53.15 40.6286 54 41.5714 54H48.4286C49.3714 54 50.1429 53.15 50.1429 52.1111V40.7778H39.8571V52.1111ZM51 37.9444H48L47.1429 37H42.8571L42 37.9444H39V39.8333H51V37.9444Z" fill="#F75A42"/>
</svg>
