<svg width="22" height="24" viewBox="0 0 22 24" fill="none" xmlns="http://www.w3.org/2000/svg">
    <path d="M5.95817 11H3.6665V6.75C3.6665 6.05 4.17067 5.5 4.81234 5.5C5.454 5.5 5.95817 6.05 5.95817 6.75V11ZM9.1665 11H6.87484V3.75C6.87484 3.05 7.379 2.5 8.02067 2.5C8.66234 2.5 9.1665 3.05 9.1665 3.75V11ZM12.3748 11H10.0832V2.75C10.0832 2.05 10.5873 1.5 11.229 1.5C11.8707 1.5 12.3748 2.05 12.3748 2.75V11ZM15.5832 11H13.2915V4.25C13.2915 3.55 13.7957 3 14.4373 3C15.079 3 15.5832 3.55 15.5832 4.25V11ZM14.7123 21.5L12.4207 19L17.004 14C17.6457 13.3 18.654 13.3 19.2498 14C19.8915 14.7 19.8915 15.8 19.2498 16.45L14.7123 21.5Z" fill="white"/>
    <path d="M13.2915 10.5C13.2915 10.8 13.1082 11 12.8332 11C12.5582 11 12.3748 10.8 12.3748 10.5H10.0832C10.0832 10.8 9.89984 11 9.62484 11C9.34984 11 9.1665 10.8 9.1665 10.5H6.87484C6.87484 10.8 6.6915 11 6.4165 11C6.1415 11 5.95817 10.8 5.95817 10.5H3.6665V18.5C3.6665 20.7 5.3165 22.5 7.33317 22.5H12.4665C14.1623 22.5 15.5832 21 15.5832 19.1V10.5H13.2915Z" fill="white"/>
    <path d="M7.06396 15.0949L8.19788 14L13.0585 18.6935L11.9246 19.7884L7.06396 15.0949Z" fill="#2958FF"/>
    <path d="M11.9134 14.0031L13.0477 15.098L8.18711 19.7914L7.05273 18.6965L11.9134 14.0031Z" fill="#2958FF"/>
</svg>
