<svg width="26" height="26" viewBox="0 0 26 26" fill="none" xmlns="http://www.w3.org/2000/svg">
<path d="M8.38477 14.8461L13.0002 19.4615M13.0002 19.4615L17.6155 14.8461M13.0002 19.4615V6.53845" stroke="#222D40" stroke-width="1.5" stroke-linecap="round" stroke-linejoin="round"/>
<path d="M13 25C16.1826 25 19.2348 23.7357 21.4853 21.4853C23.7357 19.2348 25 16.1826 25 13C25 9.8174 23.7357 6.76516 21.4853 4.51472C19.2348 2.26428 16.1826 1 13 1C9.8174 1 6.76516 2.26428 4.51472 4.51472C2.26428 6.76516 1 9.8174 1 13C1 16.1826 2.26428 19.2348 4.51472 21.4853C6.76516 23.7357 9.8174 25 13 25Z" stroke="#222D40" stroke-width="1.5" stroke-linecap="round" stroke-linejoin="round"/>
</svg>
