<svg width="45" height="45" viewBox="0 0 45 45" fill="none" xmlns="http://www.w3.org/2000/svg">
<rect width="45" height="45" rx="12" fill="#B6FFE6"/>
<path d="M30.8125 27.25V26.0625H29.565C29.488 25.691 29.3405 25.3376 29.1304 25.0217L30.0151 24.137L29.1755 23.2974L28.2908 24.1821C27.9749 23.972 27.6215 23.8245 27.25 23.7475V22.5H26.0625V23.7475C25.691 23.8245 25.3376 23.972 25.0217 24.1821L24.137 23.2974L23.2974 24.137L24.1821 25.0217C23.972 25.3376 23.8245 25.691 23.7475 26.0625H22.5V27.25H23.7475C23.8247 27.6282 23.9755 27.9797 24.1821 28.2908L23.2974 29.1755L24.137 30.0151L25.0217 29.1304C25.3376 29.3405 25.691 29.488 26.0625 29.565V30.8125H27.25V29.565C27.6215 29.488 27.9749 29.3405 28.2908 29.1304L29.1755 30.0151L30.0151 29.1755L29.1304 28.2908C29.3405 27.9749 29.488 27.6215 29.565 27.25H30.8125ZM26.6562 28.4375C25.6742 28.4375 24.875 27.6383 24.875 26.6562C24.875 25.6742 25.6742 24.875 26.6562 24.875C27.6383 24.875 28.4375 25.6742 28.4375 26.6562C28.4375 27.6383 27.6383 28.4375 26.6562 28.4375ZM20.125 16.5625H22.5V17.75H20.125V16.5625Z" fill="#0D5C41"/>
<path d="M16.5625 29.625V15.375H26.0625V20.7188H27.25V15.375C27.25 14.7201 26.7174 14.1875 26.0625 14.1875H16.5625C15.9076 14.1875 15.375 14.7201 15.375 15.375V29.625C15.375 30.2799 15.9076 30.8125 16.5625 30.8125H21.3125V29.625H16.5625Z" fill="#0D5C41"/>
</svg>
