<svg width="45" height="45" viewBox="0 0 45 45" fill="none" xmlns="http://www.w3.org/2000/svg">
<rect width="45" height="45" rx="12" fill="#A2E5CF"/>
<path d="M24.666 12.4271L31.416 16.4071L31.512 16.4701L31.605 16.5481L31.711 16.6221C32.086 16.9031 32.3952 17.2625 32.617 17.6753C32.8388 18.0881 32.9678 18.5443 32.995 19.0121L33 19.2161V26.5001C33 27.6751 32.357 28.7561 31.377 29.2931L24.573 33.5951C23.593 34.1331 22.407 34.1331 21.373 33.5631L14.678 29.3261C14.171 29.0484 13.7478 28.6396 13.4527 28.1425C13.1575 27.6454 13.0012 27.0783 13 26.5001V19.2151C13 18.1091 13.57 17.0871 14.476 16.5101L21.426 12.4121C22.426 11.8601 23.64 11.8601 24.666 12.4271ZM25 17.9981H21C20.7348 17.9981 20.4804 18.1035 20.2929 18.291C20.1054 18.4786 20 18.7329 20 18.9981V26.9981C20 27.2634 20.1054 27.5177 20.2929 27.7053C20.4804 27.8928 20.7348 27.9981 21 27.9981H25C25.2652 27.9981 25.5196 27.8928 25.7071 27.7053C25.8946 27.5177 26 27.2634 26 26.9981L25.993 26.8811C25.9643 26.6379 25.8474 26.4136 25.6644 26.2509C25.4813 26.0881 25.2449 25.9982 25 25.9981H22V23.9981H23.5C23.7449 23.9981 23.9813 23.9082 24.1644 23.7454C24.3474 23.5827 24.4643 23.3584 24.493 23.1151L24.5 22.9981C24.5 22.7329 24.3946 22.4786 24.2071 22.291C24.0196 22.1035 23.7652 21.9981 23.5 21.9981H22V19.9981H25C25.2652 19.9981 25.5196 19.8928 25.7071 19.7053C25.8946 19.5177 26 19.2634 26 18.9981C26 18.7329 25.8946 18.4786 25.7071 18.291C25.5196 18.1035 25.2652 17.9981 25 17.9981Z" fill="#2F9B76"/>
</svg>
