<svg width="45" height="45" viewBox="0 0 45 45" fill="none" xmlns="http://www.w3.org/2000/svg">
<rect width="45" height="45" rx="12" fill="#FEF0DC"/>
<path d="M22 34C15.9246 34 11 29.0754 11 23C11 16.9246 15.9246 12 22 12C28.0754 12 33 16.9246 33 23C33 29.0754 28.0754 34 22 34ZM17.5113 18.1985C17.1621 18.1985 16.7963 18.1669 16.4787 18.3222C16.3116 18.5794 16.2724 18.9451 16.4711 19.2023C16.6616 19.3734 16.9393 19.3734 17.1861 19.381C18.2902 19.381 19.3944 19.3734 20.4992 19.381C20.4676 20.338 20.4992 21.3033 20.4834 22.2685C19.4982 22.2685 18.5048 22.2603 17.5203 22.2685C17.2659 22.2685 16.9634 22.3152 16.852 22.5717C16.7647 22.8054 16.7647 23.1086 16.9634 23.2874C17.1304 23.4276 17.369 23.4276 17.5835 23.4359C18.5529 23.4359 19.514 23.4276 20.4834 23.4359C20.4834 24.4864 20.4676 25.5444 20.4909 26.6025C19.2356 26.6259 17.9726 26.5874 16.7166 26.6259C16.1851 26.5949 15.9864 27.3113 16.3199 27.6454C16.5103 27.8173 16.7887 27.7933 17.0349 27.8091C19.2913 27.8091 21.5401 27.8166 23.7964 27.8091C24.9563 27.8015 26.18 27.5134 27.0538 26.7276C28.039 25.871 28.468 24.5565 28.5237 23.3039C28.5794 22.0423 28.3333 20.6886 27.4911 19.6849C26.7761 18.8207 25.6712 18.3697 24.5671 18.2528C23.4623 18.1518 22.7267 18.1978 21.2465 18.1978H17.5106L17.5113 18.1985ZM21.8659 22.2685V19.7859C21.8735 19.6457 21.8818 19.4511 22.0406 19.4044C22.5411 19.3576 23.0031 19.3734 23.5421 19.3734C24.4874 19.3184 25.5049 19.5522 26.18 20.2369C26.9266 21.0001 27.1178 22.1207 27.0937 23.1396C27.0779 24.0581 26.8393 25.0233 26.1876 25.7156C25.5523 26.377 24.5994 26.6575 23.6933 26.6183C23.0835 26.6183 22.6126 26.6341 22.0722 26.5874C21.8735 26.5716 21.8659 26.3385 21.8577 26.1824C21.8577 25.2646 21.8659 24.3537 21.8577 23.4359C22.3108 23.4276 22.7721 23.4744 23.2162 23.4042C23.7648 23.3266 23.7648 22.3771 23.2244 22.2994C22.7714 22.2376 22.3183 22.2761 21.8659 22.2685Z" fill="#DBB379"/>
</svg>
