<svg width="45" height="45" viewBox="0 0 45 45" fill="none" xmlns="http://www.w3.org/2000/svg">
<rect width="45" height="45" rx="12" fill="#E0E0E0"/>
<path d="M15 31.45C14.45 31.45 13.9793 31.2543 13.588 30.863C13.1967 30.4717 13.0007 30.0007 13 29.45V24.9L15.75 21.775L17.175 23.2L15.175 25.45H28.825L26.875 23.25L28.3 21.825L31 24.9V29.45C31 30 30.8043 30.471 30.413 30.863C30.0217 31.255 29.5507 31.4507 29 31.45H15ZM20.6 23.85L17.125 20.325C16.7417 19.9417 16.55 19.4667 16.55 18.9C16.55 18.3333 16.7417 17.8583 17.125 17.475L22.025 12.575C22.4083 12.1917 22.8833 12 23.45 12C24.0167 12 24.4917 12.1917 24.875 12.575L28.4 16.05C28.7833 16.4333 28.9793 16.904 28.988 17.462C28.9967 18.02 28.809 18.491 28.425 18.875L23.425 23.875C23.0417 24.2583 22.571 24.446 22.013 24.438C21.455 24.43 20.984 24.234 20.6 23.85ZM27 17.45L23.45 13.95L18.5 18.9L22.05 22.4L27 17.45Z" fill="#696969"/>
</svg>
