<svg width="40" height="40" viewBox="0 0 40 40" fill="none" xmlns="http://www.w3.org/2000/svg">
<rect width="40" height="40" rx="20" fill="#EAECEF"/>
<path d="M17 13C16.7348 13 16.4804 13.1054 16.2929 13.2929C16.1054 13.4804 16 13.7348 16 14C16 14.2652 16.1054 14.5196 16.2929 14.7071C16.4804 14.8947 16.7348 15 17 15C17.2652 15 17.5196 14.8947 17.7071 14.7071C17.8946 14.5196 18 14.2652 18 14C18 13.7348 17.8946 13.4804 17.7071 13.2929C17.5196 13.1054 17.2652 13 17 13ZM14.17 13C14.3766 12.4145 14.7597 11.9074 15.2666 11.5488C15.7735 11.1902 16.3791 10.9976 17 10.9976C17.6209 10.9976 18.2265 11.1902 18.7334 11.5488C19.2403 11.9074 19.6234 12.4145 19.83 13H27C27.2652 13 27.5196 13.1054 27.7071 13.2929C27.8946 13.4804 28 13.7348 28 14C28 14.2652 27.8946 14.5196 27.7071 14.7071C27.5196 14.8947 27.2652 15 27 15H19.83C19.6234 15.5855 19.2403 16.0926 18.7334 16.4512C18.2265 16.8099 17.6209 17.0025 17 17.0025C16.3791 17.0025 15.7735 16.8099 15.2666 16.4512C14.7597 16.0926 14.3766 15.5855 14.17 15H13C12.7348 15 12.4804 14.8947 12.2929 14.7071C12.1054 14.5196 12 14.2652 12 14C12 13.7348 12.1054 13.4804 12.2929 13.2929C12.4804 13.1054 12.7348 13 13 13H14.17ZM23 19C22.7348 19 22.4804 19.1054 22.2929 19.2929C22.1054 19.4804 22 19.7348 22 20C22 20.2652 22.1054 20.5196 22.2929 20.7071C22.4804 20.8947 22.7348 21 23 21C23.2652 21 23.5196 20.8947 23.7071 20.7071C23.8946 20.5196 24 20.2652 24 20C24 19.7348 23.8946 19.4804 23.7071 19.2929C23.5196 19.1054 23.2652 19 23 19ZM20.17 19C20.3766 18.4145 20.7597 17.9074 21.2666 17.5488C21.7735 17.1902 22.3791 16.9976 23 16.9976C23.6209 16.9976 24.2265 17.1902 24.7334 17.5488C25.2403 17.9074 25.6234 18.4145 25.83 19H27C27.2652 19 27.5196 19.1054 27.7071 19.2929C27.8946 19.4804 28 19.7348 28 20C28 20.2652 27.8946 20.5196 27.7071 20.7071C27.5196 20.8947 27.2652 21 27 21H25.83C25.6234 21.5855 25.2403 22.0926 24.7334 22.4512C24.2265 22.8099 23.6209 23.0025 23 23.0025C22.3791 23.0025 21.7735 22.8099 21.2666 22.4512C20.7597 22.0926 20.3766 21.5855 20.17 21H13C12.7348 21 12.4804 20.8947 12.2929 20.7071C12.1054 20.5196 12 20.2652 12 20C12 19.7348 12.1054 19.4804 12.2929 19.2929C12.4804 19.1054 12.7348 19 13 19H20.17ZM17 25C16.7348 25 16.4804 25.1054 16.2929 25.2929C16.1054 25.4804 16 25.7348 16 26C16 26.2652 16.1054 26.5196 16.2929 26.7071C16.4804 26.8947 16.7348 27 17 27C17.2652 27 17.5196 26.8947 17.7071 26.7071C17.8946 26.5196 18 26.2652 18 26C18 25.7348 17.8946 25.4804 17.7071 25.2929C17.5196 25.1054 17.2652 25 17 25ZM14.17 25C14.3766 24.4145 14.7597 23.9074 15.2666 23.5488C15.7735 23.1902 16.3791 22.9976 17 22.9976C17.6209 22.9976 18.2265 23.1902 18.7334 23.5488C19.2403 23.9074 19.6234 24.4145 19.83 25H27C27.2652 25 27.5196 25.1054 27.7071 25.2929C27.8946 25.4804 28 25.7348 28 26C28 26.2652 27.8946 26.5196 27.7071 26.7071C27.5196 26.8947 27.2652 27 27 27H19.83C19.6234 27.5855 19.2403 28.0926 18.7334 28.4512C18.2265 28.8099 17.6209 29.0025 17 29.0025C16.3791 29.0025 15.7735 28.8099 15.2666 28.4512C14.7597 28.0926 14.3766 27.5855 14.17 27H13C12.7348 27 12.4804 26.8947 12.2929 26.7071C12.1054 26.5196 12 26.2652 12 26C12 25.7348 12.1054 25.4804 12.2929 25.2929C12.4804 25.1054 12.7348 25 13 25H14.17Z" fill="#31323A"/>
</svg>
