<svg width="22" height="20" viewBox="0 0 22 20" fill="none" xmlns="http://www.w3.org/2000/svg">
<path d="M18.3542 15.2292C18.8125 15.4514 19.2222 15.7292 19.5833 16.0625C19.9444 16.3958 20.2569 16.7708 20.5208 17.1875C20.7847 17.6042 20.9861 18.0486 21.125 18.5208C21.2639 18.9931 21.3333 19.4861 21.3333 20H20C20 19.4514 19.8958 18.934 19.6875 18.4479C19.4792 17.9618 19.191 17.5382 18.8229 17.1771C18.4549 16.816 18.0312 16.5312 17.5521 16.3229C17.0729 16.1146 16.5556 16.0069 16 16C15.4514 16 14.934 16.1042 14.4479 16.3125C13.9618 16.5208 13.5382 16.809 13.1771 17.1771C12.816 17.5451 12.5312 17.9688 12.3229 18.4479C12.1146 18.9271 12.0069 19.4444 12 20H10.6667C10.6667 19.4931 10.7361 19.0035 10.875 18.5312C11.0139 18.059 11.2118 17.6146 11.4688 17.1979C11.7257 16.7812 12.0382 16.4062 12.4062 16.0729C12.7743 15.7396 13.1875 15.4583 13.6458 15.2292C13.125 14.8542 12.7222 14.3854 12.4375 13.8229C12.1528 13.2604 12.0069 12.6528 12 12C12 11.4514 12.1042 10.934 12.3125 10.4479C12.5208 9.96181 12.8056 9.53819 13.1667 9.17708C13.5278 8.81597 13.9514 8.52778 14.4375 8.3125C14.9236 8.09722 15.4444 7.99306 16 8C16.5486 8 17.066 8.10417 17.5521 8.3125C18.0382 8.52083 18.4618 8.80556 18.8229 9.16667C19.184 9.52778 19.4722 9.95486 19.6875 10.4479C19.9028 10.941 20.0069 11.4583 20 12C20 12.6458 19.8576 13.25 19.5729 13.8125C19.2882 14.375 18.8819 14.8472 18.3542 15.2292ZM16 14.6667C16.3681 14.6667 16.7118 14.5972 17.0312 14.4583C17.3507 14.3194 17.6354 14.1285 17.8854 13.8854C18.1354 13.6424 18.3264 13.3611 18.4583 13.0417C18.5903 12.7222 18.6597 12.375 18.6667 12C18.6667 11.6319 18.5972 11.2882 18.4583 10.9688C18.3194 10.6493 18.1285 10.3646 17.8854 10.1146C17.6424 9.86458 17.3611 9.67361 17.0417 9.54167C16.7222 9.40972 16.375 9.34028 16 9.33333C15.6319 9.33333 15.2882 9.40278 14.9688 9.54167C14.6493 9.68056 14.3646 9.87153 14.1146 10.1146C13.8646 10.3576 13.6736 10.6389 13.5417 10.9583C13.4097 11.2778 13.3403 11.625 13.3333 12C13.3333 12.3681 13.4028 12.7118 13.5417 13.0312C13.6806 13.3507 13.8715 13.6354 14.1146 13.8854C14.3576 14.1354 14.6389 14.3264 14.9583 14.4583C15.2778 14.5903 15.625 14.6597 16 14.6667ZM21.3333 0V10.6667C21.3333 10.3333 21.3021 10.0417 21.2396 9.79167C21.1771 9.54167 21.0903 9.30903 20.9792 9.09375C20.8681 8.87847 20.7292 8.67014 20.5625 8.46875C20.3958 8.26736 20.2083 8.04861 20 7.8125V1.33333H1.33333V13.3333H4V16.1146L6.78125 13.3333H10.8438C10.8993 13.5694 10.9722 13.7986 11.0625 14.0208C11.1528 14.2431 11.2604 14.4583 11.3854 14.6667H7.33333L2.66667 19.3333V14.6667H0V0H21.3333Z" fill="white"/>
</svg>
