<svg width="26" height="25" viewBox="0 0 26 25" fill="none" xmlns="http://www.w3.org/2000/svg">
<path d="M17.0405 1H8.95946C4.83971 1 1.5 4.33971 1.5 8.45946V16.5405C1.5 20.6603 4.83971 24 8.95946 24H17.0405C21.1603 24 24.5 20.6603 24.5 16.5405V8.45946C24.5 4.33971 21.1603 1 17.0405 1Z" stroke="#747474" stroke-width="1.5"/>
<path d="M6.78369 16.0358L9.6705 12.1942C9.84928 11.9585 10.1103 11.7987 10.4015 11.7467C10.6897 11.6917 10.9881 11.7462 11.2382 11.8996L14.0542 13.6774C14.3153 13.8415 14.6261 13.8962 14.9269 13.8316C15.2296 13.7702 15.4961 13.5926 15.6692 13.3368L18.5684 8.96427" stroke="#747474" stroke-width="1.5" stroke-linecap="round" stroke-linejoin="round"/>
<path d="M15.0928 9.61325L18.5689 8.96427L19.2166 12.4416" stroke="#747474" stroke-width="1.5" stroke-linecap="round" stroke-linejoin="round"/>
</svg>
