<svg width="25" height="25" viewBox="0 0 25 25" fill="none" xmlns="http://www.w3.org/2000/svg">
<path d="M12.5 15.95V19.4M24 10V14.4838C24 18.9688 24 21.2124 22.6522 22.6062C21.3055 24 19.1367 24 14.8 24H10.2C5.86335 24 3.69445 24 2.3478 22.6062C1 21.2124 1 18.9699 1 14.4838V12.7346C1 10.1023 1 8.78665 1.598 7.69645C2.1937 6.6051 3.28505 5.9289 5.4666 4.5742L7.7666 3.14705C10.0724 1.7153 11.2258 1 12.5 1C13.7742 1 14.9265 1.7153 17.2334 3.14705L19.5334 4.5742C21.7149 5.9289 22.8063 6.6051 23.4032 7.69645L24 10Z" stroke="#686868" stroke-width="1.5" stroke-linecap="round"/>
<path d="M12.5 15.9501V19.4001" stroke="#686868" stroke-width="1.5" stroke-linecap="round"/>
</svg>
