<svg width="45" height="45" viewBox="0 0 45 45" fill="none" xmlns="http://www.w3.org/2000/svg">
<rect width="45" height="45" rx="12" fill="#C4FEFA"/>
<path d="M30.1319 26.3559C29.5943 27.8128 28.7813 29.0796 27.7152 30.1207C26.5017 31.3057 24.9126 32.2473 22.9922 32.919C22.9291 32.941 22.8634 32.959 22.7973 32.9722C22.71 32.9895 22.6212 32.9988 22.5332 33H22.5159C22.4221 33 22.3278 32.9905 22.2343 32.9722C22.1682 32.959 22.1033 32.941 22.0406 32.9194C20.1179 32.2488 18.5268 31.3077 17.3121 30.1227C16.2455 29.0815 15.4326 27.8155 14.8958 26.3586C13.9197 23.7097 13.9753 20.7916 14.02 18.4466L14.0207 18.4106C14.0297 18.217 14.0355 18.0136 14.0388 17.789C14.0551 16.6862 14.9318 15.7739 16.0348 15.7124C18.3343 15.5841 20.1131 14.8341 21.6331 13.3526L21.6463 13.3404C21.8987 13.1089 22.2167 12.9954 22.5332 13.0001C22.8384 13.0041 23.1423 13.1175 23.3857 13.3404L23.3987 13.3526C24.9189 14.8341 26.6978 15.5841 28.9973 15.7124C30.1002 15.7739 30.9769 16.6862 30.9933 17.789C30.9965 18.0151 31.0023 18.2182 31.0113 18.4106L31.0117 18.4259C31.0563 20.7753 31.1115 23.6992 30.1319 26.3559Z" fill="#16DBCC"/>
<path d="M30.132 26.3558C29.5944 27.8128 28.7814 29.0795 27.7153 30.1206C26.5018 31.3056 24.9127 32.2473 22.9922 32.919C22.9292 32.9409 22.8634 32.9589 22.7974 32.9722C22.7101 32.9895 22.6213 32.9988 22.5332 33V13.0001C22.8384 13.0041 23.1424 13.1175 23.3858 13.3404L23.3987 13.3526C24.919 14.8341 26.6978 15.584 28.9973 15.7124C30.1002 15.7739 30.977 16.6862 30.9933 17.7889C30.9965 18.0151 31.0023 18.2182 31.0113 18.4106L31.0118 18.4258C31.0563 20.7752 31.1116 23.6991 30.132 26.3558Z" fill="#16DBCC"/>
<path d="M27.5002 22.9999C27.5002 25.7424 25.2735 27.9748 22.5333 27.9845H22.5157C19.7675 27.9845 17.5312 25.7484 17.5312 22.9999C17.5312 20.2517 19.7675 18.0155 22.5157 18.0155H22.5333C25.2735 18.0253 27.5002 20.2576 27.5002 22.9999Z" fill="white"/>
<path d="M25.5782 22.1975L22.553 24.8814L21.8992 25.4613C21.7448 25.5983 21.5423 25.6667 21.3399 25.6667C21.1374 25.6667 20.935 25.5983 20.7804 25.4613L19.3749 24.214C19.066 23.94 19.066 23.4962 19.3749 23.2221C19.6833 22.9481 20.1843 22.9481 20.4931 23.2221L21.3399 23.9732L24.46 21.2056C24.7689 20.9315 25.2698 20.9315 25.5782 21.2056C25.8871 21.4796 25.8871 21.9239 25.5782 22.1975Z" fill="#16DBCC"/>
</svg>
