<svg width="24" height="24" viewBox="0 0 24 24" fill="none" xmlns="http://www.w3.org/2000/svg">
<path d="M7.90562 13.7838H3.29751C2.68698 13.7872 2.10262 14.0322 1.67213 14.4651C1.24163 14.8981 0.99999 15.4838 1 16.0944V20.7025C1 21.3118 1.24206 21.8962 1.67293 22.3271C2.10379 22.7579 2.68818 23 3.29751 23H7.90562C8.51606 23 9.10167 22.7583 9.53443 22.3278C9.96718 21.8973 10.2119 21.3129 10.215 20.7025V16.0944C10.215 15.4819 9.97172 14.8945 9.53862 14.4614C9.10552 14.0283 8.51811 13.785 7.90562 13.785M7.90562 1H3.29751C2.9958 1 2.69704 1.05943 2.41829 1.17489C2.13955 1.29035 1.88627 1.45958 1.67293 1.67293C1.45958 1.88627 1.29035 2.13955 1.17489 2.41829C1.05943 2.69704 1 2.9958 1 3.29751V7.90562C0.999992 8.51606 1.24167 9.10167 1.6722 9.53443C2.10273 9.96718 2.68708 10.2119 3.29751 10.215H7.90562C8.51811 10.215 9.10552 9.97172 9.53862 9.53862C9.97172 9.10552 10.215 8.51811 10.215 7.90562V3.29751C10.2119 2.68708 9.96718 2.10273 9.53443 1.6722C9.10167 1.24167 8.51606 0.999992 7.90562 1ZM20.7025 1H16.0944C15.4839 0.999992 14.8983 1.24167 14.4656 1.6722C14.0328 2.10273 13.7881 2.68708 13.785 3.29751V7.90562C13.7853 8.51802 14.0287 9.10524 14.4617 9.53827C14.8948 9.9713 15.482 10.2147 16.0944 10.215H20.7025C21.3129 10.2119 21.8973 9.96718 22.3278 9.53443C22.7583 9.10167 23 8.51606 23 7.90562V3.29751C23 2.68818 22.7579 2.10379 22.3271 1.67293C21.8962 1.24206 21.3118 1 20.7025 1ZM18.3919 13.7838C17.1697 13.7838 15.9977 14.2693 15.1335 15.1335C14.2693 15.9977 13.7838 17.1697 13.7838 18.3919C13.7838 19.614 14.2693 20.7861 15.1335 21.6503C15.9977 22.5145 17.1697 23 18.3919 23C19.614 23 20.7861 22.5145 21.6503 21.6503C22.5145 20.7861 23 19.614 23 18.3919C23 17.1697 22.5145 15.9977 21.6503 15.1335C20.7861 14.2693 19.614 13.7838 18.3919 13.7838Z" stroke="#747474" stroke-width="1.5" stroke-linecap="round" stroke-linejoin="round"/>
</svg>
