<?xml version="1.0" encoding="UTF-8"?>
<svg version="1.1" xmlns="http://www.w3.org/2000/svg" width="128" height="128">
<path d="M0 0 C1.59454983 -0.01652887 3.1890265 -0.04377886 4.78320312 -0.08203125 C7.0889303 -0.13704341 9.39292205 -0.15871051 11.69921875 -0.17333984 C12.40568542 -0.19600922 13.1121521 -0.21867859 13.84002686 -0.24203491 C17.71614173 -0.22563966 20.12202507 0.35731264 23.08691406 2.7578125 C28.2366889 7.96149629 26.94984542 14.77214221 27.00244141 21.69775391 C27.01897028 23.29230374 27.04622026 24.8867804 27.08447266 26.48095703 C27.13948482 28.78668421 27.16115192 31.09067595 27.17578125 33.39697266 C27.19845062 34.10343933 27.22112 34.80990601 27.24447632 35.53778076 C27.22808107 39.41389564 26.64512876 41.81977898 24.24462891 44.78466797 C19.04094512 49.93444281 12.23029919 48.64759933 5.3046875 48.70019531 C3.71013767 48.71672418 2.115661 48.74397417 0.52148438 48.78222656 C-1.7842428 48.83723873 -4.08823455 48.85890583 -6.39453125 48.87353516 C-7.10099792 48.89620453 -7.8074646 48.9188739 -8.53533936 48.94223022 C-12.41145423 48.92583498 -14.81733757 48.34288267 -17.78222656 45.94238281 C-22.9320014 40.73869903 -21.64515792 33.9280531 -21.69775391 27.00244141 C-21.71428278 25.40789158 -21.74153276 23.81341491 -21.77978516 22.21923828 C-21.83479732 19.9135111 -21.85646442 17.60951936 -21.87109375 15.30322266 C-21.89376312 14.59675598 -21.9164325 13.89028931 -21.93978882 13.16241455 C-21.92339357 9.28629967 -21.34044126 6.88041633 -18.93994141 3.91552734 C-13.73625762 -1.23424749 -6.92561169 0.05259598 0 0 Z " fill="#3B495F" transform="translate(33.34765625,67.64990234375)"/>
<path d="M0 0 C1.59454983 -0.01652887 3.1890265 -0.04377886 4.78320312 -0.08203125 C7.0889303 -0.13704341 9.39292205 -0.15871051 11.69921875 -0.17333984 C12.40568542 -0.19600922 13.1121521 -0.21867859 13.84002686 -0.24203491 C17.71614173 -0.22563966 20.12202507 0.35731264 23.08691406 2.7578125 C28.2366889 7.96149629 26.94984542 14.77214221 27.00244141 21.69775391 C27.01897028 23.29230374 27.04622026 24.8867804 27.08447266 26.48095703 C27.13948482 28.78668421 27.16115192 31.09067595 27.17578125 33.39697266 C27.19845062 34.10343933 27.22112 34.80990601 27.24447632 35.53778076 C27.22808107 39.41389564 26.64512876 41.81977898 24.24462891 44.78466797 C19.04094512 49.93444281 12.23029919 48.64759933 5.3046875 48.70019531 C3.71013767 48.71672418 2.115661 48.74397417 0.52148438 48.78222656 C-1.7842428 48.83723873 -4.08823455 48.85890583 -6.39453125 48.87353516 C-7.10099792 48.89620453 -7.8074646 48.9188739 -8.53533936 48.94223022 C-12.41145423 48.92583498 -14.81733757 48.34288267 -17.78222656 45.94238281 C-22.9320014 40.73869903 -21.64515792 33.9280531 -21.69775391 27.00244141 C-21.71428278 25.40789158 -21.74153276 23.81341491 -21.77978516 22.21923828 C-21.83479732 19.9135111 -21.85646442 17.60951936 -21.87109375 15.30322266 C-21.89376312 14.59675598 -21.9164325 13.89028931 -21.93978882 13.16241455 C-21.92339357 9.28629967 -21.34044126 6.88041633 -18.93994141 3.91552734 C-13.73625762 -1.23424749 -6.92561169 0.05259598 0 0 Z " fill="#3B495F" transform="translate(89.34765625,11.64990234375)"/>
<path d="M0 0 C1.59454983 -0.01652887 3.1890265 -0.04377886 4.78320312 -0.08203125 C7.0889303 -0.13704341 9.39292205 -0.15871051 11.69921875 -0.17333984 C12.40568542 -0.19600922 13.1121521 -0.21867859 13.84002686 -0.24203491 C17.71614173 -0.22563966 20.12202507 0.35731264 23.08691406 2.7578125 C28.2366889 7.96149629 26.94984542 14.77214221 27.00244141 21.69775391 C27.01897028 23.29230374 27.04622026 24.8867804 27.08447266 26.48095703 C27.13948482 28.78668421 27.16115192 31.09067595 27.17578125 33.39697266 C27.19845062 34.10343933 27.22112 34.80990601 27.24447632 35.53778076 C27.22808107 39.41389564 26.64512876 41.81977898 24.24462891 44.78466797 C19.04094512 49.93444281 12.23029919 48.64759933 5.3046875 48.70019531 C3.71013767 48.71672418 2.115661 48.74397417 0.52148438 48.78222656 C-1.7842428 48.83723873 -4.08823455 48.85890583 -6.39453125 48.87353516 C-7.10099792 48.89620453 -7.8074646 48.9188739 -8.53533936 48.94223022 C-12.41145423 48.92583498 -14.81733757 48.34288267 -17.78222656 45.94238281 C-22.9320014 40.73869903 -21.64515792 33.9280531 -21.69775391 27.00244141 C-21.71428278 25.40789158 -21.74153276 23.81341491 -21.77978516 22.21923828 C-21.83479732 19.9135111 -21.85646442 17.60951936 -21.87109375 15.30322266 C-21.89376312 14.59675598 -21.9164325 13.89028931 -21.93978882 13.16241455 C-21.92339357 9.28629967 -21.34044126 6.88041633 -18.93994141 3.91552734 C-13.73625762 -1.23424749 -6.92561169 0.05259598 0 0 Z " fill="#3B495F" transform="translate(33.34765625,11.64990234375)"/>
<path d="M0 0 C5.82485779 3.51996782 10.54466582 8.98962934 12.5625 15.5 C13.36764105 23.33608208 13.68710392 31.11922577 8.5625 37.5 C3.75801361 42.54521222 -0.59927055 46.10562995 -7.70703125 46.8359375 C-16.22326573 46.92983204 -22.11345494 46.6177288 -28.40234375 40.62890625 C-34.7841668 33.72505269 -35.91792252 28.29832071 -35.7421875 18.9453125 C-35.04689797 11.08319245 -31.38995981 6.95041296 -25.53515625 1.9453125 C-18.47077988 -2.92213491 -7.84396301 -3.47595223 0 0 Z " fill="#3B495E" transform="translate(103.4375,69.5)"/>
<path d="M0 0 C0.01458252 0.79172607 0.02916504 1.58345215 0.04418945 2.39916992 C0.11878356 5.99576543 0.21540833 9.59144443 0.3125 13.1875 C0.33505859 14.43337891 0.35761719 15.67925781 0.38085938 16.96289062 C0.41630859 18.16494141 0.45175781 19.36699219 0.48828125 20.60546875 C0.51446533 21.71043701 0.54064941 22.81540527 0.56762695 23.95385742 C1.17581805 28.23866841 2.74814627 30.7479746 5.78027344 33.78051758 C8.77186798 35.42405197 11.1117989 35.43435907 14.515625 35.51171875 C15.76601563 35.54716797 17.01640625 35.58261719 18.3046875 35.61914062 C20.25761719 35.65297852 20.25761719 35.65297852 22.25 35.6875 C24.22613281 35.73874023 24.22613281 35.73874023 26.2421875 35.79101562 C29.49470678 35.87350706 32.74695596 35.9426567 36 36 C35.82685766 40.41512956 35.52934767 42.44376196 32.43359375 45.69677734 C28.91457832 48.4335428 25.54270668 48.72758541 21.1875 48.6640625 C20.0895813 48.67123795 20.0895813 48.67123795 18.96948242 48.67855835 C17.42982825 48.68194414 15.8901009 48.67283418 14.35058594 48.65185547 C12.00551758 48.62506304 9.66523356 48.6516399 7.3203125 48.68359375 C5.81769786 48.68028941 4.31508618 48.67388265 2.8125 48.6640625 C2.11858154 48.67418365 1.42466309 48.68430481 0.7097168 48.69473267 C-4.89357101 48.56110556 -7.19582426 46.81788578 -11 43 C-13.28396328 38.43207344 -12.31157122 31.72533798 -12.35009766 26.65234375 C-12.36662653 25.05779392 -12.39387651 23.46331725 -12.43212891 21.86914062 C-12.48714107 19.56341345 -12.50880817 17.2594217 -12.5234375 14.953125 C-12.54610687 14.24665833 -12.56877625 13.54019165 -12.59213257 12.81231689 C-12.57573732 8.93620202 -11.99278501 6.53031868 -9.59228516 3.56542969 C-6.14318382 0.15206024 -4.71773274 -0.12415086 0 0 Z " fill="#2A394E" transform="translate(24,68)"/>
<path d="M0 0 C0.01458252 0.79172607 0.02916504 1.58345215 0.04418945 2.39916992 C0.11878356 5.99576543 0.21540833 9.59144443 0.3125 13.1875 C0.33505859 14.43337891 0.35761719 15.67925781 0.38085938 16.96289062 C0.41630859 18.16494141 0.45175781 19.36699219 0.48828125 20.60546875 C0.51446533 21.71043701 0.54064941 22.81540527 0.56762695 23.95385742 C1.17581805 28.23866841 2.74814627 30.7479746 5.78027344 33.78051758 C8.77186798 35.42405197 11.1117989 35.43435907 14.515625 35.51171875 C15.76601562 35.54716797 17.01640625 35.58261719 18.3046875 35.61914062 C20.25761719 35.65297852 20.25761719 35.65297852 22.25 35.6875 C24.22613281 35.73874023 24.22613281 35.73874023 26.2421875 35.79101562 C29.49470678 35.87350706 32.74695596 35.9426567 36 36 C35.82685766 40.41512956 35.52934767 42.44376196 32.43359375 45.69677734 C28.91457832 48.4335428 25.54270668 48.72758541 21.1875 48.6640625 C20.0895813 48.67123795 20.0895813 48.67123795 18.96948242 48.67855835 C17.42982825 48.68194414 15.8901009 48.67283418 14.35058594 48.65185547 C12.00551758 48.62506304 9.66523356 48.6516399 7.3203125 48.68359375 C5.81769786 48.68028941 4.31508618 48.67388265 2.8125 48.6640625 C2.11858154 48.67418365 1.42466309 48.68430481 0.7097168 48.69473267 C-4.89357101 48.56110556 -7.19582426 46.81788578 -11 43 C-13.28396328 38.43207344 -12.31157122 31.72533798 -12.35009766 26.65234375 C-12.36662653 25.05779392 -12.39387651 23.46331725 -12.43212891 21.86914062 C-12.48714107 19.56341345 -12.50880817 17.2594217 -12.5234375 14.953125 C-12.54610687 14.24665833 -12.56877625 13.54019165 -12.59213257 12.81231689 C-12.57573732 8.93620202 -11.99278501 6.53031868 -9.59228516 3.56542969 C-6.14318382 0.15206024 -4.71773274 -0.12415086 0 0 Z " fill="#2A394E" transform="translate(80,12)"/>
<path d="M0 0 C0.01458252 0.79172607 0.02916504 1.58345215 0.04418945 2.39916992 C0.11878356 5.99576543 0.21540833 9.59144443 0.3125 13.1875 C0.33505859 14.43337891 0.35761719 15.67925781 0.38085938 16.96289062 C0.41630859 18.16494141 0.45175781 19.36699219 0.48828125 20.60546875 C0.51446533 21.71043701 0.54064941 22.81540527 0.56762695 23.95385742 C1.17581805 28.23866841 2.74814627 30.7479746 5.78027344 33.78051758 C8.77186798 35.42405197 11.1117989 35.43435907 14.515625 35.51171875 C15.76601563 35.54716797 17.01640625 35.58261719 18.3046875 35.61914062 C20.25761719 35.65297852 20.25761719 35.65297852 22.25 35.6875 C24.22613281 35.73874023 24.22613281 35.73874023 26.2421875 35.79101562 C29.49470678 35.87350706 32.74695596 35.9426567 36 36 C35.82685766 40.41512956 35.52934767 42.44376196 32.43359375 45.69677734 C28.91457832 48.4335428 25.54270668 48.72758541 21.1875 48.6640625 C20.0895813 48.67123795 20.0895813 48.67123795 18.96948242 48.67855835 C17.42982825 48.68194414 15.8901009 48.67283418 14.35058594 48.65185547 C12.00551758 48.62506304 9.66523356 48.6516399 7.3203125 48.68359375 C5.81769786 48.68028941 4.31508618 48.67388265 2.8125 48.6640625 C2.11858154 48.67418365 1.42466309 48.68430481 0.7097168 48.69473267 C-4.89357101 48.56110556 -7.19582426 46.81788578 -11 43 C-13.28396328 38.43207344 -12.31157122 31.72533798 -12.35009766 26.65234375 C-12.36662653 25.05779392 -12.39387651 23.46331725 -12.43212891 21.86914062 C-12.48714107 19.56341345 -12.50880817 17.2594217 -12.5234375 14.953125 C-12.54610687 14.24665833 -12.56877625 13.54019165 -12.59213257 12.81231689 C-12.57573732 8.93620202 -11.99278501 6.53031868 -9.59228516 3.56542969 C-6.14318382 0.15206024 -4.71773274 -0.12415086 0 0 Z " fill="#2A394E" transform="translate(24,12)"/>
<path d="M0 0 C0.66 0.33 1.32 0.66 2 1 C1.67 1.99 1.34 2.98 1 4 C0.26260643 11.37393573 0.78014026 17.75836902 5 24 C9.53143872 28.94768778 14.08976056 32.69684083 20.97265625 33.23046875 C21.99230469 33.21628906 23.01195312 33.20210937 24.0625 33.1875 C25.08472656 33.18105469 26.10695312 33.17460938 27.16015625 33.16796875 C29.60072799 33.02361581 31.66839596 32.69892207 34 32 C32.65486964 37.54866272 28.47386216 40.79977788 24 44 C17.58469337 47.25056506 9.44105312 47.12090478 2.5546875 45.3828125 C-3.48564346 42.70611682 -8.22624834 37.5238533 -11.171875 31.671875 C-13.17844404 25.19785035 -13.2761327 16.82722423 -10.5 10.5625 C-7.89721733 6.19623776 -3.97238365 3.08534653 0 0 Z " fill="#3C4A60" transform="translate(80,70)"/>
</svg>
