<svg width="45" height="45" viewBox="0 0 45 45" fill="none" xmlns="http://www.w3.org/2000/svg">
<rect width="45" height="45" rx="12" fill="#EDE3E6"/>
<path d="M22.17 14C21.9836 14.5324 21.9504 15.1064 22.0741 15.6568C22.1979 16.2071 22.4736 16.7117 22.87 17.113C21.384 18.65 19.964 20.623 19.154 23.051C18.9043 23.7921 18.9539 24.6015 19.2922 25.3066C19.6305 26.0117 20.2308 26.5568 20.9651 26.8258C21.6995 27.0948 22.5098 27.0664 23.2236 26.7466C23.9373 26.4269 24.4979 25.8411 24.786 25.114L24.846 24.949C25.457 23.114 26.771 21.539 28.268 20.272C28.9993 19.6574 29.7777 19.101 30.596 18.608L30.987 18.378L31.337 18.182L31.639 18.022L32 17.84V30C32.0002 30.5046 31.8096 30.9906 31.4665 31.3605C31.1234 31.7305 30.6532 31.9572 30.15 31.995L30 32H16C15.4954 32.0002 15.0094 31.8096 14.6395 31.4665C14.2695 31.1234 14.0428 30.6532 14.005 30.15L14 30V16C13.9998 15.4954 14.1904 15.0094 14.5335 14.6395C14.8766 14.2695 15.3468 14.0428 15.85 14.005L16 14H22.17ZM30.513 14C31.135 14 31.497 14.468 31.588 14.856C31.679 15.245 31.563 15.827 31.003 16.103L30.589 16.314L30.425 16.402L30.062 16.603L29.657 16.839L29.218 17.109C28.536 17.539 27.758 18.085 26.976 18.746C25.322 20.145 23.718 22.007 22.949 24.316C22.8652 24.5677 22.6848 24.7758 22.4476 24.8945C22.2104 25.0132 21.9357 25.0328 21.684 24.949C21.4323 24.8652 21.2242 24.6848 21.1055 24.4476C20.9868 24.2104 20.9672 23.9357 21.051 23.684C21.979 20.9 23.874 18.751 25.685 17.219C26.116 16.854 26.547 16.521 26.963 16.219L27.273 16H25C24.7451 15.9997 24.5 15.9021 24.3146 15.7272C24.1293 15.5522 24.0178 15.313 24.0028 15.0586C23.9879 14.8042 24.0707 14.5536 24.2343 14.3582C24.3979 14.1627 24.6299 14.0371 24.883 14.007L25 14H30.513Z" fill="#A57887"/>
</svg>
