<?xml version="1.0" encoding="utf-8"?>
<!-- Generator: Adobe Illustrator 28.1.0, SVG Export Plug-In . SVG Version: 6.00 Build 0)  -->
<svg version="1.1" id="Layer_1" xmlns="http://www.w3.org/2000/svg" xmlns:xlink="http://www.w3.org/1999/xlink" x="0px" y="0px"
	 viewBox="0 0 748 316" style="enable-background:new 0 0 748 316;" xml:space="preserve">
<style type="text/css">
	
		.st0{clip-path:url(#SVGID_00000016771778200601768280000002105213004073062537_);fill:url(#SVGID_00000179648492177793689140000007577494583401221005_);}
	
		.st1{clip-path:url(#SVGID_00000119089554983380283150000004804764596659993734_);fill-rule:evenodd;clip-rule:evenodd;fill:#6C3C3B;}
	
		.st2{clip-path:url(#SVGID_00000116236088372716537250000012353940372755510424_);fill:url(#SVGID_00000009588809860481764270000003115398498062051980_);}
	
		.st3{clip-path:url(#SVGID_00000092439213497982390620000012727872241508914605_);fill-rule:evenodd;clip-rule:evenodd;fill:#86181A;}
</style>
<g>
	<g>
		<defs>
			<path id="SVGID_1_" d="M124.83,133.46c2.56-6.98,6.29-14.9,12.51-20.98c7.48-7.29,19.67-11.45,29.76-7.15
				c12.02,5.12,13.38,21.5,11.51,32.69c-0.72,4.33-1.99,8.03-3.68,11.27l-34.96-22.39c3.48,6.76,4.45,13.75,3.52,20.43
				c-2.57,6.98-6.29,14.9-12.51,20.98c-7.48,7.3-19.67,11.45-29.76,7.16c-12.02-5.12-13.38-21.5-11.51-32.69
				c0.72-4.33,1.99-8.03,3.68-11.27l34.96,22.38C124.86,147.14,123.89,140.15,124.83,133.46 M130.9,62.23
				c-17,8.42-30.17,19.86-41.48,32.72l-0.06,0.07l-21.5-14.06l-0.03,0.05l0.02-0.05l-0.09,0.17c-1.34,2.23-2.53,4.65-3.61,7.21
				c-14.89,30.46-22.62,56.52-22.3,77.65c0.37,24.5,14.79,46.85,37.7,56.53c15.74,6.65,34.77,5.89,57.85-3.94
				c17.03-8.44,30.22-19.9,41.54-32.8l21.5,14.07l0.03-0.05l-0.02,0.05l0.09-0.16c1.34-2.24,2.54-4.65,3.61-7.21
				c14.89-30.45,22.62-56.52,22.3-77.65c-0.37-24.49-14.79-46.85-37.7-56.53c-6.74-2.85-14.09-4.34-22.09-4.34
				C155.97,53.95,144.1,56.6,130.9,62.23"/>
		</defs>
		<clipPath id="SVGID_00000070081537048277685640000009301238623986072209_">
			<use xlink:href="#SVGID_1_"  style="overflow:visible;"/>
		</clipPath>
		
			<linearGradient id="SVGID_00000137126876799872365180000000276899703827828917_" gradientUnits="userSpaceOnUse" x1="-225.3316" y1="428.9651" x2="-224.7478" y2="428.9651" gradientTransform="matrix(-314.1218 0 0 -314.1218 -70555.7344 134888.8438)">
			<stop  offset="0" style="stop-color:#A65B44"/>
			<stop  offset="0.43" style="stop-color:#DEA128"/>
			<stop  offset="1" style="stop-color:#FFCD05"/>
		</linearGradient>
		
			<rect x="41.53" y="53.95" style="clip-path:url(#SVGID_00000070081537048277685640000009301238623986072209_);fill:url(#SVGID_00000137126876799872365180000000276899703827828917_);" width="185.25" height="175.2"/>
	</g>
	<g>
		<defs>
			<rect id="SVGID_00000142860294689610590990000001735449725654044090_" x="23.42" y="0.49" width="701.15" height="315.26"/>
		</defs>
		<clipPath id="SVGID_00000161621605017863321510000011714242363603529616_">
			<use xlink:href="#SVGID_00000142860294689610590990000001735449725654044090_"  style="overflow:visible;"/>
		</clipPath>
		
			<path style="clip-path:url(#SVGID_00000161621605017863321510000011714242363603529616_);fill-rule:evenodd;clip-rule:evenodd;fill:#6C3C3B;" d="
			M200.45,199.84l-21.5-14.06l-24.98-16.34c8.7-5.93,16.53-11.46,21.11-20.45l0.08-0.15l0.08-0.16l0.08-0.15l0.08-0.16l0.08-0.16
			l0.15-0.31l0.08-0.16l0.07-0.16l0.14-0.32l0.07-0.16l0.07-0.16l0.07-0.16l0.07-0.17l0.07-0.16l0.07-0.16l0.06-0.16l0.07-0.17
			l0.06-0.17l0.06-0.17l0.01-0.01l0.06-0.16l0.06-0.17l0.06-0.17l0.05-0.13l0.01-0.04l0.12-0.34l0.06-0.18l0.03-0.09l0.03-0.08
			l0.06-0.18l0.06-0.18l0.05-0.18l0.02-0.04l0.04-0.14l0.05-0.18l0.05-0.18l0.06-0.18l0.05-0.18l0.05-0.18l0.05-0.18l0.03-0.12
			l0.02-0.06l0.05-0.18l0.1-0.37l0.02-0.07l0.03-0.11l0.05-0.19l0.09-0.37l0,0l0.01-0.02l0-0.01l0.16-0.7v0l0.01-0.03l0.04-0.19
			l0.11-0.5l0.02-0.09l0.11-0.58l0-0.01l0.01-0.05l0.03-0.14l0.11-0.61l0.08-0.53l0.08-0.54l0.07-0.54h0l0.07-0.55l0.06-0.55
			l0.06-0.56l0.05-0.56l0.05-0.57h0l0.04-0.57l0.03-0.58h0l0.03-0.58l0.02-0.59l0.02-0.59l0.01-0.59l0-0.6l-0.01-0.59l-0.01-0.6
			l-0.02-0.6l-0.03-0.6l-0.04-0.6l-0.04-0.6h0l-0.05-0.6h0l-0.06-0.6l-0.07-0.6l-0.08-0.6h0l-0.09-0.59l-0.1-0.59l-0.11-0.59h0
			l-0.11-0.59l-0.13-0.58l-0.13-0.58h0l-0.15-0.58l-0.16-0.57h0l-0.17-0.57l-0.18-0.56l-0.19-0.56l-0.2-0.55h0l-0.21-0.55
			l-0.22-0.54l-0.23-0.53h0l-0.24-0.52h0l-0.25-0.51l-0.27-0.51l-0.28-0.5l-0.29-0.49l-0.31-0.48l-0.32-0.47l-0.33-0.46l-0.34-0.45
			l-0.36-0.44l-0.37-0.43l-0.38-0.41l-0.4-0.4l-0.41-0.39l-0.42-0.38l-0.44-0.37l-0.45-0.35l-0.47-0.34
			c-0.16-0.11-0.32-0.22-0.48-0.32l-0.49-0.31c-0.17-0.1-0.34-0.2-0.51-0.29l-0.53-0.28l-0.54-0.27l-0.56-0.25l-0.47-0.2l-0.48-0.18
			l-0.48-0.17l-0.48-0.16l-0.48-0.15l-0.49-0.14l-0.49-0.12l-0.49-0.11v0l-0.49-0.1l-0.49-0.09v0l-0.5-0.08l-0.5-0.07l-0.5-0.05
			l-0.5-0.04v0l-0.5-0.03l-0.5-0.02v0l-0.5-0.01v0l-0.5,0l-0.5,0.01l-0.5,0.02v0l-0.5,0.03l-0.5,0.04l-0.5,0.04v0l-0.5,0.06
			l-0.5,0.06l-0.5,0.08l-0.5,0.08v0l-0.5,0.09l-0.5,0.1v0l-0.5,0.11l-0.49,0.12v0l-0.49,0.13l-0.49,0.14l-0.49,0.14l-0.49,0.15
			l-0.48,0.16v0l-0.48,0.17v0l-0.48,0.18l-0.48,0.19l-0.47,0.19l-0.47,0.2l-0.47,0.21l-0.47,0.21v0l-0.46,0.22l-0.45,0.23
			l-0.45,0.24l-0.45,0.24l-0.44,0.25l-0.44,0.26l-0.43,0.26l-0.43,0.27l-0.43,0.28l-0.42,0.28l-0.42,0.29l-0.41,0.29l-0.4,0.3
			l-0.4,0.31l-0.39,0.31l-0.39,0.31l-0.38,0.32l-0.37,0.33l-0.36,0.33l-0.36,0.34l-0.35,0.34c-0.33,0.33-0.66,0.66-0.98,1
			l-0.04,0.04l-0.11,0.12l-0.28,0.3l-0.11,0.12l-0.17,0.18l-0.27,0.3l-0.05,0.06l-0.21,0.24l-0.26,0.3l0,0l-0.37,0.45l-0.09,0.1
			l-0.05,0.07l-0.25,0.31l-0.15,0.18l-0.1,0.13l-0.25,0.32l-0.09,0.12l-0.01,0.01l-0.38,0.51l-0.04,0.06l-0.19,0.27l-0.23,0.31
			l-0.01,0.01l-0.08,0.11l-0.33,0.46l-0.05,0.08c-0.25,0.37-0.5,0.73-0.74,1.1l-0.14,0.21l-0.21,0.33l-0.03,0.05l-0.18,0.28
			l-0.19,0.32l-0.01,0.02l-0.34,0.56l-0.02,0.03l-0.05,0.08l-0.2,0.34l-0.11,0.18l-0.09,0.15c-0.32,0.56-0.62,1.12-0.92,1.68
			l-0.01,0.02l-0.31,0.59l-0.04,0.09c-0.29,0.57-0.57,1.14-0.85,1.71l-0.02,0.04l-0.14,0.3l-0.15,0.32l-0.01,0.03
			c-0.16,0.34-0.31,0.68-0.46,1.02l-0.08,0.18l-0.26,0.61l-0.1,0.23l-0.14,0.34l-0.02,0.04l-0.12,0.3l-0.13,0.31l-0.01,0.03
			l-0.14,0.34l-0.1,0.24l-0.04,0.1l-0.2,0.51l-0.06,0.16l-0.38,1l-0.01,0.03l-0.36,0.95l0,0.01c-2.04,5.56-3.35,10.53-4.6,13.49
			c1.49-27.11,17.3-45.15,30.54-50.78c14.22-6.04,38.01-1.84,49.44,8.83c7.85,7.34,12.51,24.02,12.73,39.78
			c-0.71,15.66-2.92,33.75-8.78,47.67v0l-0.05,0.11l0,0.01l-0.05,0.12l-0.05,0.12l-0.05,0.12l-0.05,0.12l-0.05,0.12l-0.05,0.12
			l-0.02,0.05l-0.03,0.07l-0.05,0.12l-0.05,0.12l-0.05,0.12l-0.05,0.12l-0.05,0.12l-0.05,0.12l-0.05,0.12l-0.05,0.12l-0.06,0.12
			l-0.05,0.12l-0.05,0.11l-0.11,0.23l-0.06,0.12l-0.05,0.11l-0.05,0.11l-0.06,0.11l-0.06,0.12l-0.04,0.08l-0.02,0.03l-0.05,0.11
			l-0.06,0.11l-0.06,0.11l-0.05,0.11l-0.06,0.11l-0.05,0.11l-0.01,0.02l-0.05,0.09l-0.06,0.11l-0.06,0.11l-0.06,0.11l-0.06,0.11
			l-0.06,0.11l-0.04,0.08l-0.02,0.04l-0.06,0.11l-0.06,0.11l-0.06,0.11l-0.06,0.11l-0.06,0.11l-0.06,0.11l0,0.02l-0.05,0.1
			l-0.06,0.11l-0.06,0.11l-0.06,0.11l-0.06,0.11l-0.06,0.11l-0.03,0.06l-0.03,0.04l-0.06,0.11l-0.06,0.11l-0.06,0.11l-0.06,0.1
			l-0.06,0.11l-0.06,0.11l0,0l-0.06,0.1l-0.06,0.1l-0.06,0.11l-0.06,0.11l-0.06,0.11v0l-0.06,0.11L200.45,199.84z M132.2,118.64
			c-0.25,0.36-0.5,0.73-0.74,1.1L132.2,118.64z"/>
		
			<path style="clip-path:url(#SVGID_00000161621605017863321510000011714242363603529616_);fill-rule:evenodd;clip-rule:evenodd;fill:#6C3C3B;" d="
			M67.86,80.96l21.5,14.06c-6.32,7.2-12.05,14.85-17.55,22.67l21.57,13.82l-0.08,0.15l-0.08,0.15l-0.08,0.15l-0.08,0.16l-0.08,0.16
			l-0.08,0.15l-0.08,0.16l-0.07,0.16l-0.07,0.16l-0.07,0.16l-0.07,0.16l-0.07,0.16l-0.07,0.16l-0.07,0.16v0l-0.07,0.16l-0.07,0.16
			l-0.07,0.16v0l-0.07,0.16l-0.06,0.16l-0.07,0.17l-0.07,0.17l-0.06,0.17l-0.06,0.17l-0.06,0.17l-0.06,0.17v0l-0.06,0.17l-0.06,0.17
			l-0.06,0.17l-0.06,0.17l-0.06,0.17l-0.06,0.18v0l-0.06,0.17l-0.06,0.17l-0.06,0.18l-0.06,0.18l-0.05,0.18v0l-0.05,0.18v0
			l-0.06,0.18l-0.05,0.18l-0.05,0.18l-0.05,0.18l-0.05,0.18l-0.05,0.18v0l-0.05,0.18l-0.05,0.19l-0.05,0.18v0l-0.05,0.19l-0.05,0.19
			v0l-0.05,0.19l-0.05,0.19l-0.04,0.19l-0.04,0.19l-0.04,0.19l-0.04,0.19l-0.04,0.2v0L90,141.18l-0.04,0.19l-0.04,0.2v0l-0.04,0.2v0
			l-0.04,0.2l-0.04,0.2l-0.04,0.2l-0.03,0.2l-0.04,0.2l-0.08,0.53l-0.08,0.54l-0.08,0.54l-0.07,0.55l-0.06,0.56l-0.06,0.56
			l-0.05,0.57l-0.04,0.57l-0.04,0.58l-0.04,0.58l-0.03,0.59l-0.02,0.59l-0.01,0.59l-0.01,0.59l0,0.59l0.01,0.6l0.02,0.6l0.02,0.6
			l0.03,0.6l0.04,0.6l0.05,0.6v0l0.05,0.6l0.06,0.6l0.07,0.6l0.08,0.6l0.09,0.6l0.1,0.59l0.11,0.59l0.12,0.59l0.12,0.59l0.13,0.58
			l0.15,0.58v0l0.16,0.57l0.17,0.57l0.18,0.56l0.19,0.56l0.2,0.55l0.21,0.54l0.22,0.54l0.23,0.53l0.24,0.52l0.25,0.52l0.27,0.51v0
			l0.28,0.5v0l0.29,0.49l0.3,0.48l0.32,0.47l0.33,0.46l0.34,0.45l0.36,0.44l0.37,0.43l0.38,0.42l0.39,0.4v0l0.41,0.39l0.42,0.38
			l0.44,0.37v0l0.45,0.35v0l0.46,0.34l0.48,0.33l0.5,0.31c0.17,0.1,0.34,0.2,0.51,0.3v0l0.52,0.28v0l0.54,0.26v0
			c0.18,0.08,0.37,0.17,0.56,0.25v0l0.47,0.19l0.48,0.18v0l0.48,0.17v0l0.48,0.16l0.48,0.14v0l0.49,0.13l0.49,0.12v0l0.49,0.11
			l0.49,0.1v0l0.5,0.09l0.5,0.08l0.5,0.07l0.5,0.06v0l0.5,0.04l0.5,0.03v0l0.5,0.02l0.5,0.01l0.5,0l0.5,0l0.5-0.02l0.5-0.03
			l0.5-0.04l0.5-0.04l0.5-0.06l0.5-0.07l0.5-0.07l0.5-0.08l0.5-0.09v0l0.5-0.1l0.49-0.11l0.49-0.12l0.49-0.13l0.49-0.14v0l0.49-0.14
			l0.49-0.15l0.48-0.16l0.48-0.17l0.48-0.18l0.48-0.18l0.47-0.19l0.47-0.2l0.47-0.21l0.46-0.22l0.46-0.22l0.45-0.23l0.45-0.24
			l0.45-0.24l0.44-0.25l0.44-0.26l0.43-0.26l0.43-0.27l0.43-0.27l0.42-0.28l0.41-0.29l0.41-0.29l0.4-0.3l0.4-0.3l0.39-0.31
			l0.39-0.32l0.38-0.32l0.37-0.32l0.37-0.33l0.36-0.34l0.35-0.34c0.34-0.32,0.66-0.66,0.99-1l0.04-0.04l0.11-0.12l0.28-0.3
			l0.11-0.12l0.16-0.18l0.27-0.3l0.05-0.06l0.21-0.25l0.26-0.3v0l0.26-0.31l0.2-0.24l0.05-0.07l0.25-0.31l0.15-0.18l0.1-0.13
			l0.24-0.32l0.09-0.12l0.15-0.2l0.24-0.32l0.04-0.06l0.41-0.57l0.01-0.01l0-0.01l0.34-0.48l0.07-0.1l0.05-0.08l0.22-0.33l0.13-0.18
			l0.09-0.14l0.22-0.33l0.08-0.12l0.14-0.21l0.21-0.33l0.03-0.05l0.17-0.28l0.2-0.32l0.01-0.02l0.07-0.11l0.29-0.48l0.05-0.08
			l0.2-0.34l0.11-0.18l0.09-0.15l0.19-0.34l0.07-0.12l0.12-0.22l0.19-0.34l0.03-0.05l0.16-0.29l0.17-0.32l0.01-0.02l0.18-0.34
			l0.13-0.25l0.04-0.09l0.17-0.34l0.1-0.18l0.08-0.16l0.17-0.34l0.06-0.11l0.11-0.23l0.16-0.34l0.02-0.05l0.14-0.3l0.47-1.02
			l0.15-0.34l0.08-0.18l0.07-0.16l0.15-0.34l0.05-0.11l0.1-0.23l0.14-0.34l0.02-0.04l0.12-0.3l0.13-0.31l0.01-0.03l0.14-0.34l0-0.01
			l0.27-0.66l0.07-0.17l0.06-0.16l0.13-0.33l0.13-0.33l0.13-0.33l0.02-0.03l0.11-0.3l0.11-0.3l0.01-0.03l0.12-0.33
			c2.05-5.57,3.35-10.54,4.6-13.5c-1.49,27.11-17.3,45.15-30.54,50.78c-14.22,6.04-38.01,1.85-49.44-8.84
			c-7.85-7.33-12.51-24.02-12.73-39.78c0.71-15.66,2.92-33.75,8.78-47.66l0-0.01l0.04-0.11l0.01-0.01l0.05-0.12l0.05-0.12l0.05-0.12
			l0.05-0.12l0.05-0.12l0.05-0.12l0.02-0.04l0.09-0.19l0.05-0.12l0.05-0.12l0.05-0.12l0.05-0.12l0.05-0.12l0.05-0.12l0.05-0.12
			l0.05-0.12l0.05-0.12l0.05-0.11l0.05-0.12l0.05-0.11l0.05-0.12l0.06-0.11l0.05-0.11l0.05-0.12l0.06-0.11l0.04-0.09l0.02-0.03
			l0.05-0.11l0.06-0.11l0.06-0.12l0.05-0.11l0.06-0.11l0.06-0.11l0.01-0.03l0.05-0.09l0.06-0.11l0.06-0.11l0.06-0.11l0.06-0.11
			l0.06-0.11l0.11-0.21l0.01-0.01l0.06-0.11l0.06-0.11l0.06-0.11l0.06-0.11l0.12-0.22l0.06-0.11l0.06-0.11l0.06-0.11l0.06-0.11
			l0.06-0.11l0.04-0.06l0.03-0.04l0.06-0.11l0.06-0.11l0.06-0.11l0.06-0.1l0.06-0.11l0.06-0.11l0-0.01l0.06-0.1l0.06-0.11l0.06-0.11
			l0.06-0.11l0.06-0.11L67.86,80.96z"/>
	</g>
	<g>
		<defs>
			<path id="SVGID_00000006681304512715795480000007339940678194169222_" d="M64.15,88.32l-1.31,2.7l-0.13,0.27
				c-0.43,0.9-0.85,1.78-1.26,2.67L61.43,94c-3.05,6.53-5.76,12.85-8.12,18.95L53.29,113c-1,2.59-1.93,5.13-2.8,7.64l-0.03,0.07
				c-0.58,1.67-1.13,3.32-1.65,4.95l-0.03,0.1c-0.24,0.75-0.47,1.49-0.69,2.23l-0.14,0.47l-0.22,0.74l-0.14,0.46l-0.24,0.84
				l-0.13,0.45l-0.21,0.74l-0.12,0.42c-0.87,3.08-1.62,6.1-2.27,9.05l-0.04,0.2c-0.16,0.73-0.31,1.47-0.46,2.19l-0.02,0.09
				l-0.17,0.87l-0.09,0.46l-0.14,0.75l-0.07,0.37l-0.14,0.79l-0.04,0.23c-0.43,2.49-0.77,4.93-1.03,7.33l-0.03,0.26l-0.07,0.69
				l-0.04,0.43c-0.06,0.62-0.11,1.22-0.16,1.84l-0.02,0.32l-0.05,0.75L42.03,159l-0.05,0.79l-0.01,0.2
				c-0.03,0.65-0.06,1.29-0.08,1.93l0,0.11c-0.04,1.33-0.05,2.65-0.03,3.94c0.05,3.06,0.31,6.09,0.78,9.07
				c0.18,1.12,0.39,2.22,0.62,3.32l0.25,1.1c0.17,0.73,0.35,1.45,0.55,2.17l0.3,1.08l0.32,1.07l0.34,1.06l0.36,1.06l0.38,1.05
				l0.4,1.04l0.41,1.04l0.43,1.03l0.45,1.02c0.15,0.34,0.31,0.68,0.47,1.01c0.32,0.67,0.64,1.33,0.98,1.99l0.52,0.98
				c0.18,0.33,0.35,0.65,0.54,0.97l0.55,0.96l0.57,0.95l0.59,0.94l0.6,0.93l0.62,0.92l0.63,0.91l0.65,0.9l0.67,0.89l0.69,0.87
				l0.7,0.86l0.72,0.85l0.73,0.84c0.49,0.55,0.99,1.1,1.51,1.63c0.26,0.27,0.52,0.54,0.78,0.8l0.79,0.78l0.81,0.77
				c0.81,0.76,1.65,1.5,2.51,2.22l0.87,0.71c0.58,0.47,1.17,0.93,1.78,1.38c0.6,0.45,1.21,0.89,1.83,1.32l0.94,0.64l0.95,0.62
				c0.96,0.61,1.94,1.2,2.93,1.76c0.33,0.19,0.67,0.37,1,0.55l1.02,0.53l1.03,0.52l1.04,0.5l1.06,0.48l1.07,0.47l0.74,0.3l0.75,0.3
				c0.5,0.19,1,0.38,1.51,0.56l0.76,0.26l0.77,0.25c1.02,0.33,2.06,0.62,3.11,0.89l0.79,0.19l0.79,0.18l0.8,0.18
				c0.53,0.11,1.07,0.22,1.61,0.31l0.81,0.14l0.82,0.13c0.82,0.12,1.66,0.23,2.5,0.32l0.84,0.08c0.56,0.05,1.13,0.09,1.69,0.13
				l0.86,0.04l0.86,0.03c0.86,0.03,1.74,0.04,2.62,0.04l0.88-0.01l0.89-0.03l0.89-0.04l0.9-0.05c0.6-0.04,1.21-0.08,1.82-0.13
				l0.91-0.08l0.92-0.1l0.92-0.11l0.93-0.12l0.94-0.13l0.94-0.15l0.95-0.16l0.95-0.17l0.96-0.18l0.96-0.2l0.97-0.21
				c0.65-0.14,1.3-0.3,1.96-0.46l0.98-0.25l0.99-0.26l1-0.27l1-0.29l1.01-0.3l1.02-0.31l1.02-0.32l1.02-0.34l1.03-0.35l1.04-0.36
				l1.04-0.38l1.05-0.39l1.06-0.4l1.06-0.41l1.07-0.43l1.07-0.44l1.08-0.46l1.16-0.58l0.14-0.07l1.1-0.57l0.24-0.13l0.78-0.41
				l0.4-0.21l0.91-0.5l0.31-0.17l0.95-0.53l0.09-0.05l1.06-0.61l0.27-0.16l0.58-0.34l0.73-0.43l0.67-0.4l0.28-0.17l0.93-0.58
				l0.17-0.1l0.77-0.49l0.53-0.34l0.77-0.51l0.12-0.08l0.94-0.63l0.18-0.12l0.82-0.56l0.61-0.42l0.22-0.15l0.5-0.35l0.8-0.57
				l0.45-0.33l0.42-0.31l0.88-0.65l0.25-0.18l0.56-0.42l0.18-0.14l1.06-0.82l0.19-0.15c0.83-0.65,1.66-1.3,2.47-1.97l0.43-0.36
				l0.8-0.67l0.16-0.13c6.05-5.09,11.54-10.62,16.65-16.44h0c6.32-7.2,12.05-14.85,17.55-22.67l-56.53-36.2
				c0.18,0.35,0.36,0.7,0.53,1.06l0.05,0.1c0.16,0.35,0.32,0.69,0.46,1.03l0.01,0.03c0.15,0.34,0.29,0.69,0.43,1.03l0.05,0.14
				c0.13,0.34,0.26,0.68,0.38,1.02l0.01,0.03c0.12,0.34,0.24,0.69,0.34,1.03l0.05,0.17c0.22,0.7,0.42,1.4,0.59,2.1l0.02,0.08
				c0.08,0.32,0.14,0.63,0.21,0.95l0.06,0.28c0.06,0.3,0.12,0.6,0.17,0.9l0.03,0.15c0.05,0.28,0.09,0.55,0.13,0.84l0.05,0.4
				l0.08,0.69l0.04,0.42l0.06,0.78l0.03,0.37l0.03,0.59l0.02,0.53l0.01,0.63l0,0.61l0,0.44c-0.38,18.15-15.24,34.88-32.92,39.79
				c-9.38,3.15-24.08,3.35-36.23-5.86c-15.02-11.38-18.66-28.91-17.73-46.63c0.75-14.37,4.45-30.94,10.9-49.57v0l0.02-0.05
				C66.57,83.43,65.34,85.89,64.15,88.32"/>
		</defs>
		<clipPath id="SVGID_00000000180349529164004350000002462811985042240904_">
			<use xlink:href="#SVGID_00000006681304512715795480000007339940678194169222_"  style="overflow:visible;"/>
		</clipPath>
		
			<linearGradient id="SVGID_00000043424793967890213820000013582975791103010458_" gradientUnits="userSpaceOnUse" x1="-224.3092" y1="429.0057" x2="-223.7254" y2="429.0057" gradientTransform="matrix(373.5503 0 0 373.5503 83800.7344 -160101.3125)">
			<stop  offset="0" style="stop-color:#A65B44"/>
			<stop  offset="0.43" style="stop-color:#DEA128"/>
			<stop  offset="1" style="stop-color:#FFCD05"/>
		</linearGradient>
		
			<rect x="41.83" y="80.95" style="clip-path:url(#SVGID_00000000180349529164004350000002462811985042240904_);fill:url(#SVGID_00000043424793967890213820000013582975791103010458_);" width="154.67" height="145.9"/>
	</g>
	<g>
		<defs>
			<rect id="SVGID_00000119798011226820539190000018322400733342602939_" x="23.42" y="0.49" width="701.15" height="315.26"/>
		</defs>
		<clipPath id="SVGID_00000094595846567513480800000017240834163282480288_">
			<use xlink:href="#SVGID_00000119798011226820539190000018322400733342602939_"  style="overflow:visible;"/>
		</clipPath>
		
			<path style="clip-path:url(#SVGID_00000094595846567513480800000017240834163282480288_);fill-rule:evenodd;clip-rule:evenodd;fill:#86181A;" d="
			M316.91,93.31l44.44,74.16c0.4,0.83,0.8,1.56,1.2,2.22c0.4,0.65,0.75,1.27,1.06,1.86c0.5,1.18,0.96,2.37,1.36,3.55
			c0.4,1.18,0.76,2.54,1.05,4.08l-0.6-58.55c0-6.27-0.95-10.32-2.86-12.15c-1.91-1.83-5.52-2.87-10.85-3.1h-2.11V93.31h43.53v12.06
			h-2.11c-5.22,0.24-8.76,1.3-10.62,3.19c-1.86,1.89-2.79,6-2.79,12.39v90.69h-21.24l-52.12-84.99c-1.1-1.54-2.01-3.25-2.71-5.15
			c-0.7-1.89-1.26-3.9-1.66-6.03l0.6,69.02c0,6.62,1.41,10.7,4.22,12.24c2.81,1.54,6.63,2.37,11.45,2.49v12.42h-42.63v-12.6
			c0.9-0.12,1.78-0.24,2.64-0.35c0.85-0.12,1.68-0.18,2.48-0.18c2.81-0.35,5.1-1.15,6.86-2.39c1.76-1.24,2.64-4.76,2.64-10.56
			v-62.63c0-7.33-0.75-12.09-2.26-14.28c-1.5-2.19-5.52-3.28-12.05-3.28V93.31H316.91z M469.06,91.35v33.89h-9.34
			c-1.1-7.21-4.27-13.16-9.49-17.83c-5.22-4.67-10.95-7.01-17.17-7.01c-0.6,0-1.2,0.03-1.81,0.09c-0.6,0.06-1.21,0.16-1.81,0.26
			c-2.81,0.48-5.38,1.69-7.68,3.64c-2.31,1.95-3.46,4.82-3.46,8.6c0,3.19,0.96,5.83,2.86,7.9c1.91,2.07,4.06,3.75,6.33,5.24
			c0.45,0.29,0.86,0.65,1.36,0.89c0.5,0.23,0.94,0.5,1.35,0.71l16.27,8.34c7.65,3.92,14.21,8.84,20.04,14.11
			c5.82,5.26,8.73,13.39,8.73,24.4c0,12.89-3.54,22.89-10.62,29.98c-7.08,7.09-15.94,10.65-26.58,10.65c-1.01,0-2.01-0.03-3.01-0.09
			c-1-0.06-2.02-0.12-3.01-0.26c-4.72-0.68-9.34-1.99-13.86-3.82c-4.52-1.83-8.79-4.17-12.8-7.01l-1.51,8.87h-9.49v-39.21h9.49
			c2.31,8.64,6.5,15.82,12.58,21.56c6.07,5.74,12.98,8.61,20.71,8.61c4.32,0,8.19-1.45,11.6-4.34c3.41-2.9,5.12-7.07,5.12-12.51
			c0-4.5-1.61-8.22-4.82-11.18c-3.21-2.96-6.72-5.53-10.54-7.63c-1.99-1.09-3.97-2.04-5.87-2.93c-1.91-0.89-3.54-1.79-4.97-2.57
			c-0.28-0.15-0.58-0.24-0.83-0.35c-0.25-0.11-0.48-0.3-0.68-0.53c-7.23-3.79-13.76-8.2-19.58-13.22
			c-5.82-5.02-8.74-12.92-8.74-23.69c0-11.59,3.49-20.32,10.47-26.17c6.98-5.85,14.94-8.78,23.88-8.78c4.62,0,9.06,0.8,13.33,2.39
			c4.27,1.6,8.41,3.58,12.43,5.94l1.81-6.92H469.06z M477.35,211.65v-11.89c6.53,0.12,10.57-0.89,12.13-3.02
			c1.55-2.12,2.33-6.92,2.33-14.37v-59.44c0-7.33-0.78-12.1-2.33-14.28c-1.55-2.18-5.6-3.28-12.13-3.28V93.31h55.43
			c15.46,0,29.38,4.79,41.73,14.01c12.34,9.22,18.53,24.07,18.53,44.53c0,1.19-0.03,2.34-0.07,3.46c-0.05,1.12-0.12,2.29-0.23,3.46
			c-0.49,5.68-1.64,11.3-3.39,16.86c-1.75,5.56-4.13,10.6-7.15,15.08c-5.51,8.17-12.26,13.67-20.18,16.5
			c-7.93,2.83-16.12,4.33-24.55,4.44c-0.39,0-0.8,0-1.2,0h-1.21H477.35z M519.08,105.01l-0.15,80.91
			c-0.01,6.03,1.06,9.91,3.16,11.62c2.1,1.71,5.47,2.57,10.09,2.57c12.25,0,20.79-4.97,25.61-14.91c4.81-9.93,7.23-21.23,7.23-33.89
			c0-1.42-0.05-2.87-0.15-4.35c-0.1-1.48-0.14-2.94-0.3-4.35c-1.03-9-3.9-17.31-8.36-24.93c-4.46-7.62-10.97-11.72-19.51-12.33
			c-2.91-0.21-5.85-0.36-8.81-0.36H519.08z M690.28,172.31l-9.64,0.18c-1.11,13.22-4.4,21.06-9.86,23.48
			c-5.47,2.42-13.28,3.64-23.42,3.64c-4.02,0-7.39-0.6-10.09-1.77c-2.7-1.18-4.06-4.74-4.06-10.65v-63.93
			c0-7.44,0.8-12.24,2.41-14.43c1.61-2.19,5.62-3.34,12.05-3.46V93.31h-56.03v12.06c6.53,0,10.57,1.1,12.13,3.28
			c1.56,2.19,2.34,6.95,2.34,14.28v59.44c0,7.45-0.79,12.25-2.34,14.37c-1.55,2.12-5.6,3.13-12.13,3.02v11.89h96.55L690.28,172.31z"
			/>
		
			<path style="clip-path:url(#SVGID_00000094595846567513480800000017240834163282480288_);fill-rule:evenodd;clip-rule:evenodd;fill:#86181A;" d="
			M291.92,246.09h-6.26v23.51h-5.78v-23.51h-6.26v-4.89h18.3V246.09z M309.54,259.7h-10.93c0,2.68,0.2,4.49,0.6,5.45
			c0.4,0.96,1.17,1.43,2.31,1.43c1.78,0,2.67-1.42,2.67-4.26h5.14c0,2.41-0.69,4.33-2.07,5.73c-1.38,1.4-3.3,2.11-5.75,2.11
			c-3.13,0-5.35-0.91-6.66-2.74c-1.22-1.73-1.83-4.62-1.83-8.67c0-3.87,0.67-6.69,2.01-8.45c1.34-1.76,3.53-2.64,6.56-2.64
			c3.27,0,5.49,1.05,6.66,3.14C309.17,252.51,309.59,255.48,309.54,259.7 M304.2,256.39c0-1.99-0.21-3.35-0.63-4.1
			c-0.42-0.74-1.13-1.12-2.13-1.12c-0.92,0-1.59,0.33-2.02,0.99c-0.54,0.79-0.81,2.2-0.81,4.22H304.2z M327.72,261.29
			c0,5.91-2.62,8.87-7.86,8.87c-2.98,0-5.1-0.81-6.38-2.42c-1.41-1.73-2.11-4.75-2.11-9.07c0-3.9,0.69-6.71,2.07-8.43
			c1.38-1.73,3.56-2.58,6.54-2.58c5.16,0,7.74,2.68,7.74,8.03h-5.22c0-2.84-0.85-4.26-2.55-4.26c-1.04,0-1.77,0.46-2.19,1.39
			c-0.53,1.12-0.8,3.17-0.8,6.17c0,2.76,0.21,4.68,0.62,5.77c0.41,1.09,1.18,1.63,2.29,1.63c1.81,0,2.71-1.7,2.71-5.09H327.72z
			 M346.42,269.6h-5.5v-14.72c0-1.99-0.78-2.98-2.36-2.98c-0.77,0-1.42,0.25-1.95,0.75c-0.64,0.61-0.96,1.48-0.96,2.59v14.36h-5.5
			v-28.4h5.5v9.47h0.04c1.14-2.01,2.92-3.02,5.34-3.02c3.59,0,5.38,1.96,5.38,5.88V269.6z M365.96,269.6h-5.5V255
			c0-2.07-0.77-3.1-2.31-3.1c-0.77,0-1.43,0.25-1.99,0.75c-0.64,0.59-0.96,1.38-0.96,2.39v14.56h-5.51v-21.4h5.3v2.55
			c1.04-2.07,2.9-3.1,5.56-3.1c3.6,0,5.4,1.87,5.4,5.61V269.6z M385.54,259.02c0,4.08-0.75,7-2.23,8.75
			c-1.33,1.59-3.44,2.39-6.34,2.39c-3.01,0-5.18-0.88-6.52-2.62c-1.34-1.75-2.01-4.59-2.01-8.51c0-4.08,0.68-7,2.03-8.75
			c1.36-1.75,3.52-2.62,6.5-2.62c2.9,0,5.01,0.79,6.34,2.38C384.79,251.81,385.54,254.8,385.54,259.02 M379.96,259.02
			c0-2.79-0.22-4.75-0.66-5.89c-0.44-1.14-1.21-1.71-2.33-1.71c-1.06,0-1.82,0.58-2.27,1.75c-0.45,1.17-0.68,3.12-0.68,5.85
			c0,2.63,0.22,4.51,0.68,5.65c0.45,1.14,1.21,1.71,2.27,1.71c1.09,0,1.86-0.6,2.31-1.79C379.73,263.47,379.96,261.62,379.96,259.02
			 M393.75,269.6h-5.5v-28.4h5.5V269.6z M413.53,259.02c0,4.08-0.75,7-2.23,8.75c-1.33,1.59-3.44,2.39-6.34,2.39
			c-3.01,0-5.18-0.88-6.52-2.62c-1.34-1.75-2.01-4.59-2.01-8.51c0-4.08,0.68-7,2.03-8.75c1.36-1.75,3.52-2.62,6.5-2.62
			c2.9,0,5.01,0.79,6.34,2.38C412.79,251.81,413.53,254.8,413.53,259.02 M407.95,259.02c0-2.79-0.22-4.75-0.66-5.89
			c-0.44-1.14-1.22-1.71-2.33-1.71c-1.06,0-1.82,0.58-2.27,1.75c-0.45,1.17-0.68,3.12-0.68,5.85c0,2.63,0.22,4.51,0.68,5.65
			c0.45,1.14,1.21,1.71,2.27,1.71c1.09,0,1.86-0.6,2.31-1.79C407.72,263.47,407.95,261.62,407.95,259.02 M432.28,268.01
			c0,3.48-0.87,5.91-2.59,7.32c-1.3,1.06-3.22,1.59-5.74,1.59c-2.47,0-4.41-0.5-5.8-1.49c-1.39-1-2.09-2.42-2.09-4.28h5.14
			c0,1.46,0.86,2.19,2.59,2.19c1.99,0,2.99-1.11,2.99-3.34v-3.58c-0.05-0.05-0.08-0.05-0.08,0c-0.72,1.89-2.37,2.83-4.94,2.83
			c-4.2,0-6.3-3.61-6.3-10.82c0-7.18,2.23-10.78,6.7-10.78c2.34,0,3.95,1.09,4.83,3.26c0,0.03,0.03,0.04,0.08,0.04v-2.75h5.22
			V268.01z M426.94,258.54c0-4.43-1.01-6.64-3.03-6.64c-1.12,0-1.9,0.64-2.35,1.91c-0.35,1.01-0.52,2.59-0.52,4.73
			c0,2.17,0.19,3.76,0.56,4.77c0.42,1.19,1.17,1.79,2.23,1.79c1.17,0,2-0.55,2.47-1.63C426.72,262.49,426.94,260.85,426.94,258.54
			 M451.45,248.2l-6.18,23.15c-0.53,1.99-1.29,3.36-2.27,4.12c-0.98,0.76-2.42,1.14-4.31,1.14c-0.9,0-1.93-0.06-3.07-0.2v-3.82
			c0.53,0.08,1.16,0.12,1.87,0.12c1.01,0,1.71-0.36,2.11-1.08c0.05-0.1,0.22-0.75,0.52-1.95l-6.1-21.48h5.78l3.11,15.08H443
			l2.79-15.08H451.45z M459.27,268.69c0,2.65-0.51,4.56-1.52,5.73c-0.82,0.93-2.1,1.47-3.83,1.63v-2.75c0.8-0.26,1.3-0.53,1.51-0.8
			c0.42-0.5,0.64-1.51,0.64-3.02h-2.15v-6.16h5.34V268.69z M489.89,246.09h-6.26v23.51h-5.78v-23.51h-6.26v-4.89h18.3V246.09z
			 M503.13,252.93c-0.61-0.11-1.25-0.16-1.91-0.16c-2.71,0-4.07,1.5-4.07,4.49v12.33h-5.5v-21.4h5.38v3.26
			c1.07-2.55,2.7-3.82,4.9-3.82c0.29,0,0.54,0.02,0.76,0.06c0.21,0.04,0.36,0.06,0.44,0.06V252.93z M521.15,269.6h-5.3v-2.5
			c-0.35,0.77-0.92,1.43-1.73,1.99c-1.04,0.72-2.27,1.07-3.7,1.07c-3.69,0-5.54-1.9-5.54-5.69V248.2h5.5v14.08
			c0,1.3,0.19,2.23,0.56,2.78c0.37,0.56,0.98,0.84,1.83,0.84c0.8,0,1.47-0.3,2.03-0.9c0.56-0.6,0.84-1.45,0.84-2.57V248.2h5.5V269.6
			z M539.41,263.28c0,2.23-0.7,3.93-2.09,5.11c-1.39,1.18-3.3,1.77-5.72,1.77c-2.55,0-4.47-0.48-5.74-1.43
			c-1.57-1.19-2.35-3.22-2.35-6.08h5.02c0,2.63,0.98,3.94,2.95,3.94c0.72,0,1.34-0.22,1.88-0.66c0.53-0.43,0.8-1.08,0.8-1.93
			c0-0.85-0.31-1.5-0.92-1.95c-0.61-0.45-1.82-0.97-3.63-1.55c-2.18-0.71-3.69-1.53-4.55-2.44c-0.85-0.92-1.27-2.21-1.27-3.88
			c0-2.01,0.64-3.61,1.94-4.77c1.29-1.17,3.19-1.75,5.72-1.75c2.68,0,4.62,0.57,5.82,1.71c1.12,1.09,1.67,2.76,1.67,5.01h-4.9
			c0-1.22-0.21-2.05-0.62-2.51c-0.41-0.44-1.07-0.67-1.97-0.67c-1.67,0-2.51,0.81-2.51,2.42c0,0.74,0.48,1.38,1.43,1.91
			c0.51,0.26,1.56,0.68,3.15,1.23c2,0.69,3.29,1.26,3.87,1.71C538.73,259.5,539.41,261.1,539.41,263.28 M551.49,269.64
			c-1.17,0.16-2.26,0.24-3.27,0.24c-2.15,0-3.59-0.32-4.32-0.95c-0.73-0.64-1.1-1.91-1.1-3.82v-13.13h-2.71v-3.78h2.71v-6.29h5.5
			v6.29h3.19v3.78h-3.19v11.34c0,1.11,0.13,1.82,0.4,2.11c0.27,0.29,0.83,0.44,1.67,0.44c0.16,0,0.54-0.04,1.12-0.12V269.64z
			 M585.3,269.6h-6.1l-1.55-2.11c-2.21,1.77-4.55,2.66-7.02,2.66c-2.79,0-4.97-0.81-6.54-2.42c-1.36-1.41-2.04-3.18-2.04-5.33
			c0-1.96,0.62-3.78,1.88-5.45c1.01-1.35,2.28-2.44,3.83-3.26c-1.12-1.62-1.78-2.65-1.99-3.1c-0.64-1.14-0.96-2.23-0.96-3.26
			c0-1.72,0.57-3.17,1.71-4.34c1.28-1.3,3.07-1.95,5.38-1.95c4.89,0,7.34,2,7.34,6.01c0,1.57-0.57,3.03-1.72,4.38
			c-0.54,0.61-1.62,1.56-3.25,2.87l4.25,5.95c0.24-0.45,0.47-1.17,0.69-2.15c0.23-0.98,0.34-1.71,0.34-2.19h4.94
			c-0.03,1.27-0.32,2.74-0.87,4.41c-0.61,1.75-1.32,3.07-2.15,3.97L585.3,269.6z M574.46,246.85c0-0.77-0.26-1.36-0.8-1.79
			c-0.43-0.37-0.94-0.55-1.55-0.55c-1.65,0-2.47,0.76-2.47,2.27c0,0.61,0.27,1.36,0.8,2.27c0.43,0.64,0.85,1.29,1.28,1.95
			c0.93-0.82,1.54-1.42,1.83-1.79C574.15,248.43,574.46,247.65,574.46,246.85 M575.34,264.03l-4.87-6.88
			c-1.94,1.19-2.91,2.76-2.91,4.69c0,1.09,0.35,1.99,1.04,2.71c0.72,0.8,1.7,1.19,2.95,1.19c0.9,0,1.76-0.25,2.55-0.76
			C574.53,264.67,574.94,264.35,575.34,264.03 M616.29,269.6h-6.3c-0.53-0.58-0.8-2.61-0.8-6.08c0-2.39-0.25-3.98-0.76-4.77
			c-0.45-0.69-1.34-1.04-2.67-1.04h-2.99v11.89h-5.74v-28.4h10.73c2.1,0,3.79,0.5,5.06,1.51c1.59,1.27,2.39,3.25,2.39,5.93
			c0,2.12-0.54,3.83-1.63,5.13c-0.88,1.01-1.88,1.58-2.99,1.71v0.08c1.47,0.26,2.5,0.78,3.11,1.55c0.88,1.12,1.32,3.06,1.32,5.85
			c0,1.94,0.05,3.3,0.16,4.1C615.36,268.25,615.73,269.1,616.29,269.6 M609.35,249.51c0-2.68-1.33-4.02-3.99-4.02h-2.59v8.11h2.67
			C608.05,253.61,609.35,252.24,609.35,249.51 M634.39,259.7h-10.93c0,2.68,0.2,4.49,0.6,5.45c0.4,0.96,1.17,1.43,2.31,1.43
			c1.78,0,2.67-1.42,2.67-4.26h5.14c0,2.41-0.69,4.33-2.07,5.73c-1.38,1.4-3.3,2.11-5.74,2.11c-3.14,0-5.35-0.91-6.66-2.74
			c-1.22-1.73-1.83-4.62-1.83-8.67c0-3.87,0.67-6.69,2.01-8.45c1.34-1.76,3.53-2.64,6.56-2.64c3.27,0,5.49,1.05,6.66,3.14
			C634.02,252.51,634.44,255.48,634.39,259.7 M629.05,256.39c0-1.99-0.21-3.35-0.63-4.1c-0.42-0.74-1.13-1.12-2.13-1.12
			c-0.91,0-1.59,0.33-2.02,0.99c-0.54,0.79-0.81,2.2-0.81,4.22H629.05z M653.45,269.64c-0.05,0-0.8,0.01-2.23,0.04
			c-1.43,0.03-2.23,0.04-2.39,0.04c-1.09-0.42-1.63-1.1-1.63-2.03v-0.52h-0.04c-1.09,1.99-2.82,2.98-5.18,2.98
			c-3.88,0-5.82-2.12-5.82-6.37c0-2.09,0.5-3.63,1.51-4.61c0.88-0.85,2.44-1.52,4.66-2.03c1.94-0.42,3.22-0.82,3.83-1.19
			c0.61-0.37,0.92-1,0.92-1.87c0-1.86-0.83-2.79-2.47-2.79c-1.91,0-2.84,1.14-2.79,3.42h-5.03c0-2.33,0.56-4.07,1.67-5.21
			c1.23-1.25,3.26-1.87,6.1-1.87c2.71,0,4.66,0.46,5.84,1.39c1.19,0.93,1.77,2.56,1.77,4.89v12.45c0,0.95,0.21,1.43,0.64,1.43
			c0.11,0,0.27,0.08,0.48,0.24C653.37,268.58,653.42,269.11,653.45,269.64 M647.07,262.92v-4.34c-0.24,0.24-0.75,0.51-1.53,0.8
			c-1.1,0.37-1.8,0.64-2.09,0.8c-1.23,0.61-1.85,1.66-1.85,3.14c0,1.96,0.76,2.94,2.29,2.94c0.82,0,1.54-0.27,2.13-0.8
			C646.72,264.83,647.07,263.98,647.07,262.92 M671.35,261.29c0,5.91-2.62,8.87-7.85,8.87c-2.98,0-5.1-0.81-6.38-2.42
			c-1.41-1.73-2.12-4.75-2.12-9.07c0-3.9,0.69-6.71,2.07-8.43c1.38-1.73,3.56-2.58,6.54-2.58c5.16,0,7.73,2.68,7.73,8.03h-5.22
			c0-2.84-0.85-4.26-2.55-4.26c-1.04,0-1.77,0.46-2.19,1.39c-0.53,1.12-0.8,3.17-0.8,6.17c0,2.76,0.21,4.68,0.62,5.77
			c0.41,1.09,1.18,1.63,2.29,1.63c1.81,0,2.71-1.7,2.71-5.09H671.35z M690.05,269.6h-5.5v-14.72c0-1.99-0.78-2.98-2.35-2.98
			c-0.77,0-1.42,0.25-1.95,0.75c-0.64,0.61-0.96,1.48-0.96,2.59v14.36h-5.5v-28.4h5.5v9.47h0.04c1.15-2.01,2.93-3.02,5.34-3.02
			c3.59,0,5.38,1.96,5.38,5.88V269.6z"/>
	</g>
</g>
</svg>
