<svg width="45" height="45" viewBox="0 0 45 45" fill="none" xmlns="http://www.w3.org/2000/svg">
<rect width="45" height="45" rx="12" fill="#E6FFB7"/>
<path d="M17.4286 28.2857H13.3571C12.608 28.2857 12 27.6764 12 26.9286V22.8571C12 22.1094 12.608 21.5 13.3571 21.5H17.4286V18.7857C17.4286 18.0379 18.0366 17.4286 18.7857 17.4286H22.8571V13.3571C22.8571 12.6094 23.4651 12 24.2143 12H28.2857C29.0349 12 29.6429 12.6094 29.6429 13.3571V18.7857H28.2857V13.3571H24.2143V17.4286C24.2143 18.1764 23.6063 18.7857 22.8571 18.7857H18.7857V21.5C18.7857 22.2478 18.1777 22.8571 17.4286 22.8571H13.3571V26.9286H17.4286V28.2857ZM31 27.6071V21.5C31 20.7522 30.392 20.1429 29.6429 20.1429H25.5714C24.8223 20.1429 24.2143 20.7522 24.2143 21.5V24.2143H20.1429C19.3937 24.2143 18.7857 24.8236 18.7857 25.5714V29.6429C18.7857 30.3906 19.3937 31 20.1429 31H27.6071C29.4786 31 31 29.4773 31 27.6071Z" fill="#7FAD27"/>
</svg>
