<svg width="45" height="45" viewBox="0 0 45 45" fill="none" xmlns="http://www.w3.org/2000/svg">
<rect width="45" height="45" rx="12" fill="#DDE6EE"/>
<path d="M22.5263 28.3158C22.5263 26.2105 23.6842 24.3158 25.3684 23.3684C24 22.8421 22.3158 22.5263 20.4211 22.5263C15.7895 22.5263 12 24.4211 12 26.7368V28.8421H22.5263V28.3158ZM28.3158 24.6316C26.3158 24.6316 24.6316 26.3158 24.6316 28.3158C24.6316 30.3158 26.3158 32 28.3158 32C30.3158 32 32 30.3158 32 28.3158C32 26.3158 30.3158 24.6316 28.3158 24.6316ZM24.6316 16.2105C24.6316 18.5263 22.7368 20.4211 20.4211 20.4211C18.1053 20.4211 16.2105 18.5263 16.2105 16.2105C16.2105 13.8947 18.1053 12 20.4211 12C22.7368 12 24.6316 13.8947 24.6316 16.2105Z" fill="#708090"/>
</svg>
