<svg width="90" height="90" viewBox="0 0 90 90" fill="none" xmlns="http://www.w3.org/2000/svg">
<circle cx="45" cy="45" r="45" fill="#F75A42"/>
<path d="M45 54.5C45.5383 54.5 45.9899 54.3176 46.3547 53.9528C46.7195 53.588 46.9013 53.1371 46.9 52.6C46.8987 52.0629 46.7163 51.612 46.3528 51.2472C45.9893 50.8824 45.5383 50.7 45 50.7C44.4617 50.7 44.0107 50.8824 43.6472 51.2472C43.2837 51.612 43.1013 52.0629 43.1 52.6C43.0987 53.1371 43.2811 53.5886 43.6472 53.9547C44.0133 54.3208 44.4642 54.5025 45 54.5ZM43.1 46.9H46.9V35.5H43.1V46.9ZM45 64C42.3717 64 39.9017 63.5009 37.59 62.5028C35.2783 61.5047 33.2675 60.1512 31.5575 58.4425C29.8475 56.7338 28.4941 54.7229 27.4972 52.41C26.5003 50.0971 26.0013 47.6271 26 45C25.9987 42.3729 26.4978 39.9029 27.4972 37.59C28.4966 35.2771 29.85 33.2662 31.5575 31.5575C33.265 29.8488 35.2758 28.4953 37.59 27.4972C39.9042 26.4991 42.3742 26 45 26C47.6258 26 50.0958 26.4991 52.41 27.4972C54.7242 28.4953 56.735 29.8488 58.4425 31.5575C60.1499 33.2662 61.504 35.2771 62.5047 37.59C63.5053 39.9029 64.0038 42.3729 64 45C63.9962 47.6271 63.4971 50.0971 62.5028 52.41C61.5084 54.7229 60.155 56.7338 58.4425 58.4425C56.73 60.1512 54.7191 61.5053 52.41 62.5047C50.1009 63.5041 47.6309 64.0025 45 64Z" fill="white"/>
</svg>
