<svg width="40" height="40" viewBox="0 0 40 40" fill="none" xmlns="http://www.w3.org/2000/svg">
<path d="M38.2224 11.7074V37.4009C38.2224 38.6904 37.177 39.7354 35.8879 39.7354H9.9125C8.62297 39.7354 7.578 38.6899 7.578 37.4009V31.6342V2.55422C7.578 1.26513 8.62297 0.219727 9.9125 0.219727H26.7352C30.3658 0.279 38.2224 7.24956 38.2224 11.7074Z" fill="#E2E2E2"/>
<path d="M7.61052 9.81721H25.2902C26.7031 9.81721 27.8487 10.9627 27.8487 12.3756V20.4285C27.8487 21.8414 26.7031 22.9869 25.2902 22.9869H4.2912C2.8783 22.9869 1.73279 21.8414 1.73279 20.4285V7.25879" fill="#F15642"/>
<path d="M1.73279 7.25872C1.73279 8.67163 2.8783 9.81714 4.2912 9.81714H7.61052V4.85266H4.2912C2.8783 4.85266 1.73279 5.99818 1.73279 7.41108" fill="#BE4030"/>
<path d="M26.7352 0.219727H29.6603C30.9011 0.219727 32.0909 0.712794 32.9682 1.59004L36.8525 5.47443C37.7298 6.35167 38.2229 7.54153 38.2229 8.78232V11.7074C38.2229 10.2062 37.0058 8.98956 35.5051 8.98956H32.0514C30.6165 8.98956 29.4535 7.82648 29.4535 6.39163V2.93796C29.453 1.43681 28.2364 0.219727 26.7352 0.219727Z" fill="#B7B7B7"/>
<path d="M9.31189 12.3729H6.90188C6.5379 12.3729 6.24329 12.6675 6.24329 13.0315V17.027V19.7628C6.24329 20.1268 6.5379 20.4214 6.90188 20.4214C7.26586 20.4214 7.56047 20.1268 7.56047 19.7628V17.6856H9.31189C10.3094 17.6856 11.1217 16.8738 11.1217 15.8762V14.1823C11.1213 13.1848 10.3094 12.3729 9.31189 12.3729ZM9.80408 15.8762C9.80408 16.1475 9.58324 16.3684 9.31146 16.3684H7.56003V13.6901H9.31146C9.58324 13.6901 9.80408 13.911 9.80408 14.1823V15.8762Z" fill="white"/>
<path d="M15.3912 12.3729H13.0993C12.7353 12.3729 12.4407 12.6675 12.4407 13.0315V19.7632C12.4407 20.1272 12.7353 20.4218 13.0993 20.4218H15.3912C16.4541 20.4218 17.3191 19.5569 17.3191 18.4939V14.3008C17.3191 13.2379 16.4546 12.3729 15.3912 12.3729ZM16.0019 18.4939C16.0019 18.8307 15.7279 19.1046 15.3912 19.1046H13.7579V13.6901H15.3912C15.7279 13.6901 16.0019 13.9641 16.0019 14.3008V18.4939Z" fill="white"/>
<path d="M22.9812 12.3729H19.4204C19.0565 12.3729 18.7618 12.6675 18.7618 13.0315V19.7632C18.7618 20.1272 19.0565 20.4218 19.4204 20.4218C19.7844 20.4218 20.079 20.1272 20.079 19.7632V17.056H21.7527C22.1163 17.056 22.4113 16.7614 22.4113 16.3974C22.4113 16.0334 22.1163 15.7388 21.7527 15.7388H20.0786V13.6901H22.9808C23.3443 13.6901 23.6394 13.3955 23.6394 13.0315C23.6394 12.6675 23.3448 12.3729 22.9812 12.3729Z" fill="white"/>
<path d="M31.2457 32.3051H13.9677C13.6037 32.3051 13.3091 32.0101 13.3091 31.6465C13.3091 31.283 13.6037 30.9879 13.9677 30.9879H31.2461C31.6096 30.9879 31.9047 31.283 31.9047 31.6465C31.9047 32.0101 31.6092 32.3051 31.2457 32.3051Z" fill="#B7B7B7"/>
<path d="M31.2457 28.443H13.9677C13.6037 28.443 13.3091 28.148 13.3091 27.7844C13.3091 27.4209 13.6037 27.1259 13.9677 27.1259H31.2461C31.6096 27.1259 31.9047 27.4209 31.9047 27.7844C31.9047 28.148 31.6092 28.443 31.2457 28.443Z" fill="#B7B7B7"/>
<path d="M31.2457 36.1667H13.9677C13.6037 36.1667 13.3091 35.8716 13.3091 35.5081C13.3091 35.1445 13.6037 34.8495 13.9677 34.8495H31.2461C31.6096 34.8495 31.9047 35.1445 31.9047 35.5081C31.9047 35.8716 31.6092 36.1667 31.2457 36.1667Z" fill="#B7B7B7"/>
</svg>
