<svg width="19" height="24" viewBox="0 0 19 24" fill="none" xmlns="http://www.w3.org/2000/svg">
<path d="M9.2 23.5C6.53583 22.8292 4.33627 21.3004 2.6013 18.9138C0.866334 16.5272 -0.000766159 13.8776 5.0795e-07 10.965V3.95L9.2 0.5L18.4 3.95V10.965C18.4 12.5942 18.1221 14.1612 17.5662 15.6662C17.0104 17.1712 16.215 18.4983 15.18 19.6475L11.5 15.9675C11.155 16.1783 10.7862 16.3366 10.3937 16.4424C10.0012 16.5483 9.60327 16.6008 9.2 16.6C7.935 16.6 6.85208 16.1496 5.95125 15.2487C5.05042 14.3479 4.6 13.265 4.6 12C4.6 10.735 5.05042 9.65208 5.95125 8.75125C6.85208 7.85042 7.935 7.4 9.2 7.4C10.465 7.4 11.5479 7.85042 12.4487 8.75125C13.3496 9.65208 13.8 10.735 13.8 12C13.8 12.4217 13.7475 12.8291 13.6424 13.2224C13.5374 13.6157 13.3791 13.9941 13.1675 14.3575L14.8925 16.0825C15.2758 15.2967 15.5729 14.4725 15.7838 13.61C15.9946 12.7475 16.1 11.8658 16.1 10.965V5.53125L9.2 2.94375L2.3 5.53125V10.965C2.3 13.2842 2.95167 15.3925 4.255 17.29C5.55833 19.1875 7.20667 20.4525 9.2 21.085C9.69833 20.9317 10.1729 20.7354 10.6237 20.4962C11.0745 20.257 11.5199 19.9741 11.96 19.6475L13.57 21.2575C12.9375 21.775 12.2525 22.2254 11.5149 22.6087C10.7774 22.9921 10.0058 23.2892 9.2 23.5ZM9.2 14.3C9.8325 14.3 10.3742 14.075 10.825 13.6249C11.2758 13.1749 11.5008 12.6333 11.5 12C11.4992 11.3667 11.2742 10.8255 10.825 10.3762C10.3757 9.92693 9.83403 9.70153 9.2 9.7C8.56597 9.69847 8.0247 9.92387 7.5762 10.3762C7.1277 10.8285 6.9023 11.3698 6.9 12C6.8977 12.6302 7.1231 13.1719 7.5762 13.6249C8.0293 14.078 8.57057 14.3031 9.2 14.3Z" fill="white"/>
</svg>
