<svg width="23" height="20" viewBox="0 0 23 20" fill="none" xmlns="http://www.w3.org/2000/svg">
<path d="M21.5391 8.1575C20.8078 4.25625 20.4416 2.305 19.0528 1.1525C17.6653 -1.0366e-07 15.6803 0 11.7116 0H10.8104C6.84035 0 4.8566 -1.0366e-07 3.46785 1.1525C2.0791 2.305 1.71285 4.25625 0.980351 8.1575C-0.0471492 13.6438 -0.562149 16.3862 0.93785 18.1938C2.4366 20 5.2266 20 10.8091 20H11.7104C17.2916 20 20.0828 20 21.5828 18.1938C22.4529 17.1438 22.6453 15.7812 22.4516 13.75" fill="white"/>
<path d="M7.71143 5C7.96968 5.73192 8.4486 6.36571 9.08218 6.81401C9.71575 7.26232 10.4728 7.50306 11.2489 7.50306C12.0251 7.50306 12.7821 7.26232 13.4157 6.81401C14.0493 6.36571 14.5282 5.73192 14.7864 5" stroke="#263448" stroke-width="1.5" stroke-linecap="round"/>
</svg>
