<svg width="28" height="25" viewBox="0 0 28 25" fill="none" xmlns="http://www.w3.org/2000/svg">
    <path
        d="M25.8207 10.3811C24.9798 5.89469 24.5586 3.65075 22.9616 2.32537C21.3659 1 19.0832 1 14.5191 1H13.4827C8.91718 1 6.63587 1 5.03881 2.32537C3.44175 3.65075 3.02056 5.89469 2.17818 10.3811C0.99656 16.6903 0.404309 19.8442 2.12931 21.9228C3.85287 24 7.06137 24 13.4812 24H14.5177C20.9361 24 24.1461 24 25.8711 21.9228C26.8716 20.7153 27.0929 19.1484 26.8701 16.8125"
        fill="#3C4A60" />
    <path
        d="M25.8207 10.3811C24.9798 5.89469 24.5586 3.65075 22.9616 2.32537C21.3659 1 19.0832 1 14.5191 1H13.4827C8.91718 1 6.63587 1 5.03881 2.32537C3.44175 3.65075 3.02056 5.89469 2.17818 10.3811C0.99656 16.6903 0.404309 19.8442 2.12931 21.9228C3.85287 24 7.06137 24 13.4812 24H14.5177C20.9361 24 24.1461 24 25.8711 21.9228C26.8716 20.7153 27.0929 19.1484 26.8701 16.8125L25.8207 10.3811Z"
        stroke="#3C4A60" stroke-width="1.5" stroke-linecap="round" />
    <path
        d="M9.91895 6.75C10.2159 7.5917 10.7667 8.32056 11.4953 8.83612C12.2239 9.35167 13.0945 9.62852 13.9871 9.62852C14.8796 9.62852 15.7502 9.35167 16.4788 8.83612C17.2074 8.32056 17.7582 7.5917 18.0552 6.75"
        stroke="white" stroke-width="1.5" stroke-linecap="round" />
</svg>