<svg width="24" height="23" viewBox="0 0 24 23" fill="none" xmlns="http://www.w3.org/2000/svg">
<path d="M1 20V8.65111C1 6.72561 2.10566 4.9712 3.84272 4.14044L10.2939 1.05509C11.6859 0.389374 13.3072 0.403596 14.6873 1.09363L21.2889 4.39443C22.644 5.072 23.5 6.45705 23.5 7.97214V20C23.5 21.1046 22.6046 22 21.5 22H3C1.89543 22 1 21.1046 1 20Z" fill="white" stroke="#222D40"/>
<path d="M6.52726 11.3537V11.3544V17.1772C6.52726 17.4693 6.42993 17.7073 6.2358 17.9014C6.04169 18.0955 5.80416 18.1924 5.51305 18.1917C5.22156 18.191 4.98368 18.0937 4.78942 17.9001C4.59546 17.7068 4.49814 17.4693 4.49814 17.1772V11.3544C4.49814 11.0623 4.59546 10.8248 4.78942 10.6315C4.98368 10.4379 5.22156 10.3405 5.51305 10.3398C5.804 10.3391 6.04197 10.4363 6.23696 10.6313C6.43194 10.8263 6.52863 11.0637 6.52726 11.3537ZM13.5146 11.3537V11.3544V17.1772C13.5146 17.4693 13.4173 17.7073 13.2231 17.9014C13.029 18.0955 12.7915 18.1924 12.5004 18.1917C12.2089 18.191 11.971 18.0937 11.7768 17.9001C11.5828 17.7068 11.4855 17.4693 11.4855 17.1772V11.3544C11.4855 11.0623 11.5828 10.8248 11.7768 10.6315C11.971 10.4379 12.2089 10.3405 12.5004 10.3398C12.7913 10.3391 13.0293 10.4363 13.2243 10.6313C13.4193 10.8263 13.516 11.0637 13.5146 11.3537ZM20.5019 11.3537V11.3544V17.1772C20.5019 17.4693 20.4046 17.7073 20.2105 17.9014C20.0164 18.0955 19.7788 18.1924 19.4877 18.1917C19.1962 18.191 18.9584 18.0937 18.7641 17.9001C18.5701 17.7068 18.4728 17.4693 18.4728 17.1772V11.3544C18.4728 11.0623 18.5701 10.8248 18.7641 10.6315C18.9584 10.4379 19.1962 10.3405 19.4877 10.3398C19.7787 10.3391 20.0166 10.4363 20.2116 10.6313C20.4066 10.8263 20.5033 11.0637 20.5019 11.3537Z" fill="#28364A" stroke="#222D40" stroke-width="0.3"/>
<path d="M12.25 3L5.80882 6.43529C5.53326 6.58226 5.63769 7 5.95 7H18.55C18.8623 7 18.9667 6.58226 18.6912 6.43529L12.25 3Z" fill="#28364A"/>
</svg>
