<svg width="40" height="40" viewBox="0 0 40 40" fill="none" xmlns="http://www.w3.org/2000/svg">
<rect width="40" height="40" rx="20" fill="#EAECEF"/>
<path d="M10.9236 14.6178C10.6619 14.6178 10.4425 14.5293 10.2655 14.3523C10.0885 14.1753 10 13.9559 10 13.6943V10.9236C10 10.6619 10.0885 10.4425 10.2655 10.2655C10.4425 10.0885 10.6619 10 10.9236 10H13.6943C13.9559 10 14.1753 10.0885 14.3523 10.2655C14.5293 10.4425 14.6178 10.6619 14.6178 10.9236C14.6178 11.1852 14.5293 11.4046 14.3523 11.5816C14.1753 11.7586 13.9559 11.8471 13.6943 11.8471H11.8471V13.6943C11.8471 13.9559 11.7586 14.1753 11.5816 14.3523C11.4046 14.5293 11.1852 14.6178 10.9236 14.6178ZM10.9236 30C10.6619 30 10.4425 29.9115 10.2655 29.7345C10.0885 29.5575 10 29.3381 10 29.0764V26.3057C10 26.0441 10.0885 25.8247 10.2655 25.6477C10.4425 25.4707 10.6619 25.3822 10.9236 25.3822C11.1852 25.3822 11.4046 25.4707 11.5816 25.6477C11.7586 25.8247 11.8471 26.0441 11.8471 26.3057V28.1529H13.6943C13.9559 28.1529 14.1753 28.2414 14.3523 28.4184C14.5293 28.5954 14.6178 28.8148 14.6178 29.0764C14.6178 29.3381 14.5293 29.5575 14.3523 29.7345C14.1753 29.9115 13.9559 30 13.6943 30H10.9236ZM26.3057 30C26.0441 30 25.8247 29.9115 25.6477 29.7345C25.4707 29.5575 25.3822 29.3381 25.3822 29.0764C25.3822 28.8148 25.4707 28.5954 25.6477 28.4184C25.8247 28.2414 26.0441 28.1529 26.3057 28.1529H28.1529V26.3057C28.1529 26.0441 28.2414 25.8247 28.4184 25.6477C28.5954 25.4707 28.8148 25.3822 29.0764 25.3822C29.3381 25.3822 29.5575 25.4707 29.7345 25.6477C29.9115 25.8247 30 26.0441 30 26.3057V29.0764C30 29.3381 29.9115 29.5575 29.7345 29.7345C29.5575 29.9115 29.3381 30 29.0764 30H26.3057ZM29.0764 14.6178C28.8148 14.6178 28.5954 14.5293 28.4184 14.3523C28.2414 14.1753 28.1529 13.9559 28.1529 13.6943V11.8471H26.3057C26.0441 11.8471 25.8247 11.7586 25.6477 11.5816C25.4707 11.4046 25.3822 11.1852 25.3822 10.9236C25.3822 10.6619 25.4707 10.4425 25.6477 10.2655C25.8247 10.0885 26.0441 10 26.3057 10H29.0764C29.3381 10 29.5575 10.0885 29.7345 10.2655C29.9115 10.4425 30 10.6619 30 10.9236V13.6943C30 13.9559 29.9115 14.1753 29.7345 14.3523C29.5575 14.5293 29.3381 14.6178 29.0764 14.6178ZM25.0796 26.465V25.0796H26.465V26.465H25.0796ZM25.0796 23.6943V22.3089H26.465V23.6943H25.0796ZM23.6943 25.0796V23.6943H25.0796V25.0796H23.6943ZM22.3089 26.465V25.0796H23.6943V26.465H22.3089ZM20.9236 25.0796V23.6943H22.3089V25.0796H20.9236ZM23.6943 22.3089V20.9236H25.0796V22.3089H23.6943ZM22.3089 23.6943V22.3089H23.6943V23.6943H22.3089ZM20.9236 22.3089V20.9236H22.3089V22.3089H20.9236ZM21.8471 19.0764C21.5855 19.0764 21.3661 18.9879 21.1891 18.8109C21.0121 18.6339 20.9236 18.4145 20.9236 18.1529V14.4586C20.9236 14.1969 21.0121 13.9776 21.1891 13.8006C21.3661 13.6235 21.5855 13.535 21.8471 13.535H25.5414C25.8031 13.535 26.0224 13.6235 26.1994 13.8006C26.3765 13.9776 26.465 14.1969 26.465 14.4586V18.1529C26.465 18.4145 26.3765 18.6339 26.1994 18.8109C26.0224 18.9879 25.8031 19.0764 25.5414 19.0764H21.8471ZM14.4586 26.465C14.1969 26.465 13.9776 26.3765 13.8006 26.1994C13.6235 26.0224 13.535 25.8031 13.535 25.5414V21.8471C13.535 21.5855 13.6235 21.3661 13.8006 21.1891C13.9776 21.0121 14.1969 20.9236 14.4586 20.9236H18.1529C18.4145 20.9236 18.6339 21.0121 18.8109 21.1891C18.9879 21.3661 19.0764 21.5855 19.0764 21.8471V25.5414C19.0764 25.8031 18.9879 26.0224 18.8109 26.1994C18.6339 26.3765 18.4145 26.465 18.1529 26.465H14.4586ZM14.4586 19.0764C14.1969 19.0764 13.9776 18.9879 13.8006 18.8109C13.6235 18.6339 13.535 18.4145 13.535 18.1529V14.4586C13.535 14.1969 13.6235 13.9776 13.8006 13.8006C13.9776 13.6235 14.1969 13.535 14.4586 13.535H18.1529C18.4145 13.535 18.6339 13.6235 18.8109 13.8006C18.9879 13.9776 19.0764 14.1969 19.0764 14.4586V18.1529C19.0764 18.4145 18.9879 18.6339 18.8109 18.8109C18.6339 18.9879 18.4145 19.0764 18.1529 19.0764H14.4586ZM14.9204 25.0796H17.6911V22.3089H14.9204V25.0796ZM14.9204 17.6911H17.6911V14.9204H14.9204V17.6911ZM22.3089 17.6911H25.0796V14.9204H22.3089V17.6911Z" fill="#31323A"/>
</svg>
