<svg width="40" height="40" viewBox="0 0 40 40" fill="none" xmlns="http://www.w3.org/2000/svg">
<rect width="40" height="40" rx="20" fill="#EAECEF"/>
<g clip-path="url(#clip0_1_1722)">
<path d="M26.1209 13.8792C24.5501 12.3084 22.3942 11.3334 20.0001 11.3334C15.2117 11.3334 11.3442 15.2117 11.3442 20C11.3442 24.7884 15.2117 28.6667 20.0001 28.6667C24.0409 28.6667 27.4101 25.9042 28.3742 22.1667H26.1209C25.2326 24.6909 22.8276 26.5 20.0001 26.5C16.4142 26.5 13.5001 23.5859 13.5001 20C13.5001 16.4142 16.4142 13.5 20.0001 13.5C21.7984 13.5 23.4017 14.2475 24.5717 15.4284L21.0834 18.9167H28.6667V11.3334L26.1209 13.8792Z" fill="#3C4A60"/>
</g>
<defs>
<clipPath id="clip0_1_1722">
<rect width="26" height="26" fill="#3C4A60" transform="translate(7 7)"/>
</clipPath>
</defs>
</svg>
