<svg width="19" height="20" viewBox="0 0 19 20" fill="none" xmlns="http://www.w3.org/2000/svg">
<path d="M5.96395 0.5H1.98422C1.72365 0.5 1.46563 0.551323 1.22489 0.651039C0.984153 0.750756 0.765415 0.896912 0.581164 1.08116C0.396912 1.26542 0.250756 1.48415 0.151039 1.72489C0.0513232 1.96563 2.56609e-10 2.22365 2.56609e-10 2.48422V6.46395C-6.98925e-06 6.99114 0.208715 7.4969 0.580536 7.87064C0.952356 8.24439 1.45703 8.45572 1.98422 8.45843H5.96395C6.49292 8.45843 7.00022 8.2483 7.37426 7.87426C7.7483 7.50022 7.95843 6.99292 7.95843 6.46395V2.48422C7.95572 1.95703 7.74439 1.45236 7.37064 1.08054C6.9969 0.708715 6.49114 0.499993 5.96395 0.5ZM17.0158 0.5H13.0361C12.5089 0.499993 12.0031 0.708715 11.6294 1.08054C11.2556 1.45236 11.0443 1.95703 11.0416 2.48422V6.46395C11.0418 6.99283 11.2521 7.49998 11.626 7.87396C12 8.24794 12.5072 8.45816 13.0361 8.45843H17.0158C17.543 8.45572 18.0476 8.24439 18.4195 7.87064C18.7913 7.4969 19 6.99114 19 6.46395V2.48422C19 1.95797 18.7909 1.45328 18.4188 1.08116C18.0467 0.709051 17.542 0.5 17.0158 0.5ZM5.96395 11.5405H1.98422C1.45693 11.5435 0.952264 11.7551 0.580473 12.129C0.208681 12.5029 -8.44989e-06 13.0088 2.56609e-10 13.5361V17.5158C2.56609e-10 18.042 0.209051 18.5467 0.581164 18.9188C0.953276 19.2909 1.45797 19.5 1.98422 19.5H5.96395C6.49114 19.5 6.9969 19.2913 7.37064 18.9195C7.74439 18.5476 7.95572 18.043 7.95843 17.5158V13.5361C7.95843 13.0071 7.7483 12.4998 7.37426 12.1257C7.00022 11.7517 6.49292 11.5416 5.96395 11.5416M15.0203 11.5405C13.9648 11.5405 12.9525 11.9598 12.2062 12.7062C11.4598 13.4525 11.0405 14.4648 11.0405 15.5203C11.0405 16.5758 11.4598 17.588 12.2062 18.3344C12.9525 19.0807 13.9648 19.5 15.0203 19.5C16.0758 19.5 17.088 19.0807 17.8344 18.3344C18.5807 17.588 19 16.5758 19 15.5203C19 14.4648 18.5807 13.4525 17.8344 12.7062C17.088 11.9598 16.0758 11.5405 15.0203 11.5405Z" fill="white"/>
</svg>
