<svg width="45" height="45" viewBox="0 0 45 45" fill="none" xmlns="http://www.w3.org/2000/svg">
<rect width="45" height="45" rx="12" fill="#FFDED6"/>
<path d="M29.4167 12H13.5833C13.1634 12 12.7607 12.1668 12.4637 12.4637C12.1668 12.7607 12 13.1634 12 13.5833V29.4167C12 29.8366 12.1668 30.2393 12.4637 30.5363C12.7607 30.8332 13.1634 31 13.5833 31H29.4167C29.8366 31 30.2393 30.8332 30.5363 30.5363C30.8332 30.2393 31 29.8366 31 29.4167V13.5833C31 13.1634 30.8332 12.7607 30.5363 12.4637C30.2393 12.1668 29.8366 12 29.4167 12Z" fill="#C06281"/>
<path fill-rule="evenodd" clip-rule="evenodd" d="M15.8333 17.25C15.8333 16.7284 16.2562 16.3055 16.7778 16.3055H26.2222C26.7438 16.3055 27.1666 16.7284 27.1666 17.25C27.1666 17.7716 26.7438 18.1944 26.2222 18.1944H16.7778C16.2562 18.1944 15.8333 17.7716 15.8333 17.25ZM15.8333 21.0278C15.8333 20.5062 16.2562 20.0833 16.7778 20.0833H20.5555C21.0771 20.0833 21.5 20.5062 21.5 21.0278C21.5 21.5494 21.0771 21.9722 20.5555 21.9722H16.7778C16.2562 21.9722 15.8333 21.5494 15.8333 21.0278ZM26.8122 21.2347C27.2195 21.5606 27.2855 22.1549 26.9597 22.5622L23.1819 27.2844C22.8561 27.6917 22.2617 27.7578 21.8544 27.4319L19.4933 25.543C19.086 25.2172 19.02 24.6229 19.3458 24.2156C19.6717 23.8082 20.266 23.7422 20.6733 24.0681L22.2969 25.367L25.4847 21.3822C25.8106 20.9749 26.4049 20.9089 26.8122 21.2347Z" fill="white"/>
</svg>
