<svg width="45" height="45" viewBox="0 0 45 45" fill="none" xmlns="http://www.w3.org/2000/svg">
<rect width="45" height="45" rx="12" fill="#D4D4BF"/>
<path d="M22 34C28.0753 34 33 29.0753 33 23C33 16.9247 28.0753 12 22 12C15.9247 12 11 16.9247 11 23C11 29.0753 15.9247 34 22 34Z" fill="#959558"/>
<path fill-rule="evenodd" clip-rule="evenodd" d="M17.9222 17.2722C18.3518 16.8426 19.0482 16.8426 19.4778 17.2722L22 19.7944L24.5222 17.2722C24.9518 16.8426 25.6482 16.8426 26.0778 17.2722C26.5074 17.7018 26.5074 18.3983 26.0778 18.8278L24.1056 20.8H25.3C25.9075 20.8 26.4 21.2925 26.4 21.9C26.4 22.5075 25.9075 23 25.3 23H23.1044V24.1H25.3C25.9075 24.1 26.4 24.5925 26.4 25.2C26.4 25.8075 25.9075 26.3 25.3 26.3H23.1044V28.5C23.1044 29.1075 22.6119 29.6 22.0044 29.6C21.3969 29.6 20.9044 29.1075 20.9044 28.5V26.3H18.7C18.0925 26.3 17.6 25.8075 17.6 25.2C17.6 24.5925 18.0925 24.1 18.7 24.1H20.9044V23H18.7C18.0925 23 17.6 22.5075 17.6 21.9C17.6 21.2925 18.0925 20.8 18.7 20.8H19.8944L17.9222 18.8278C17.4926 18.3983 17.4926 17.7018 17.9222 17.2722Z" fill="white" stroke="#959558" stroke-linecap="round" stroke-linejoin="round"/>
</svg>
