<svg width="45" height="45" viewBox="0 0 45 45" fill="none" xmlns="http://www.w3.org/2000/svg">
<rect width="45" height="45" rx="12" fill="#FFF5D9"/>
<path fill-rule="evenodd" clip-rule="evenodd" d="M22.375 13C24.762 13 27.0511 13.9482 28.739 15.636C30.4268 17.3239 31.375 19.6131 31.375 22C31.375 24.3869 30.4268 26.6761 28.739 28.364C27.0511 30.0518 24.762 31 22.375 31C19.9881 31 17.6989 30.0518 16.0111 28.364C14.3232 26.6761 13.375 24.3869 13.375 22C13.375 19.6131 14.3232 17.3239 16.0111 15.636C17.6989 13.9482 19.9881 13 22.375 13ZM12.475 14.575C12.5619 14.4522 12.6725 14.348 12.8002 14.2687C12.928 14.1894 13.0705 14.1365 13.219 14.1132C13.3676 14.0898 13.5194 14.0965 13.6654 14.1329C13.8113 14.1692 13.9485 14.2345 14.0688 14.3248C14.1891 14.415 14.2901 14.5285 14.3658 14.6585C14.4415 14.7885 14.4903 14.9324 14.5094 15.0816C14.5285 15.2307 14.5175 15.3823 14.4771 15.5271C14.4366 15.672 14.3675 15.8073 14.2739 15.925C12.9566 17.6761 12.2461 19.8088 12.25 22C12.25 24.2804 13.0038 26.3819 14.2739 28.075C14.4529 28.3137 14.5298 28.6137 14.4876 28.9091C14.4454 29.2045 14.2876 29.471 14.0489 29.65C13.8102 29.829 13.5102 29.9059 13.2148 29.8637C12.9194 29.8215 12.6529 29.6637 12.4739 29.425C10.8645 27.2845 9.9961 24.678 10 22C10 19.2156 10.9214 16.6428 12.475 14.575ZM30.7 14.35C30.9387 14.171 31.2387 14.0941 31.5341 14.1363C31.8295 14.1785 32.096 14.3363 32.275 14.575C33.8848 16.7154 34.7536 19.3218 34.75 22C34.75 24.7844 33.8286 27.3573 32.275 29.425C32.1882 29.5478 32.0776 29.652 31.9498 29.7313C31.822 29.8106 31.6796 29.8635 31.531 29.8868C31.3824 29.9102 31.2306 29.9035 31.0847 29.8671C30.9387 29.8308 30.8015 29.7655 30.6812 29.6752C30.5609 29.585 30.4599 29.4715 30.3842 29.3415C30.3086 29.2115 30.2597 29.0676 30.2406 28.9184C30.2215 28.7692 30.2325 28.6177 30.2729 28.4729C30.3134 28.328 30.3825 28.1927 30.4761 28.075C31.7934 26.3239 32.5039 24.1912 32.5 22C32.5 19.7196 31.7463 17.6181 30.4761 15.925C30.2971 15.6863 30.2202 15.3863 30.2624 15.0909C30.3046 14.7955 30.4613 14.529 30.7 14.35ZM24.625 17.5C24.3495 17.5 24.0835 17.6012 23.8776 17.7843C23.6717 17.9674 23.5401 18.2197 23.5079 18.4934L23.5 18.625V20.875H21.25V18.625C21.2497 18.3383 21.1399 18.0625 20.9431 17.854C20.7462 17.6455 20.4772 17.52 20.1909 17.5032C19.9047 17.4864 19.6228 17.5795 19.403 17.7635C19.1831 17.9476 19.0418 18.2086 19.0079 18.4934L19 18.625V25.375C19.0003 25.6617 19.1101 25.9375 19.307 26.146C19.5038 26.3545 19.7728 26.48 20.0591 26.4968C20.3453 26.5136 20.6272 26.4205 20.8471 26.2365C21.067 26.0524 21.2083 25.7914 21.2421 25.5066L21.25 25.375V23.125H23.5V25.375C23.5003 25.6617 23.6101 25.9375 23.807 26.146C24.0038 26.3545 24.2728 26.48 24.5591 26.4968C24.8453 26.5136 25.1272 26.4205 25.3471 26.2365C25.567 26.0524 25.7083 25.7914 25.7421 25.5066L25.75 25.375V18.625C25.75 18.3266 25.6315 18.0405 25.4205 17.8295C25.2095 17.6185 24.9234 17.5 24.625 17.5Z" fill="#FFBB38"/>
</svg>
