<svg width="45" height="45" viewBox="0 0 45 45" fill="none" xmlns="http://www.w3.org/2000/svg">
<rect width="45" height="45" rx="12" fill="#E7EDFF"/>
<g clip-path="url(#clip0_824_1384)">
<path d="M24.5938 25.2698C27.9498 25.2698 30.6801 22.5177 30.6801 19.1349C30.6801 15.7521 27.9498 13 24.5938 13C21.2378 13 18.5075 15.7521 18.5075 19.1349C18.5075 22.5176 21.2378 25.2698 24.5938 25.2698ZM22.6381 21.0493C22.8151 20.7786 23.1781 20.7027 23.4487 20.8798C23.8431 21.1377 23.9918 21.1615 24.5122 21.1579C25.0201 21.1545 25.3148 20.776 25.3736 20.4256C25.4023 20.2552 25.4133 19.8391 24.8976 19.6568C24.2926 19.4429 23.6736 19.1985 23.2429 18.8607C22.8122 18.5229 22.615 17.9397 22.7282 17.3389C22.851 16.6875 23.3054 16.169 23.9141 15.9856C23.9196 15.984 23.925 15.9827 23.9305 15.981V15.7591C23.9305 15.4357 24.1927 15.1735 24.5161 15.1735C24.8395 15.1735 25.1017 15.4357 25.1017 15.7591V15.9441C25.4994 16.0391 25.7772 16.2211 25.8899 16.3053C26.149 16.499 26.202 16.8659 26.0083 17.125C25.8147 17.3841 25.4478 17.4371 25.1887 17.2434C25.0687 17.1537 24.7371 16.9608 24.2519 17.107C23.9684 17.1924 23.8949 17.4721 23.8791 17.5558C23.8481 17.7202 23.8829 17.8742 23.9657 17.9391C24.2642 18.1733 24.8016 18.3806 25.2879 18.5525C26.1846 18.8695 26.6832 19.7002 26.5286 20.6198C26.4528 21.0709 26.2258 21.4895 25.8895 21.7985C25.6604 22.009 25.3938 22.1591 25.1017 22.2448V22.5107C25.1017 22.8341 24.8395 23.0963 24.5161 23.0963C24.1927 23.0963 23.9305 22.8341 23.9305 22.5107V22.3032C23.5518 22.2573 23.234 22.1389 22.8075 21.8599C22.5369 21.6828 22.461 21.3199 22.6381 21.0493Z" fill="#396AFF"/>
<path d="M15.2195 27.2374H13.8843C13.5609 27.2374 13.2987 27.4996 13.2987 27.823V32.4136C13.2987 32.737 13.5609 32.9992 13.8843 32.9992H15.2196V27.2374H15.2195Z" fill="#396AFF"/>
<path d="M32.5295 27.1965C31.4319 26.0989 29.646 26.0989 28.5485 27.1965L26.7943 28.9507L26.0753 29.6697C25.7848 29.9602 25.3906 30.1235 24.9797 30.1235H21.4836C21.1678 30.1235 20.8961 29.8808 20.8812 29.5654C20.8654 29.2287 21.1337 28.9507 21.467 28.9507H25.0206C25.7351 28.9507 26.3548 28.442 26.4776 27.7382C26.5058 27.5765 26.5205 27.4104 26.5205 27.2408C26.5206 26.9168 26.2581 26.6539 25.9341 26.6539H23.987C23.3506 26.6539 22.7395 26.3652 22.0925 26.0596C21.4139 25.739 20.7122 25.4075 19.8917 25.3529C19.1741 25.3051 18.4549 25.3837 17.7538 25.5861C17.0032 25.8029 16.4637 26.4697 16.3982 27.2397C16.3957 27.2395 16.3932 27.2394 16.3907 27.2393V32.9972L26.4795 33C27.1731 33 27.8253 32.7298 28.3159 32.2393L32.5294 28.0258C32.7585 27.7969 32.7585 27.4255 32.5295 27.1965Z" fill="#396AFF"/>
</g>
<defs>
<clipPath id="clip0_824_1384">
<rect width="20" height="20" fill="white" transform="translate(13 13)"/>
</clipPath>
</defs>
</svg>
