<svg width="45" height="45" viewBox="0 0 45 45" fill="none" xmlns="http://www.w3.org/2000/svg">
<rect width="45" height="45" rx="12" fill="#FF817B"/>
<path d="M6 23.6345L6.65448 23.5788C6.68233 23.8433 6.75196 24.0522 6.86336 24.2332C6.97476 24.4003 7.15579 24.5396 7.39252 24.6371C7.62924 24.7345 7.89382 24.7903 8.20017 24.7903C8.46475 24.7903 8.70148 24.7485 8.89643 24.6788C9.10531 24.5953 9.24456 24.4978 9.34204 24.3586C9.43951 24.2193 9.49521 24.0661 9.49521 23.913C9.49521 23.7459 9.45344 23.6066 9.35596 23.4813C9.25848 23.356 9.10531 23.2585 8.88251 23.1749C8.74325 23.1192 8.4369 23.0357 7.94952 22.9243C7.46214 22.8129 7.12794 22.7015 6.93298 22.5901C6.68233 22.4647 6.50131 22.2976 6.37598 22.1027C6.25065 21.9077 6.19495 21.6849 6.19495 21.4482C6.19495 21.1836 6.26458 20.933 6.41775 20.7102C6.57093 20.4735 6.79373 20.3064 7.07224 20.181C7.35074 20.0557 7.68494 20 8.03307 20C8.42298 20 8.77111 20.0696 9.06353 20.195C9.35596 20.3203 9.59269 20.5013 9.74587 20.752C9.89904 20.9887 9.99652 21.2672 10.0104 21.5735L9.34204 21.6292C9.30026 21.295 9.18886 21.0444 8.97998 20.8773C8.77111 20.7102 8.46475 20.6266 8.06092 20.6266C7.64317 20.6266 7.33681 20.7102 7.14186 20.8634C6.94691 21.0165 6.84944 21.1976 6.84944 21.4204C6.84944 21.6153 6.91906 21.7685 7.05831 21.8799C7.19756 22.0052 7.54569 22.1305 8.1027 22.2559C8.67363 22.3812 9.04961 22.4926 9.27241 22.5901C9.57877 22.7293 9.80157 22.9104 9.95474 23.1332C10.094 23.342 10.1775 23.5927 10.1775 23.8712C10.1775 24.1497 10.094 24.4143 9.94082 24.6649C9.78764 24.9156 9.55091 25.0966 9.24456 25.2359C8.95213 25.3751 8.604 25.4447 8.24195 25.4447C7.7685 25.4447 7.36466 25.3751 7.04439 25.2359C6.72411 25.0966 6.47346 24.8877 6.29243 24.6092C6.1114 24.3029 6.01393 23.9826 6 23.6345Z" fill="white"/>
<path d="M13.5473 25.3189V24.7619C13.2549 25.1936 12.851 25.4024 12.3358 25.4024C12.113 25.4024 11.9041 25.3607 11.7092 25.2771C11.5142 25.1936 11.375 25.0822 11.2775 24.9568C11.18 24.8315 11.1243 24.6644 11.0825 24.4834C11.0547 24.3581 11.0408 24.1631 11.0408 23.8846V21.5312H11.6813V23.6339C11.6813 23.9681 11.6953 24.191 11.7231 24.3163C11.7649 24.4834 11.8484 24.6226 11.9877 24.7201C12.113 24.8176 12.2801 24.8594 12.4751 24.8594C12.67 24.8594 12.851 24.8037 13.0181 24.7062C13.1852 24.6087 13.3106 24.4695 13.3802 24.3024C13.4498 24.1353 13.4916 23.8846 13.4916 23.5643V21.5312H14.1322V25.3328L13.5473 25.3189Z" fill="white"/>
<path d="M15.7338 25.3181H15.135V20.0684H15.7756V21.9343C16.0541 21.5862 16.3883 21.4191 16.82 21.4191C17.0567 21.4191 17.2795 21.4609 17.4884 21.5583C17.6972 21.6558 17.8643 21.7811 18.0036 21.9622C18.1428 22.1293 18.2403 22.3382 18.3239 22.5749C18.3935 22.8116 18.4353 23.0762 18.4353 23.3547C18.4353 24.0092 18.2682 24.5105 17.9479 24.8586C17.6276 25.2207 17.2377 25.3878 16.7921 25.3878C16.3465 25.3878 15.9844 25.2067 15.7338 24.8308V25.3181ZM15.7199 23.3965C15.7199 23.856 15.7756 24.1763 15.9009 24.3852C16.1098 24.7194 16.3744 24.8865 16.7225 24.8865C17.001 24.8865 17.2516 24.7611 17.4466 24.5244C17.6555 24.2738 17.7529 23.9117 17.7529 23.4243C17.7529 22.923 17.6555 22.561 17.4605 22.3242C17.2656 22.0875 17.0288 21.9761 16.7503 21.9761C16.4718 21.9761 16.2212 22.1014 16.0262 22.3382C15.8313 22.5749 15.7199 22.923 15.7199 23.3965Z" fill="white"/>
<path d="M18.9641 24.191L19.6047 24.0936C19.6464 24.3442 19.7439 24.5392 19.8971 24.6784C20.0642 24.8177 20.287 24.8873 20.5794 24.8873C20.8719 24.8873 21.0947 24.8316 21.2339 24.7063C21.3732 24.5809 21.4428 24.4417 21.4428 24.2746C21.4428 24.1353 21.3732 24.01 21.2478 23.9264C21.1643 23.8707 20.9415 23.8011 20.5934 23.7036C20.1199 23.5783 19.7857 23.4808 19.6047 23.3973C19.4236 23.3137 19.2844 23.1884 19.1869 23.0352C19.0894 22.8821 19.0477 22.715 19.0477 22.52C19.0477 22.3529 19.0894 22.1997 19.1591 22.0466C19.2426 21.9073 19.3401 21.782 19.4793 21.6845C19.5768 21.6149 19.7161 21.5452 19.8832 21.5035C20.0642 21.4478 20.2452 21.4199 20.4402 21.4199C20.7326 21.4199 20.9972 21.4617 21.22 21.5452C21.4428 21.6288 21.6099 21.7541 21.7213 21.8934C21.8327 22.0326 21.9023 22.2415 21.9441 22.4782L21.3175 22.5618C21.2896 22.3668 21.2061 22.2137 21.0668 22.1023C20.9276 21.9909 20.7326 21.9352 20.482 21.9352C20.1895 21.9352 19.9806 21.9909 19.8414 22.0883C19.7161 22.1858 19.6464 22.2972 19.6464 22.4365C19.6464 22.52 19.6743 22.5896 19.73 22.6593C19.7857 22.7289 19.8692 22.7846 19.9806 22.8264C20.0503 22.8542 20.2313 22.9099 20.5516 22.9935C21.0111 23.1188 21.3314 23.2163 21.4985 23.2998C21.6795 23.3694 21.8188 23.4948 21.9302 23.634C22.0416 23.7733 22.0833 23.9682 22.0833 24.191C22.0833 24.3999 22.0137 24.6088 21.8884 24.8037C21.7631 24.9987 21.582 25.1379 21.3453 25.2493C21.1086 25.3468 20.844 25.4025 20.5377 25.4025C20.0503 25.4025 19.6604 25.305 19.4097 25.0962C19.2008 24.9012 19.0337 24.5949 18.9641 24.191Z" fill="white"/>
<path d="M25.3702 23.9264L26.0107 24.01C25.9411 24.4417 25.7601 24.7898 25.4816 25.0405C25.2031 25.2911 24.841 25.4025 24.4372 25.4025C23.9219 25.4025 23.5042 25.2354 23.1839 24.8873C22.8636 24.5392 22.7104 24.0518 22.7104 23.4251C22.7104 23.0213 22.7801 22.6593 22.9193 22.3529C23.0586 22.0466 23.2675 21.8098 23.532 21.6567C23.8105 21.5035 24.1169 21.4199 24.4372 21.4199C24.8549 21.4199 25.1891 21.5313 25.4537 21.7402C25.7183 21.9491 25.8854 22.2415 25.955 22.6314L25.3284 22.7289C25.2727 22.4782 25.1613 22.2833 25.0081 22.158C24.8549 22.0326 24.6739 21.963 24.465 21.963C24.1447 21.963 23.8802 22.0744 23.6713 22.3111C23.4624 22.5479 23.3649 22.9099 23.3649 23.4112C23.3649 23.9265 23.4624 24.2885 23.6574 24.5252C23.8523 24.762 24.103 24.8734 24.4232 24.8734C24.6739 24.8734 24.8828 24.7898 25.0638 24.6366C25.217 24.4835 25.3144 24.2467 25.3702 23.9264Z" fill="white"/>
<path d="M26.5396 25.3187V21.5171H27.1244V22.0881C27.2776 21.8235 27.4029 21.6425 27.5282 21.5589C27.6536 21.4754 27.7928 21.4336 27.946 21.4336C28.1688 21.4336 28.3777 21.5032 28.6144 21.6425L28.3916 22.2413C28.2384 22.1438 28.0713 22.102 27.9181 22.102C27.7789 22.102 27.6536 22.1438 27.5422 22.2273C27.4308 22.3109 27.3472 22.4223 27.3054 22.5755C27.2358 22.7983 27.194 23.0489 27.194 23.3274V25.3187H26.5396Z" fill="white"/>
<path d="M29.0042 20.8201V20.082H29.6447V20.8201H29.0042ZM29.0042 25.3179V21.5163H29.6447V25.3179H29.0042Z" fill="white"/>
<path d="M31.2184 25.3181H30.6196V20.0684H31.2602V21.9343C31.5387 21.5862 31.8729 21.4191 32.3046 21.4191C32.5413 21.4191 32.7641 21.4609 32.973 21.5583C33.1819 21.6558 33.349 21.7811 33.4882 21.9622C33.6275 22.1293 33.7249 22.3382 33.8085 22.5749C33.8781 22.8116 33.9199 23.0762 33.9199 23.3547C33.9199 24.0092 33.7528 24.5105 33.4325 24.8586C33.1122 25.2207 32.7223 25.3878 32.2767 25.3878C31.8311 25.3878 31.4691 25.2067 31.2184 24.8308V25.3181ZM31.2184 23.3965C31.2184 23.856 31.2741 24.1763 31.3994 24.3852C31.6083 24.7194 31.8729 24.8865 32.221 24.8865C32.4995 24.8865 32.7502 24.7611 32.9451 24.5244C33.154 24.2738 33.2515 23.9117 33.2515 23.4243C33.2515 22.923 33.154 22.561 32.9591 22.3242C32.7641 22.0875 32.5274 21.9761 32.2489 21.9761C31.9704 21.9761 31.7197 22.1014 31.5248 22.3382C31.3159 22.5749 31.2184 22.923 31.2184 23.3965Z" fill="white"/>
<path d="M37.3175 24.0936L37.9859 24.1771C37.8745 24.567 37.6796 24.8734 37.4011 25.0822C37.1226 25.2911 36.7605 25.4025 36.3149 25.4025C35.7579 25.4025 35.3123 25.2354 34.992 24.8873C34.6717 24.5392 34.5046 24.0657 34.5046 23.4391C34.5046 22.7985 34.6717 22.2972 34.992 21.9491C35.3262 21.601 35.744 21.4199 36.2731 21.4199C36.7884 21.4199 37.1922 21.587 37.5125 21.9352C37.8328 22.2833 37.9999 22.7707 37.9999 23.3973V23.5644H35.1591C35.187 23.9821 35.2984 24.3024 35.5073 24.5252C35.7161 24.748 35.9807 24.8594 36.301 24.8594C36.5377 24.8594 36.7327 24.8037 36.8998 24.6784C37.0669 24.5531 37.22 24.3721 37.3175 24.0936ZM35.2009 23.0492H37.3175C37.2897 22.7289 37.2061 22.4922 37.0808 22.3251C36.8719 22.0744 36.6073 21.9491 36.2871 21.9491C35.9946 21.9491 35.744 22.0466 35.5351 22.2415C35.3262 22.4643 35.2148 22.7289 35.2009 23.0492Z" fill="white"/>
</svg>
