<svg width="312" height="208" viewBox="0 0 312 208" fill="none" xmlns="http://www.w3.org/2000/svg">
<path d="M260.805 113.963L251.834 135.305L283.495 148.614L292.467 127.272L260.805 113.963Z" fill="#EBEBEB"/>
<path d="M292.448 127.578C292.313 127.641 292.174 127.694 292.032 127.736L290.826 128.152L286.37 129.575L271.606 134.159L271.486 134.196L271.423 134.084L271.278 133.814L263.79 120.023C262.862 118.272 262.101 116.849 261.56 115.826C261.314 115.347 261.115 114.969 260.965 114.678C260.891 114.545 260.828 114.406 260.778 114.262C260.872 114.381 260.955 114.509 261.023 114.644L261.668 115.763C262.23 116.774 263.016 118.185 263.985 119.923C265.928 123.468 268.59 128.314 271.531 133.651L271.677 133.926L271.494 133.851L286.316 129.375L290.805 128.044L292.028 127.699C292.163 127.644 292.304 127.604 292.448 127.578Z" fill="#E0E0E0"/>
<path d="M251.83 135.615C251.788 135.54 255.399 133.614 259.892 131.318C264.385 129.022 268.058 127.22 268.099 127.299C268.141 127.378 264.526 129.3 260.033 131.597C255.54 133.893 251.867 135.686 251.83 135.615Z" fill="#E0E0E0"/>
<path d="M278.72 131.455C278.803 131.434 279.939 135.324 281.249 140.15C282.56 144.975 283.558 148.886 283.475 148.927C283.392 148.969 282.26 145.058 280.95 140.233C279.639 135.407 278.653 131.455 278.72 131.455Z" fill="#E0E0E0"/>
<path d="M57.8164 152.928L51.1456 168.797L74.6922 178.695L81.3629 162.826L57.8164 152.928Z" fill="#F5F5F5"/>
<path d="M81.3572 163.072C81.2591 163.123 81.1559 163.164 81.0493 163.193L80.1549 163.488L76.8269 164.549L65.8404 167.969L65.7488 167.998L65.7031 167.915C65.6698 167.848 65.6324 167.782 65.5908 167.711L60.0413 157.456L58.3773 154.332L57.9364 153.479C57.8813 153.382 57.834 153.281 57.7949 153.176C57.8662 153.263 57.9276 153.358 57.978 153.459L58.4564 154.291C58.8724 155.039 59.4631 156.088 60.1786 157.377L65.7904 167.599C65.8279 167.669 65.8653 167.74 65.9028 167.802L65.7655 167.748L76.7728 164.395L80.1008 163.405L81.0119 163.147C81.1238 163.109 81.2396 163.084 81.3572 163.072Z" fill="#E0E0E0"/>
<path d="M51.1431 169.024C51.1139 168.965 53.7971 167.534 57.1376 165.825C60.4781 164.115 63.232 162.78 63.232 162.838C63.232 162.896 60.5779 164.323 57.2375 166.033C53.897 167.742 51.168 169.078 51.1431 169.024Z" fill="#E0E0E0"/>
<path d="M71.1359 165.93C71.1942 165.93 72.0387 168.808 73.0121 172.394C73.9855 175.98 74.7302 178.905 74.6761 178.921C74.622 178.938 73.7692 176.043 72.7958 172.457C71.8223 168.871 71.0902 165.946 71.1359 165.93Z" fill="#E0E0E0"/>
<path d="M46.9849 100.84L19.0588 111.908L29.7682 138.929L57.6942 127.861L46.9849 100.84Z" fill="#F5F5F5"/>
<path d="M31.0087 135.757L33.2259 118.793L43.0685 125.174L45.0362 118.934L54.6083 126.41L31.0087 135.757Z" fill="#E0E0E0"/>
<path d="M41.184 112.518C41.3415 112.916 41.3775 113.352 41.2875 113.77C41.1975 114.188 40.9855 114.57 40.6782 114.868C40.371 115.166 39.9824 115.366 39.5616 115.443C39.1407 115.52 38.7065 115.47 38.3139 115.3C37.9212 115.13 37.5877 114.848 37.3556 114.488C37.1235 114.129 37.0031 113.709 37.0098 113.281C37.0164 112.853 37.1498 112.437 37.393 112.085C37.6361 111.733 37.9782 111.461 38.376 111.304C38.6401 111.198 38.9223 111.146 39.2065 111.151C39.4908 111.155 39.7714 111.215 40.0323 111.328C40.2932 111.441 40.5292 111.604 40.7268 111.808C40.9245 112.013 41.0798 112.254 41.184 112.518Z" fill="#E0E0E0"/>
<g opacity="0.3">
<path d="M54.6374 126.484C54.6178 126.449 54.6011 126.413 54.5875 126.376C54.5542 126.292 54.5084 126.193 54.4543 126.064L53.9593 124.849C53.5433 123.784 52.9068 122.236 52.1123 120.273C50.5356 116.333 48.2851 110.705 45.5894 103.982L45.7475 104.053L22.1603 113.421C22.1395 113.463 22.31 113.072 22.2393 113.238V113.259V113.284V113.33L22.2767 113.426L22.3516 113.621L22.5055 114.004L22.8092 114.773C23.0131 115.281 23.2252 115.793 23.4124 116.296L24.6063 119.308L26.911 125.132L31.1167 135.79L30.9587 135.723L48.0396 129.021L52.8652 127.141L54.1465 126.65L54.4793 126.525C54.5184 126.509 54.5587 126.497 54.5999 126.488L54.5001 126.534L54.1839 126.667L52.9359 127.179L48.1603 129.105L31.0876 135.948L30.9711 135.998L30.9254 135.881C29.615 132.591 28.1923 129.013 26.6905 125.232C25.9389 123.34 25.1679 121.399 24.3775 119.408C23.9865 118.413 23.5871 117.411 23.1878 116.4C22.9839 115.892 22.7718 115.385 22.5804 114.873L22.2767 114.104L22.1228 113.721L22.0479 113.53L22.0105 113.43V113.384V113.359C21.9398 113.521 22.1062 113.126 22.0937 113.168L45.6934 103.837L45.8099 103.791L45.8556 103.903L52.2911 120.315L54.0675 124.891L54.5292 126.089C54.575 126.218 54.6124 126.317 54.6415 126.392C54.6431 126.423 54.6417 126.454 54.6374 126.484Z" fill="#E0E0E0"/>
</g>
<path d="M206.972 174.802L205.462 173.712C204.605 173.091 204 172.181 203.761 171.15L202.696 166.574C202.355 165.136 201.511 163.868 200.318 162.997C199.124 162.126 197.659 161.709 196.186 161.823L195.77 160.051C195.745 159.944 195.7 159.843 195.636 159.753C195.572 159.664 195.491 159.588 195.398 159.53C195.305 159.472 195.201 159.433 195.093 159.415C194.985 159.397 194.874 159.401 194.767 159.427C194.66 159.451 194.559 159.497 194.47 159.56C194.38 159.624 194.304 159.705 194.246 159.798C194.188 159.891 194.149 159.995 194.132 160.103C194.114 160.212 194.118 160.322 194.143 160.429L194.559 162.168C193.129 162.682 191.938 163.703 191.212 165.038C190.486 166.372 190.275 167.927 190.62 169.406L191.639 173.799C191.863 174.757 191.759 175.762 191.343 176.653L190.399 178.679L196.543 177.215C196.78 177.571 197.101 177.863 197.477 178.066C197.853 178.27 198.273 178.377 198.701 178.38C199.128 178.383 199.55 178.281 199.929 178.083C200.308 177.885 200.632 177.597 200.874 177.244C201.1 176.905 201.242 176.517 201.29 176.112L206.972 174.802Z" fill="#EBEBEB"/>
<path d="M210.542 49.957L237.157 67.3458L225.942 85.8454L198.682 67.3833L210.542 49.957Z" fill="#F5F5F5"/>
<path d="M210.542 49.9568L229.811 48.1347C230.206 48.0971 230.603 48.1969 230.933 48.4174C231.263 48.6379 231.508 48.9657 231.625 49.3453L237.157 67.3456" fill="#FF725E"/>
<path d="M210.542 49.9568L229.811 48.1347C230.206 48.0971 230.603 48.1969 230.933 48.4174C231.263 48.6379 231.508 48.9657 231.625 49.3453L237.157 67.3456" fill="#E0E0E0"/>
<path d="M198.682 67.3908C198.682 67.3367 202.326 66.4299 206.852 65.3649C211.378 64.2999 215.072 63.4679 215.072 63.522C215.072 63.5761 211.428 64.4788 206.906 65.5479C202.384 66.6171 198.694 67.4366 198.682 67.3908Z" fill="#E0E0E0"/>
<path d="M225.942 85.8447C225.888 85.8447 225.326 82.2131 224.694 77.7161C224.062 73.2191 223.587 69.5667 223.642 69.5625C223.696 69.5583 224.253 73.19 224.89 77.6911C225.526 82.1923 225.996 85.8364 225.942 85.8447Z" fill="#E0E0E0"/>
<path d="M210.542 49.957L216.803 69.143L237.157 67.3458L210.542 49.957Z" fill="#E0E0E0"/>
<path d="M211.224 51.8246L216.674 43.5254L240.049 58.647L234.532 67.5244L216.894 69.0012L211.224 51.8246Z" fill="#FAFAFA"/>
<path d="M211.224 51.8245C211.224 51.8245 211.266 51.9326 211.336 52.1365L211.652 53.0434C211.923 53.8504 212.314 55.0152 212.817 56.5045C213.816 59.4955 215.247 63.7803 216.977 68.9845L216.886 68.9221L234.524 67.4245L234.441 67.4744L237.719 62.1954C238.476 60.9806 239.222 59.7812 239.957 58.597L239.99 58.7467L216.636 43.5918H216.732L212.697 49.6738C212.227 50.3768 211.865 50.9218 211.611 51.2962L211.324 51.7122C211.261 51.8078 211.224 51.8536 211.224 51.8536C211.224 51.8536 211.249 51.8037 211.307 51.708C211.365 51.6123 211.457 51.4667 211.573 51.292L212.622 49.6571L216.615 43.5211L216.653 43.4629L216.711 43.5003L240.107 58.5886L240.194 58.6469L240.14 58.7384L237.902 62.3368L234.624 67.5826L234.595 67.6283H234.541L216.902 69.0885H216.832L216.811 69.0219L212.717 56.4962C212.235 55.0069 211.856 53.8379 211.598 53.0309L211.311 52.124C211.249 51.9285 211.224 51.8245 211.224 51.8245Z" fill="#E0E0E0"/>
<path d="M233.617 60.3786C233.584 60.4286 229.998 58.1364 225.605 55.2577C221.212 52.379 217.676 50.0078 217.701 49.9578C217.726 49.9079 221.32 52.2001 225.713 55.0788C230.106 57.9575 233.651 60.3204 233.617 60.3786Z" fill="#E0E0E0"/>
<path d="M232.066 62.7165C232.032 62.7664 228.446 60.4743 224.053 57.5956C219.66 54.7168 216.124 52.3456 216.149 52.2957C216.174 52.2458 219.769 54.538 224.166 57.4167C228.563 60.2954 232.099 62.6666 232.066 62.7165Z" fill="#E0E0E0"/>
<path d="M230.277 65.4079C230.248 65.4578 226.658 63.1657 222.265 60.2911C217.872 57.4166 214.336 55.037 214.361 54.9871C214.386 54.9372 217.984 57.2294 222.377 60.1081C226.77 62.9868 230.31 65.358 230.277 65.4079Z" fill="#E0E0E0"/>
<path d="M228.492 68.1023C228.459 68.1522 225.035 65.9682 220.842 63.2226C216.649 60.477 213.279 58.2306 213.312 58.1599C213.346 58.0891 216.769 60.2939 220.962 63.0395C225.156 65.7851 228.525 68.0523 228.492 68.1023Z" fill="#E0E0E0"/>
<path d="M223.954 68.4972C223.818 68.4446 223.69 68.3762 223.571 68.2934L222.56 67.6818L219.286 65.6018C218.009 64.7698 216.865 64.0252 216.041 63.4678C215.625 63.189 215.301 62.9561 215.076 62.7938C214.953 62.7187 214.839 62.6278 214.739 62.5234C214.875 62.5721 215.004 62.6393 215.122 62.7231L216.124 63.3388L219.402 65.4188C220.68 66.2508 221.824 66.9913 222.643 67.5529C223.059 67.8316 223.384 68.0604 223.608 68.2268C223.735 68.3013 223.851 68.3922 223.954 68.4972Z" fill="#E0E0E0"/>
<path d="M219.461 68.7894C218.843 68.5086 218.258 68.1627 217.714 67.7577C217.128 67.4129 216.581 67.0056 216.083 66.543C216.7 66.8238 217.286 67.1696 217.83 67.5746C218.416 67.9195 218.963 68.3267 219.461 68.7894Z" fill="#E0E0E0"/>
<path d="M117.587 65.5285L113.497 71.6187L111.904 70.9614L100.044 78.4494L97.7308 72.172C97.7308 72.172 104.445 70.1877 105.901 68.0494C107.357 65.9112 106.051 65.2331 106.051 65.2331L109.466 62.1797L117.587 65.5285Z" fill="#EBEBEB"/>
<path d="M114.866 51.7632C114.866 51.7632 110.148 50.0992 104.116 42.7401C98.0844 35.3811 95.9212 26.2749 95.0809 26.2083C94.2406 26.1417 90.8003 24.0243 82.0643 38.2723C73.3283 52.5203 75.6371 56.3475 77.0224 56.4848C78.4076 56.6221 88.0796 55.1328 93.8496 56.4848C99.6195 57.8368 106.775 61.7971 106.775 61.7971L114.866 51.7632Z" fill="#EBEBEB"/>
<path d="M124.155 61.7882L122.125 64.7334L121.218 66.0522C120.617 66.9246 119.704 67.533 118.668 67.7521C117.632 67.9712 116.551 67.7841 115.648 67.2294L105.697 62.3664L113.397 49.2832L123.136 56.0557C124.028 56.6831 124.636 57.6379 124.827 58.7118C125.018 59.7858 124.777 60.8917 124.155 61.7882Z" fill="#E0E0E0"/>
<path d="M82.5926 38.6216C77.9251 46.3468 75.5206 53.4396 77.2137 54.4671C78.9069 55.4946 84.0736 50.0616 88.7369 42.3365C93.4003 34.6114 95.8089 27.5144 94.1158 26.4911C92.4227 25.4677 87.256 30.8965 82.5926 38.6216Z" fill="#E0E0E0"/>
<path d="M121.921 62.0718C121.871 62.155 120.532 61.4437 118.93 60.4744C117.329 59.5051 116.076 58.6523 116.126 58.5691C116.176 58.4859 117.52 59.1973 119.117 60.1624C120.715 61.1275 121.975 61.9845 121.921 62.0718Z" fill="#EBEBEB"/>
<path d="M123.024 60.1998C122.97 60.2872 121.776 59.5966 120.328 58.6648C118.88 57.733 117.774 56.9093 117.832 56.8219C117.89 56.7345 119.08 57.4251 120.528 58.3611C121.975 59.2971 123.078 60.1166 123.024 60.1998Z" fill="#EBEBEB"/>
<path d="M120.582 64.0087C120.561 64.0545 120.236 63.938 119.725 63.7092C119.467 63.5927 119.163 63.4513 118.826 63.2932C118.489 63.1351 118.156 62.9022 117.795 62.6775C116.339 61.779 115.244 60.9387 115.299 60.8596C115.353 60.7806 116.547 61.4795 117.986 62.3697C118.348 62.586 118.681 62.8231 118.997 63.002C119.313 63.1809 119.604 63.339 119.829 63.4804C120.316 63.7633 120.603 63.963 120.582 64.0087Z" fill="#EBEBEB"/>
<path d="M90.3302 37.705C90.3302 37.705 86.4281 34.5891 83.4454 40.0013C80.4626 45.4134 84.7766 46.8819 84.7766 46.8819C87.0494 44.0988 88.9189 41.0095 90.3302 37.705Z" fill="#FAFAFA"/>
<path d="M95.6176 31.4609C95.5523 31.8243 95.4535 32.1808 95.3223 32.5259C95.1059 33.204 94.7981 34.1899 94.3821 35.4005C94.1283 35.987 93.8538 36.6485 93.5501 37.3224L93.0883 38.3915C93.0093 38.5745 92.9303 38.7617 92.8471 38.9489C92.7639 39.1361 92.6557 39.3192 92.56 39.5064C92.1607 40.2524 91.7447 41.0331 91.312 41.8485C91.2039 42.0481 91.0957 42.252 90.9875 42.46C90.8794 42.668 90.7379 42.876 90.6131 43.059L89.856 44.2779L89.0698 45.4926C88.9408 45.6881 88.8243 45.9086 88.6787 46.0792L88.2627 46.6325L86.6486 48.7374C86.5155 48.9038 86.3949 49.0744 86.2618 49.2325L85.8458 49.6817L85.0595 50.547L83.6534 52.0945C82.7299 52.9723 81.9603 53.6629 81.4362 54.1413C81.1728 54.4024 80.8875 54.6404 80.5834 54.8526C80.8113 54.5553 81.0631 54.277 81.3363 54.0206L83.4746 51.8907L84.8391 50.3265L85.6003 49.4571C85.7335 49.3115 85.8666 49.1576 86.0163 49.0037C86.1661 48.8497 86.2659 48.6792 86.3949 48.5128L87.9799 46.4078L88.3959 45.8545C88.5373 45.6715 88.6496 45.4677 88.7827 45.2721L89.5565 44.0616L90.3344 42.8552C90.455 42.6555 90.5965 42.4683 90.7046 42.2603L91.0333 41.6529C91.4493 40.8501 91.8861 40.0763 92.2813 39.34C92.377 39.1528 92.4851 38.9739 92.5725 38.7909C92.6599 38.6078 92.7389 38.4206 92.8179 38.2376L93.2922 37.1809L94.1491 35.2881L95.1974 32.4677C95.3109 32.1216 95.4514 31.785 95.6176 31.4609Z" fill="#E0E0E0"/>
<path d="M73.0745 42.6724C73.0745 42.7348 70.0169 42.6308 66.2479 42.4478C62.479 42.2647 59.4297 42.0651 59.4338 42.0068C59.438 41.9486 62.4914 42.0484 66.2604 42.2315C70.0294 42.4145 73.0786 42.6142 73.0745 42.6724Z" fill="#EBEBEB"/>
<path d="M76.049 33.7581C76.024 33.8122 72.4797 32.0941 68.145 29.8893C63.8102 27.6845 60.2909 25.8791 60.32 25.8292C60.3491 25.7793 63.8893 27.4932 68.224 29.6938C72.5587 31.8945 76.0781 33.6957 76.049 33.7581Z" fill="#EBEBEB"/>
<path d="M81.3904 28.013C81.3322 28.013 80.5584 25.3423 79.6765 22.0143C78.7946 18.6863 78.1165 15.9698 78.1748 15.9532C78.233 15.9366 79.0068 18.6281 79.8887 21.9561C80.7706 25.2841 81.4487 27.9964 81.3904 28.013Z" fill="#EBEBEB"/>
<path d="M200.87 35.5676C200.555 34.5758 199.944 33.7046 199.118 33.0716C198.334 32.4238 197.367 32.0383 196.352 31.9692C195.816 31.9507 195.282 32.0403 194.782 32.2326C194.282 32.4248 193.825 32.7158 193.44 33.0882C192.982 33.5374 192.641 34.0914 192.446 34.7023C191.912 34.0606 191.187 33.6061 190.376 33.4048C189.566 33.2036 188.713 33.2661 187.94 33.5832C187.007 33.9896 186.226 34.6795 185.706 35.5551C185.134 36.4251 184.843 37.4508 184.874 38.492C184.942 39.8156 185.435 41.082 186.281 42.1029C187.23 43.1242 188.412 43.9018 189.725 44.3701C191.863 45.2021 194.667 46.2213 194.667 46.2213C194.667 46.2213 196.547 44.237 198.282 42.7311C199.365 41.8495 200.221 40.7211 200.778 39.4405C201.222 38.1925 201.254 36.8351 200.87 35.5676Z" fill="#EBEBEB"/>
<path d="M182.208 24.5443C182.22 23.9297 182.044 23.326 181.705 22.8137C181.391 22.298 180.922 21.8946 180.365 21.6614C180.068 21.5458 179.75 21.4917 179.431 21.5024C179.112 21.5131 178.799 21.5885 178.51 21.7238C178.162 21.8961 177.86 22.1502 177.632 22.4643C177.507 22.1484 177.314 21.8642 177.066 21.6323C176.835 21.4128 176.562 21.2428 176.263 21.1327C175.964 21.0225 175.646 20.9745 175.327 20.9917C174.733 21.0309 174.166 21.2549 173.705 21.6323C173.221 22.0129 172.865 22.5327 172.686 23.1216C172.47 23.8757 172.502 24.6792 172.777 25.4137C173.114 26.1681 173.628 26.8302 174.275 27.344C175.311 28.2217 176.688 29.3325 176.688 29.3325C176.688 29.3325 178.119 28.5837 179.379 28.0845C180.155 27.8004 180.85 27.3322 181.405 26.72C181.901 26.1005 182.182 25.3372 182.208 24.5443Z" fill="#EBEBEB"/>
<path d="M104.928 160.514C104.677 159.952 104.258 159.481 103.73 159.166C103.223 158.837 102.627 158.675 102.024 158.7C101.513 158.733 101.028 158.935 100.644 159.274C100.26 159.612 99.9989 160.069 99.9024 160.572C99.6527 160.334 99.3527 160.155 99.0246 160.048C98.7215 159.949 98.4015 159.913 98.0841 159.942C97.7667 159.971 97.4583 160.063 97.1776 160.214C96.6545 160.517 96.2398 160.977 95.992 161.529C95.719 162.08 95.6217 162.701 95.7133 163.309C95.8403 164.085 96.2155 164.799 96.7824 165.343C97.4111 165.878 98.1585 166.254 98.9622 166.442C100.277 166.787 101.995 167.199 101.995 167.199C101.995 167.199 102.964 165.905 103.888 164.902C104.463 164.318 104.89 163.605 105.136 162.822C105.318 162.051 105.245 161.24 104.928 160.514Z" fill="#EBEBEB"/>
<path d="M268.603 80.5909C268.578 79.8576 268.496 79.1273 268.357 78.4069C268.177 77.566 267.871 76.7569 267.45 76.0066C266.457 74.2033 264.868 72.8019 262.954 72.0429C261.04 71.2838 258.922 71.2144 256.963 71.8466C256.15 72.0994 255.381 72.4769 254.683 72.9656C254.323 73.2142 253.978 73.4852 253.652 73.7768C253.33 74.0868 253.028 74.4175 252.749 74.7669C251.576 76.2323 250.902 78.035 250.827 79.911C250.752 81.7869 251.28 83.6375 252.333 85.1918C252.586 85.5626 252.864 85.9157 253.165 86.2485C253.469 86.567 253.792 86.8658 254.134 87.1429C254.793 87.6807 255.529 88.1155 256.318 88.4325C257.782 89.0307 259.379 89.2274 260.944 89.0024C262.308 88.8089 263.606 88.2958 264.734 87.5048C265.67 86.8568 266.472 86.0349 267.097 85.0837C267.576 84.3697 267.943 83.587 268.187 82.7624C268.382 82.0548 268.521 81.3329 268.603 80.6034C268.603 80.6034 268.603 80.6533 268.603 80.749C268.603 80.8446 268.603 81.0027 268.578 81.165C268.568 81.3969 268.54 81.6278 268.495 81.8555C268.448 82.1693 268.378 82.4794 268.287 82.7832C268.055 83.6248 267.696 84.4259 267.222 85.1586C266.528 86.2383 265.613 87.1585 264.538 87.8585C263.462 88.5584 262.25 89.022 260.982 89.2187C259.375 89.4575 257.733 89.2622 256.227 88.653C255.413 88.3298 254.653 87.8852 253.972 87.3342C253.622 87.0491 253.288 86.7435 252.974 86.419C252.674 86.075 252.396 85.7123 252.142 85.3333C251.051 83.734 250.502 81.8265 250.577 79.892C250.652 77.9575 251.346 76.0982 252.558 74.588C252.845 74.228 253.157 73.8875 253.49 73.5688C253.828 73.2689 254.185 72.991 254.559 72.7368C255.278 72.2355 256.071 71.8495 256.909 71.5928C258.456 71.101 260.107 71.0348 261.689 71.4014C262.94 71.6933 264.115 72.2483 265.135 73.0294C266.155 73.8105 266.997 74.7999 267.604 75.9317C268.022 76.6982 268.318 77.5247 268.482 78.3819C268.55 78.6916 268.594 79.0058 268.615 79.3221C268.646 79.5523 268.656 79.7848 268.644 80.0168C268.644 80.1915 268.644 80.333 268.644 80.4328C268.644 80.5326 268.611 80.5909 268.603 80.5909Z" fill="#E0E0E0"/>
<path d="M259.609 89.5185C258.421 89.5268 257.242 89.2977 256.144 88.8446C255.311 88.5161 254.534 88.0615 253.839 87.4968C253.544 87.2674 253.266 87.0171 253.007 86.748L252.824 86.5691L252.662 86.3819C252.399 86.0854 252.157 85.7713 251.938 85.4417C250.823 83.8067 250.262 81.8574 250.337 79.88C250.412 77.9025 251.119 76.0012 252.354 74.4552C252.598 74.1466 252.862 73.8548 253.144 73.5816L253.302 73.4235L253.51 73.2446C253.793 72.9965 254.092 72.7672 254.405 72.5582C255.141 72.0497 255.95 71.6568 256.805 71.3934C258.388 70.8957 260.075 70.8282 261.693 71.1979C262.974 71.4952 264.177 72.0629 265.221 72.8629C266.265 73.6628 267.126 74.6766 267.746 75.8363C268.172 76.617 268.475 77.4589 268.644 78.3323C268.71 78.6169 268.753 78.9062 268.773 79.1976V79.2891C268.804 79.5276 268.814 79.7685 268.803 80.0088V80.4248C268.805 80.4788 268.805 80.533 268.803 80.587V80.7201L268.778 81.1361C268.766 81.3778 268.737 81.6183 268.69 81.8558V81.9432C268.645 82.2343 268.579 82.522 268.495 82.8043C268.258 83.6624 267.89 84.479 267.405 85.2254C266.696 86.3338 265.76 87.2783 264.657 87.9957C263.554 88.7131 262.311 89.1869 261.011 89.3854C260.547 89.461 260.079 89.5055 259.609 89.5185ZM259.609 71.6305C258.728 71.6264 257.853 71.7669 257.017 72.0465C256.223 72.2912 255.472 72.659 254.792 73.1364C254.5 73.3255 254.221 73.5355 253.96 73.7646L253.606 74.0891C253.363 74.337 253.136 74.6011 252.928 74.8795C251.78 76.3099 251.12 78.0704 251.046 79.9029C250.971 81.7355 251.485 83.5439 252.512 85.0632C252.714 85.366 252.937 85.6551 253.178 85.9284L253.327 86.1032L253.498 86.2737C253.736 86.5144 253.99 86.7382 254.259 86.9435C254.903 87.4677 255.624 87.8887 256.397 88.1915C257.829 88.7754 259.389 88.9692 260.919 88.7531C262.133 88.5738 263.295 88.1402 264.33 87.4807C265.364 86.8212 266.248 85.9506 266.922 84.9259C267.389 84.2293 267.748 83.4664 267.987 82.6628C268.174 82.0372 268.299 81.3949 268.362 80.7451C268.362 80.6619 268.362 80.5995 268.387 80.5496C268.411 80.4996 268.387 80.4372 268.387 80.354C268.374 79.7022 268.299 79.053 268.162 78.4155C267.984 77.5953 267.685 76.806 267.276 76.0734C266.737 75.102 266.019 74.2422 265.158 73.54C264.118 72.6867 262.893 72.0884 261.581 71.7928C260.935 71.6669 260.279 71.6083 259.621 71.618L259.609 71.6305Z" fill="#E0E0E0"/>
<path d="M265.529 87.0068C265.583 86.9569 267.463 88.8954 269.726 91.3415C271.989 93.7876 273.778 95.8094 273.72 95.8634C273.661 95.9175 271.785 93.9748 269.522 91.5287C267.259 89.0826 265.475 87.0609 265.529 87.0068Z" fill="#E0E0E0"/>
<path d="M273.799 96.0697H273.728C273.645 96.0697 273.449 96.0697 269.389 91.6684C265.329 87.2671 265.333 87.0924 265.337 87.0009V86.9135L265.4 86.8553C265.574 86.6889 265.591 86.6764 266.964 88.1033C267.754 88.9353 268.794 90.0252 269.876 91.2108C270.957 92.3964 271.989 93.5154 272.746 94.3724C274.048 95.8492 274.036 95.8617 273.857 96.0364L273.799 96.0697Z" fill="#E0E0E0"/>
<path d="M62.4332 68.9967L60.7027 69.6914L54.8038 65.9474L53.4185 62.4863C53.4185 62.4863 50.6729 63.3974 52.8028 67.8028C54.9328 72.2082 54.1299 71.189 54.1299 71.189C54.1299 71.189 48.4515 73.4895 48.1769 74.1759C47.9772 74.671 50.0864 80.3868 51.2553 83.4735C51.8419 85.0294 53.3644 86.086 54.9452 85.8738C55.1663 85.8479 55.383 85.7934 55.59 85.7116C57.0086 85.1417 63.7977 81.0857 63.7977 81.0857L66.7929 79.8834L62.4332 68.9967Z" fill="#EBEBEB"/>
<path d="M67.0176 66.0605L70.7034 78.345L67.7332 79.5348L63.0781 67.9159L67.0176 66.0605Z" fill="#EBEBEB"/>
<path d="M238.697 158.836L236.654 159.173L231.171 153.694L230.501 149.617C230.501 149.617 227.311 149.942 228.563 155.221C229.815 160.5 229.187 159.206 229.187 159.206C229.187 159.206 222.485 160.338 222.023 161.016C221.691 161.502 222.606 168.196 223.13 171.832C223.396 173.658 224.794 175.16 226.549 175.314C226.795 175.343 227.044 175.343 227.29 175.314C228.954 175.039 237.274 172.268 237.274 172.268L240.802 171.686L238.697 158.836Z" fill="#F5F5F5"/>
<path d="M244.363 156.752L245.411 170.933L241.912 171.512L239.653 157.817L244.363 156.752Z" fill="#F5F5F5"/>
<path d="M130.079 172.048C131.096 171.94 132.058 171.535 132.847 170.885C133.636 170.236 134.217 169.368 134.518 168.392C135.408 165.65 134.044 162.746 131.473 161.906C128.902 161.066 126.09 162.617 125.199 165.363C124.864 166.34 124.826 167.395 125.09 168.394C125.354 169.393 125.909 170.291 126.685 170.975C119.159 169.76 116.988 177.668 116.988 177.668L133.952 183.168C133.952 183.168 136.864 175.401 130.079 172.048Z" fill="#EBEBEB"/>
<path d="M240.777 97.1895H73.4781C59.2221 97.1895 47.6653 108.746 47.6653 123.002V124.824C47.6653 139.08 59.2221 150.637 73.4781 150.637H240.777C255.033 150.637 266.589 139.08 266.589 124.824V123.002C266.589 108.746 255.033 97.1895 240.777 97.1895Z" fill="#F75A42"/>
<g opacity="0.3">
<path d="M240.777 97.1895H73.4781C59.2221 97.1895 47.6653 108.746 47.6653 123.002V124.824C47.6653 139.08 59.2221 150.637 73.4781 150.637H240.777C255.033 150.637 266.589 139.08 266.589 124.824V123.002C266.589 108.746 255.033 97.1895 240.777 97.1895Z" fill="black"/>
</g>
<path d="M240.2 93H74.7238C59.9647 93 48 104.965 48 119.724C48 134.483 59.9647 146.448 74.7238 146.448H240.2C254.959 146.448 266.924 134.483 266.924 119.724C266.924 104.965 254.959 93 240.2 93Z" fill="#F75A42"/>
<g opacity="0.3">
<path d="M207.006 92.8125C207.006 92.8125 205.804 92.8375 205.196 92.8125C203.116 92.8125 199.372 92.8125 199.372 92.8125L196.685 97.7587C197.305 99.0691 198.112 100.529 199.53 100.82C200.245 100.915 200.971 100.823 201.639 100.554C203.323 100.036 204.898 99.2144 206.286 98.129C207.151 97.5155 207.795 96.6405 208.125 95.633C208.387 94.6055 207.963 93.2618 207.006 92.8125Z" fill="black"/>
</g>
<path d="M94.3981 126.812L95.5129 124.316C97.1606 125.554 99.1639 126.226 101.225 126.234C103.916 126.234 105.056 125.269 105.056 123.983C105.056 120.239 94.7683 122.698 94.7683 116.266C94.7683 113.475 96.9939 111.1 101.74 111.1C103.82 111.1 105.996 111.645 107.502 112.635L106.487 115.131C105.045 114.261 103.399 113.786 101.716 113.754C99.0448 113.754 97.9715 114.794 97.9715 116.104C97.9715 119.786 108.23 117.39 108.23 123.742C108.23 126.512 105.984 128.888 101.237 128.888C98.5289 128.892 95.8333 128.047 94.3981 126.812Z" fill="white"/>
<path d="M123.897 115.438V128.641H120.956V126.977C120.428 127.583 119.773 128.064 119.037 128.385C118.301 128.706 117.503 128.859 116.7 128.833C113.314 128.833 111.013 126.977 111.013 123.009V115.438H114.104V122.559C114.104 124.956 115.244 126.095 117.195 126.095C119.346 126.095 120.806 124.76 120.806 122.114V115.438H123.897Z" fill="white"/>
<path d="M141.972 122.041C141.972 126.146 139.126 128.817 135.27 128.817C133.465 128.817 131.942 128.197 130.894 126.937V128.642H127.953V110.297H131.044V117.049C131.58 116.468 132.235 116.011 132.965 115.708C133.694 115.405 134.481 115.263 135.27 115.293C139.135 115.293 141.972 117.939 141.972 122.041ZM138.831 122.041C138.831 119.52 137.167 117.914 134.925 117.914C132.683 117.914 130.994 119.52 130.994 122.041C130.994 124.562 132.699 126.171 134.925 126.171C137.15 126.171 138.831 124.57 138.831 122.041Z" fill="white"/>
<path d="M143.407 127.332L144.593 124.981C145.976 125.832 147.566 126.285 149.189 126.292C151.145 126.292 151.96 125.751 151.96 124.836C151.96 122.315 143.802 124.686 143.802 119.428C143.802 116.932 146.053 115.301 149.626 115.301C151.382 115.301 153.37 115.717 154.572 116.436L153.387 118.787C152.24 118.114 150.93 117.772 149.601 117.797C147.725 117.797 146.835 118.412 146.835 119.278C146.835 121.948 154.993 119.577 154.993 124.744C154.993 127.215 152.717 128.825 149.011 128.825C146.793 128.817 144.593 128.172 143.407 127.332Z" fill="white"/>
<path d="M156.561 122.04C156.561 118.084 159.527 115.293 163.704 115.293C166.275 115.293 168.33 116.354 169.341 118.359L166.969 119.74C166.631 119.172 166.148 118.704 165.57 118.383C164.992 118.063 164.34 117.901 163.679 117.914C161.407 117.914 159.677 119.495 159.677 122.04C159.677 124.586 161.407 126.171 163.679 126.171C164.34 126.184 164.993 126.021 165.571 125.7C166.149 125.378 166.631 124.91 166.969 124.341L169.341 125.726C168.33 127.702 166.275 128.817 163.704 128.817C159.519 128.817 156.561 125.997 156.561 122.04Z" fill="white"/>
<path d="M179.653 115.293V118.234C179.418 118.187 179.178 118.162 178.938 118.159C176.587 118.159 175.102 119.544 175.102 122.24V128.642H171.999V115.439H174.944V117.369C175.847 115.984 177.453 115.293 179.653 115.293Z" fill="white"/>
<path d="M181.854 111.412C181.857 111.159 181.912 110.909 182.014 110.678C182.117 110.446 182.265 110.237 182.45 110.064C182.634 109.891 182.852 109.757 183.09 109.67C183.328 109.582 183.581 109.544 183.834 109.557C184.97 109.557 185.81 110.323 185.81 111.338C185.798 111.848 185.59 112.335 185.228 112.695C184.866 113.056 184.379 113.263 183.868 113.272C183.357 113.282 182.862 113.094 182.487 112.747C182.112 112.401 181.885 111.922 181.854 111.412ZM182.27 115.439H185.361V128.643H182.274L182.27 115.439Z" fill="white"/>
<path d="M203.44 122.041C203.44 126.146 200.595 128.817 196.738 128.817C194.933 128.817 193.41 128.197 192.362 126.937V128.642H189.421V110.297H192.512V117.049C193.048 116.468 193.703 116.011 194.433 115.708C195.162 115.405 195.949 115.263 196.738 115.293C200.595 115.293 203.44 117.939 203.44 122.041ZM200.299 122.041C200.299 119.52 198.635 117.914 196.393 117.914C194.151 117.914 192.462 119.52 192.462 122.041C192.462 124.562 194.167 126.171 196.393 126.171C198.619 126.171 200.287 124.57 200.287 122.041H200.299Z" fill="white"/>
<path d="M218.745 123.031H208.386C208.757 124.957 210.362 126.196 212.663 126.196C213.327 126.223 213.99 126.109 214.607 125.861C215.224 125.614 215.782 125.239 216.245 124.761L217.909 126.666C216.719 128.072 214.868 128.817 212.592 128.817C208.166 128.817 205.3 125.972 205.3 122.04C205.3 118.109 208.191 115.293 212.122 115.293C215.978 115.293 218.799 117.989 218.799 122.115C218.795 122.361 218.77 122.735 218.745 123.031ZM208.345 120.98H215.833C215.738 120.067 215.297 119.225 214.601 118.626C213.905 118.028 213.006 117.72 212.089 117.764C211.178 117.738 210.291 118.053 209.601 118.648C208.911 119.244 208.469 120.075 208.361 120.98H208.345Z" fill="white"/>
<path d="M220.856 126.7C220.857 126.442 220.911 126.187 221.013 125.95C221.116 125.713 221.265 125.499 221.453 125.321C221.64 125.143 221.861 125.005 222.103 124.914C222.345 124.824 222.603 124.783 222.861 124.795C223.116 124.786 223.37 124.829 223.608 124.921C223.845 125.013 224.062 125.152 224.244 125.33C224.427 125.508 224.571 125.722 224.669 125.957C224.766 126.193 224.815 126.446 224.812 126.7C224.816 126.957 224.767 127.211 224.67 127.448C224.573 127.685 224.429 127.9 224.247 128.08C224.065 128.261 223.848 128.402 223.61 128.497C223.372 128.591 223.117 128.637 222.861 128.631C222.602 128.64 222.343 128.597 222.1 128.505C221.857 128.412 221.636 128.271 221.449 128.091C221.262 127.911 221.113 127.695 221.011 127.456C220.909 127.217 220.856 126.96 220.856 126.7ZM221.031 111.15H224.691L224.08 122.719H221.626L221.031 111.15Z" fill="white"/>
<g opacity="0.3">
<path d="M111.825 98.1498C111.197 96.6064 110.194 93.8359 108.884 92.8125C108.884 92.8125 100.493 92.9539 100.452 92.8125L104.349 106.773C105.597 107.768 106.23 109.141 106.633 110.438C107.037 111.736 107.37 113.13 108.297 114.108C109.225 115.085 111.064 115.356 111.871 114.278C112.782 113.059 111.792 111.366 111.763 109.848C111.733 108.329 112.694 106.99 113.085 105.521C113.755 103.063 112.782 100.5 111.825 98.1498Z" fill="black"/>
</g>
<path d="M174.945 49.6737C175.527 48.1969 176.114 46.6744 176.122 45.0977C176.13 43.5211 175.427 41.7988 174.042 41.1166C172.752 40.4884 171.201 40.8504 169.84 40.4136C168.176 39.8728 167.057 38.2296 166.267 36.603C165.476 34.9764 164.832 33.2126 163.546 31.9729C162.684 31.1738 161.595 30.6606 160.43 30.5035C159.265 30.3464 158.079 30.553 157.036 31.0952C155.529 30.1175 153.781 29.5775 151.986 29.5352C149.743 29.5352 147.197 29.7931 145.683 31.4488C144.51 32.73 143.786 34.3608 142.326 35.2801C140.313 36.578 137.671 35.6088 135.283 35.771C134.796 35.8043 134.231 35.9457 134.035 36.395C133.986 36.6002 133.981 36.8134 134.02 37.0207C134.06 37.228 134.143 37.4245 134.264 37.5972L136.232 41.3995C135.732 41.6408 135.185 41.7661 134.63 41.7661C134.075 41.7661 133.528 41.6408 133.028 41.3995C133.225 43.936 134.304 46.3236 136.078 48.147C135.662 47.86 135.017 48.1886 134.83 48.6712C134.679 49.173 134.703 49.711 134.896 50.1979C135.362 51.7302 136.151 53.1447 137.21 54.3461C138.268 55.5474 139.573 56.5076 141.035 57.1618C142.496 57.8159 144.081 58.1489 145.683 58.1381C147.284 58.1273 148.865 57.7731 150.317 57.0993L163.525 57.6859C163.722 58.1888 164.037 58.6368 164.444 58.9917C164.852 59.3466 165.338 59.5979 165.863 59.7243C167.303 58.5886 167.527 57.9688 167.527 57.9688C168.459 58.6136 167.735 58.2974 168.459 58.6136C170.123 59.3416 172.503 58.3432 172.815 56.5128C172.889 55.7684 173.178 55.0618 173.647 54.4785C174.154 53.9294 174.895 53.7048 175.539 53.3512C176.575 52.7797 177.396 51.8858 177.877 50.8052C177.337 50.8298 176.797 50.7419 176.292 50.5472C175.787 50.3524 175.329 50.055 174.945 49.6737Z" fill="#263238"/>
<path d="M142.376 44.665C142.4 41.4765 143.623 38.4138 145.802 36.086C147.981 33.7582 150.956 32.3358 154.136 32.1018L154.794 32.056C161.891 31.952 165.947 37.9175 165.855 45.0144L166.908 77.6996L150.709 78.856L150.093 68.2231C150.093 68.2231 143.225 67.6656 142.642 60.8807C142.359 57.6151 142.33 50.8176 142.376 44.665Z" fill="#FFBE9D"/>
<path d="M145.779 49.8028C145.795 50.0559 145.909 50.2926 146.097 50.4628C146.285 50.6329 146.532 50.723 146.786 50.7138C146.91 50.7138 147.032 50.6892 147.147 50.6414C147.261 50.5936 147.365 50.5235 147.452 50.4353C147.539 50.347 147.608 50.2424 147.654 50.1274C147.7 50.0124 147.723 49.8893 147.722 49.7653C147.707 49.5119 147.593 49.2745 147.404 49.1041C147.216 48.9337 146.969 48.8441 146.715 48.8543C146.591 48.8532 146.467 48.877 146.352 48.9244C146.238 48.9718 146.133 49.0419 146.046 49.1303C145.959 49.2188 145.89 49.3239 145.844 49.4394C145.798 49.555 145.776 49.6785 145.779 49.8028Z" fill="#263238"/>
<path d="M144.427 47.2645C144.556 47.3852 145.259 46.7861 146.295 46.7112C147.331 46.6364 148.142 47.1023 148.246 46.9692C148.3 46.9068 148.158 46.6863 147.809 46.47C147.333 46.1908 146.783 46.0644 146.232 46.108C145.69 46.146 145.174 46.3558 144.76 46.7071C144.456 46.9775 144.352 47.2146 144.427 47.2645Z" fill="#263238"/>
<path d="M151.345 55.7433C151.345 55.6809 150.688 55.6185 149.627 55.5603C149.357 55.5603 149.103 55.5187 149.045 55.3398C149.001 55.0666 149.041 54.7864 149.161 54.5369C149.366 53.8713 149.58 53.178 149.802 52.4569C150.684 49.4867 151.303 47.0489 151.183 47.0198C151.062 46.9907 150.251 49.3619 149.369 52.3321C149.158 53.0643 148.956 53.7576 148.762 54.4121C148.619 54.7464 148.597 55.12 148.699 55.4688C148.745 55.5602 148.812 55.6399 148.893 55.7019C148.974 55.7639 149.069 55.8065 149.169 55.8265C149.318 55.8576 149.471 55.8674 149.623 55.8556C150.688 55.8473 151.345 55.8057 151.345 55.7433Z" fill="#263238"/>
<path d="M144.107 44.7534C144.344 44.978 145.209 44.6744 146.27 44.5995C147.331 44.5246 148.237 44.6328 148.425 44.3748C148.508 44.2459 148.354 44.0171 147.946 43.8174C147.386 43.571 146.771 43.4749 146.162 43.5387C145.554 43.5824 144.969 43.7847 144.464 44.1252C144.107 44.3915 143.998 44.6452 144.107 44.7534Z" fill="#263238"/>
<path d="M165.198 50.1189C165.31 50.0606 169.774 48.3966 169.953 53.0309C170.132 57.6651 165.435 56.9205 165.418 56.7749C165.402 56.6293 165.198 50.1189 165.198 50.1189Z" fill="#FFBE9D"/>
<path d="M166.358 55.0116C166.379 55.0116 166.446 55.0657 166.583 55.1239C166.778 55.2005 166.995 55.2005 167.19 55.1239C167.673 54.9242 168.056 54.1255 168.043 53.2852C168.039 52.8855 167.945 52.4918 167.769 52.1329C167.719 51.9894 167.635 51.8602 167.524 51.7565C167.413 51.6528 167.279 51.5778 167.132 51.538C167.039 51.5186 166.941 51.532 166.856 51.5759C166.772 51.6199 166.704 51.6917 166.666 51.7793C166.608 51.9124 166.641 52.0039 166.616 52.0122C166.591 52.0206 166.512 51.9374 166.541 51.746C166.563 51.6297 166.623 51.524 166.712 51.4465C166.836 51.3438 166.996 51.2944 167.157 51.3092C167.35 51.3378 167.533 51.4161 167.687 51.5364C167.841 51.6567 167.961 51.815 168.035 51.9956C168.25 52.3903 168.364 52.8318 168.368 53.281C168.368 54.2212 167.952 55.1156 167.269 55.3402C167.146 55.3822 167.014 55.3958 166.885 55.3799C166.755 55.3641 166.631 55.3192 166.521 55.2487C166.375 55.1239 166.346 55.0241 166.358 55.0116Z" fill="#EB996E"/>
<path d="M166.77 39.4855C166.413 38.1328 165.799 36.8617 164.961 35.7415C162.527 32.3594 156.969 30.7786 153.812 31.0615C150.654 31.3444 147.381 33.6823 144.439 34.8554C142.513 35.625 141.053 37.393 141.789 38.7617C140.648 39.2054 139.443 39.4611 138.22 39.5188C138.22 39.5188 138.108 41.2535 139.073 41.7153L142.11 43.7038C146.157 44.2404 153.263 40.2551 154.631 39.003C155.902 37.8371 157.308 36.8286 158.821 35.9994C157.531 39.3815 161.733 38.6327 161.616 39.9431C160.331 44.698 164.212 46.4535 164.212 46.4535L164.308 50.6135C164.22 51.6785 164.678 52.498 165.743 52.4273C165.743 52.4273 166.899 50.8382 167.095 49.5444C167.477 47.0484 167.232 41.9774 166.77 39.4855Z" fill="#263238"/>
<path d="M150.039 68.2241C153.193 67.9937 156.215 66.8632 158.746 64.9668C158.746 64.9668 157.011 70.017 150.176 69.8881L150.039 68.2241Z" fill="#EB996E"/>
<path d="M155.584 49.1796C155.6 49.4327 155.714 49.6694 155.902 49.8396C156.09 50.0097 156.337 50.0998 156.591 50.0906C156.715 50.0918 156.838 50.0679 156.953 50.0205C157.068 49.9731 157.172 49.9031 157.26 49.8146C157.347 49.7261 157.415 49.621 157.461 49.5055C157.507 49.39 157.529 49.2664 157.527 49.1421C157.511 48.8891 157.396 48.6523 157.208 48.4821C157.02 48.312 156.773 48.2219 156.52 48.2311C156.396 48.2311 156.273 48.2557 156.159 48.3035C156.044 48.3513 155.941 48.4214 155.854 48.5097C155.767 48.5979 155.698 48.7026 155.652 48.8176C155.605 48.9326 155.582 49.0556 155.584 49.1796Z" fill="#263238"/>
<path d="M154.444 46.741C154.573 46.8741 155.393 46.3582 156.524 46.3998C157.656 46.4414 158.488 46.9989 158.604 46.8782C158.667 46.82 158.538 46.587 158.188 46.3333C157.696 45.9984 157.119 45.8108 156.524 45.7925C155.941 45.7645 155.362 45.9092 154.86 46.2085C154.507 46.4581 154.382 46.6827 154.444 46.741Z" fill="#263238"/>
<path d="M154.336 43.4666C154.436 43.7537 155.48 43.6247 156.707 43.7828C157.934 43.9409 158.924 44.282 159.091 44.0282C159.166 43.9076 158.995 43.6372 158.596 43.3585C158.063 43.0185 157.46 42.8043 156.832 42.7322C156.204 42.6601 155.568 42.7321 154.972 42.9425C154.523 43.1089 154.294 43.3335 154.336 43.4666Z" fill="#263238"/>
<path d="M151.249 57.7557C152.126 57.4617 153.023 57.2323 153.932 57.0693L154.594 56.8613C154.761 57.1587 154.86 57.4888 154.886 57.8286C154.912 58.1685 154.863 58.5099 154.744 58.829C154.604 59.0585 154.417 59.2558 154.196 59.4078C153.974 59.5598 153.723 59.6631 153.458 59.7109C153.273 59.7597 153.079 59.7689 152.89 59.7381C152.701 59.7073 152.52 59.6371 152.36 59.532C152.36 59.532 151.503 59.1951 151.249 57.7557Z" fill="#EB996E"/>
<path d="M153.059 59.7158C153.417 59.6597 153.755 59.5169 154.045 59.2998C154.345 59.0616 154.565 58.7361 154.673 58.368C154.812 57.9196 154.812 57.4394 154.673 56.991L154.648 56.9162L154.773 56.9869C153.774 57.2074 152.872 57.4029 152.219 57.5235C151.868 57.6121 151.51 57.665 151.149 57.6816C151.485 57.5484 151.832 57.4454 152.185 57.3737C152.83 57.2115 153.729 56.9993 154.727 56.7747L154.823 56.7539L154.852 56.8413L154.877 56.9245C155.035 57.414 155.035 57.9409 154.877 58.4304C154.748 58.8317 154.492 59.1806 154.149 59.4246C153.919 59.5872 153.651 59.6875 153.371 59.7158C153.163 59.7533 153.055 59.7283 153.059 59.7158Z" fill="#263238"/>
<path d="M174.225 53.6969C174.129 53.6897 174.034 53.6658 173.946 53.6262C173.689 53.5119 173.465 53.3327 173.297 53.1062C173.029 52.7515 172.864 52.3298 172.819 51.8873C172.774 51.3083 172.798 50.7261 172.89 50.1526C173.009 49.4777 172.979 48.7847 172.802 48.1225C172.685 47.7671 172.467 47.4535 172.174 47.2198C171.855 46.9724 171.505 46.7668 171.134 46.6083C170.731 46.4369 170.344 46.2295 169.978 45.9885C169.59 45.7159 169.29 45.3375 169.112 44.8985C168.734 44.0166 168.771 43.0265 168.559 42.0989C168.472 41.6394 168.284 41.2049 168.01 40.8259C167.738 40.4708 167.343 40.2293 166.903 40.1478C166.487 40.048 166.013 40.0313 165.568 39.944C165.116 39.8739 164.701 39.6524 164.391 39.3158C164.128 38.978 163.947 38.5834 163.862 38.1635C163.763 37.7683 163.704 37.3814 163.625 37.0195C163.549 36.6726 163.432 36.336 163.276 36.0169C163.122 35.7287 162.935 35.4592 162.718 35.2141C162.052 34.4671 161.148 33.9721 160.16 33.8121C159.794 33.7737 159.425 33.7654 159.058 33.7872C159.422 33.6975 159.801 33.6777 160.172 33.7289C161.197 33.859 162.142 34.3484 162.839 35.1101C163.069 35.3621 163.268 35.6415 163.43 35.9421C163.599 36.2715 163.726 36.6209 163.808 36.9821C163.892 37.3481 163.954 37.735 164.054 38.1136C164.135 38.5031 164.304 38.8689 164.549 39.1827C164.829 39.4878 165.207 39.685 165.618 39.7401C166.034 39.8233 166.496 39.8358 166.957 39.9398C167.452 40.0295 167.896 40.2975 168.205 40.6928C168.498 41.0967 168.7 41.5594 168.796 42.0489C169.012 43.0182 168.979 43.9875 169.333 44.8153C169.494 45.2189 169.768 45.5672 170.123 45.8179C170.478 46.0564 170.854 46.2612 171.246 46.4294C171.63 46.5987 171.992 46.8138 172.324 47.0701C172.637 47.3313 172.869 47.6761 172.994 48.0643C173.176 48.7514 173.202 49.4709 173.068 50.1693C172.967 50.7304 172.932 51.3014 172.964 51.8707C172.996 52.2958 173.139 52.7049 173.38 53.0563C173.585 53.3562 173.881 53.5812 174.225 53.6969Z" fill="#455A64"/>
<path d="M136.789 37.1389C136.865 37.1727 136.935 37.2175 136.997 37.272L137.579 37.688C138.29 38.1788 139.06 38.5772 139.872 38.8736C141.068 39.3229 142.382 39.3494 143.595 38.9485C144.299 38.7026 144.917 38.2592 145.375 37.6714C145.843 37.0159 146.251 36.3198 146.594 35.5914C146.959 34.8286 147.469 34.1446 148.096 33.5779C148.685 33.0745 149.362 32.6838 150.093 32.4256C151.332 31.9993 152.661 31.9018 153.949 32.1427C154.811 32.2933 155.649 32.5533 156.445 32.9165C156.728 33.0413 156.94 33.1494 157.082 33.2285C157.157 33.2634 157.228 33.3067 157.294 33.3574C157.214 33.3379 157.137 33.3086 157.065 33.2701C156.915 33.2035 156.699 33.1078 156.412 32.9914C155.609 32.6647 154.772 32.4302 153.916 32.2925C152.661 32.0824 151.373 32.1926 150.172 32.6128C149.467 32.8673 148.814 33.2479 148.246 33.736C147.649 34.2782 147.163 34.9309 146.815 35.6579C146.467 36.4046 146.049 37.1164 145.567 37.7837C145.076 38.4017 144.413 38.8606 143.661 39.1024C142.405 39.5115 141.046 39.4703 139.818 38.9859C139.002 38.6751 138.232 38.2553 137.53 37.7379C137.28 37.5549 137.114 37.4051 136.972 37.3219C136.905 37.2677 136.843 37.2063 136.789 37.1389Z" fill="#455A64"/>
<path d="M135.034 43.3165C135.059 43.2874 135.379 43.5703 135.953 43.9239C136.708 44.3811 137.531 44.7153 138.391 44.914C139.252 45.1059 140.138 45.1578 141.016 45.0679C141.69 44.9972 142.097 44.8807 142.11 44.9181C142.122 44.9556 142.014 44.9722 141.831 45.0346C141.572 45.1172 141.306 45.1784 141.037 45.2176C140.14 45.3576 139.226 45.3265 138.341 45.1261C137.457 44.9255 136.619 44.5615 135.87 44.0528C135.644 43.8995 135.432 43.7284 135.233 43.5412C135.092 43.408 135.021 43.329 135.034 43.3165Z" fill="#455A64"/>
<path d="M138.944 47.2068C138.969 47.1486 139.676 47.4398 140.608 47.5895C141.54 47.7393 142.272 47.706 142.297 47.7684C141.156 48.0033 139.969 47.803 138.969 47.2068H138.944Z" fill="#455A64"/>
<path d="M150.322 72.1961L136.968 75.8735L122.558 86.2735L126.402 92.8463L194.339 92.9628C194.339 92.9628 191.843 83.8815 191.048 81.0943C189.821 76.8885 188.157 75.6863 186.638 74.1637C185.931 73.534 185.107 73.0492 184.213 72.7369C181.526 72.1503 169.092 69.3589 166.67 69.4089C166.67 69.4089 163.879 75.1788 158.03 75.1205C152.181 75.0623 150.322 72.1961 150.322 72.1961Z" fill="#455A64"/>
<path d="M177.857 82.8577C177.898 82.8577 178.023 82.3086 178.418 81.4891C178.946 80.4256 179.642 79.4537 180.477 78.6104C181.322 77.7683 182.224 76.9858 183.177 76.2683C183.583 75.9823 183.968 75.6682 184.33 75.3281C183.89 75.5564 183.472 75.8251 183.082 76.131C182.087 76.8114 181.16 77.5845 180.311 78.4398C179.454 79.2992 178.761 80.3088 178.268 81.4184C178.121 81.7534 178.005 82.1016 177.923 82.4584C177.877 82.5863 177.854 82.7216 177.857 82.8577Z" fill="#263238"/>
<path d="M137.28 90.0715C137.34 89.6039 137.355 89.1317 137.326 88.6612C137.326 87.7876 137.268 86.5812 137.168 85.2584C137.068 83.9355 136.931 82.7291 136.806 81.868C136.765 81.3975 136.679 80.9321 136.548 80.4785C136.54 80.9502 136.569 81.4217 136.635 81.8888C136.714 82.8331 136.814 83.9937 136.922 85.275C137.03 86.5563 137.089 87.7211 137.151 88.6654C137.157 89.1368 137.2 89.607 137.28 90.0715Z" fill="#263238"/>
<g opacity="0.3">
<path d="M133.278 91.8013C134.376 91.4727 135.495 91.0567 136.311 90.2538C137.126 89.451 137.559 88.1738 137.076 87.1172C137.886 88.835 139.176 90.2821 140.789 91.2843C142.402 92.2865 144.271 92.8012 146.17 92.7665L130.054 92.9703C131.076 92.4479 132.159 92.0552 133.278 91.8013Z" fill="black"/>
</g>
<path d="M209.281 92.9421C209.281 92.9421 207.651 90.7248 206.844 90.3047C206.036 89.8845 204.934 89.8887 204.447 90.3296L203.961 90.7664C203.961 90.7664 201.423 89.6308 200.217 90.5044C200.217 90.5044 197.804 89.3645 196.652 90.6708C196.652 90.6708 194.792 89.4602 194.006 90.5168C193.22 91.5735 193.299 93.354 193.677 94.2608C194.056 95.1677 194.771 98.3085 195.341 98.3626C195.341 98.3626 196.822 98.5207 197.005 97.7178C197.188 96.9149 197.288 96.5322 197.288 96.5322C197.288 96.5322 197.854 99.3652 198.536 99.5066C199.218 99.648 200.52 99.5732 200.562 98.3293C200.562 98.3293 201.194 99.2653 201.81 98.9949C202.426 98.7245 203.191 98.2669 203.124 97.4973C203.058 96.7277 203.045 95.9581 203.045 95.9581C203.045 95.9581 203.387 97.0813 203.944 96.8359C204.501 96.5904 205.067 96.6445 205.383 95.696C205.7 94.7475 206.477 92.9296 206.477 92.9296L209.281 92.9421Z" fill="#FFBE9D"/>
<path d="M203.087 95.908C203.022 95.6374 202.941 95.3707 202.846 95.1092C202.673 94.4687 202.646 93.7976 202.767 93.1453C202.888 92.4931 203.154 91.8762 203.545 91.3403C203.844 90.9243 204.085 90.708 204.061 90.6788C204.036 90.6497 203.757 90.8286 203.407 91.2321C202.955 91.7666 202.649 92.4101 202.522 93.0989C202.394 93.7877 202.448 94.4979 202.679 95.1592C202.752 95.4385 202.892 95.6956 203.087 95.908Z" fill="#EB996E"/>
<path d="M200.046 90.5215C199.882 90.8746 199.773 91.2505 199.722 91.6364C199.367 93.4918 199.496 95.4071 200.096 97.1983C200.2 97.573 200.358 97.9305 200.566 98.2591C200.645 98.2341 199.934 96.5951 199.796 94.4236C199.659 92.252 200.125 90.534 200.046 90.5215Z" fill="#EB996E"/>
<path d="M196.581 90.707C196.4 91.6962 196.387 92.7088 196.543 93.7022C196.619 94.7058 196.861 95.6898 197.259 96.6142C197.33 96.6142 196.972 95.3038 196.789 93.6731C196.606 92.0424 196.652 90.7112 196.581 90.707Z" fill="#EB996E"/>
<path d="M186.601 91.3449C186.662 91.216 186.751 91.1026 186.862 91.0132C186.973 90.9238 187.103 90.8609 187.242 90.8291C187.565 90.7566 187.901 90.7634 188.221 90.8488C188.541 90.9343 188.836 91.0959 189.08 91.32C189.61 91.8033 190.063 92.3644 190.424 92.984L186.83 92.959C186.863 92.4016 186.401 91.8566 186.601 91.3449Z" fill="#FFBE9D"/>
<path d="M95.5136 93.9106C95.6235 92.8118 95.984 91.7529 96.5675 90.8153C97.1509 89.8777 97.9417 89.0865 98.879 88.5026C99.6256 88.0634 100.459 87.7916 101.321 87.7061C102.183 87.6207 103.053 87.7235 103.871 88.0076L110.806 90.4204C111.18 90.8364 122.624 86.4102 122.624 86.4102L126.464 92.9746L104.591 92.9414C105.793 94.3132 107.068 95.6199 108.41 96.8559L109.895 101.79L109.749 106.253C108.963 106.615 107.79 105.238 107.79 105.238L107.103 106.486L107.332 107.697C107.332 107.697 109.354 112.606 109.283 113.7C109.283 113.783 109.267 113.865 109.234 113.941C109.202 114.017 109.155 114.086 109.096 114.144C109.036 114.202 108.966 114.247 108.889 114.277C108.812 114.307 108.73 114.322 108.647 114.32C108.356 114.335 108.068 114.265 107.818 114.116C107.567 113.968 107.367 113.75 107.241 113.488L104.366 107.901C104.366 107.901 102.14 107.36 101.363 106.628C100.585 105.896 99.424 104.498 99.424 104.498L98.0096 104.298C97.8412 104.322 97.6695 104.289 97.5229 104.202C97.1507 104.018 96.8272 103.749 96.5786 103.417C96.33 103.084 96.1632 102.698 96.0918 102.289L95.3722 98.5449C95.1974 97.6962 95.3347 95.7161 95.5136 93.9106Z" fill="#FFBE9D"/>
<path d="M102.028 103.633C102.43 105.252 103.244 106.74 104.391 107.951C104.445 107.91 103.784 107.024 103.143 105.834C102.502 104.644 102.091 103.612 102.028 103.633Z" fill="#EB996E"/>
<path d="M98.6919 103.225C98.617 103.254 98.8791 103.832 99.3284 104.439C99.5664 104.832 99.8737 105.179 100.235 105.463C100.057 105.041 99.8145 104.649 99.5156 104.302C99.2709 103.921 98.9954 103.561 98.6919 103.225Z" fill="#EB996E"/>
<path d="M107.79 108.833C107.687 108.37 107.556 107.915 107.399 107.468C107.145 106.636 106.816 105.467 106.496 104.173C106.334 103.524 106.188 102.925 106.08 102.343C105.95 101.856 105.9 101.352 105.93 100.85C105.98 100.391 106.164 99.9567 106.459 99.6016C106.459 99.6016 106.325 99.6598 106.167 99.8553C105.946 100.141 105.802 100.479 105.751 100.837C105.694 101.359 105.729 101.887 105.855 102.397C105.968 102.967 106.109 103.587 106.271 104.24C106.596 105.538 106.949 106.699 107.245 107.526C107.383 107.979 107.566 108.416 107.79 108.833Z" fill="#EB996E"/>
<path d="M106.288 100.537C106.259 100.562 106.496 100.832 106.771 101.328C107.127 101.967 107.339 102.677 107.39 103.408C107.384 103.826 107.419 104.244 107.494 104.656C107.577 105.002 107.759 105.317 108.019 105.562C108.231 105.799 108.498 105.981 108.796 106.091C108.821 106.057 108.514 105.862 108.139 105.45C107.923 105.216 107.772 104.929 107.702 104.618C107.642 104.216 107.615 103.81 107.623 103.403C107.571 102.637 107.326 101.896 106.912 101.248C106.758 100.969 106.545 100.726 106.288 100.537Z" fill="#EB996E"/>
<path d="M104.657 93.0035C104.699 92.9494 103.888 92.2755 103.068 91.2729C102.249 90.2704 101.725 89.3468 101.65 89.4092C101.719 89.6284 101.815 89.8381 101.937 90.0332C102.211 90.5246 102.53 90.9897 102.889 91.4227C103.366 92.0634 103.967 92.6011 104.657 93.0035Z" fill="#EB996E"/>
<g opacity="0.3">
<path d="M176.617 92.9469L176.887 86.6777L172.486 92.9385L176.617 92.9469Z" fill="black"/>
</g>
<path d="M176.613 92.9422C176.576 91.7044 176.61 90.4655 176.713 89.2314C176.746 87.9937 176.85 86.759 177.025 85.5332C177.066 86.7709 177.034 88.01 176.929 89.2439C176.899 90.4819 176.793 91.717 176.613 92.9422Z" fill="#263238"/>
<path d="M175.269 71.0566C175.334 71.1865 175.372 71.3279 175.381 71.4726C175.414 71.8814 175.307 72.2892 175.078 72.6291C174.726 73.1796 174.182 73.5787 173.551 73.7482C172.735 73.9477 171.893 74.0193 171.055 73.9603C170.571 73.9507 170.088 73.9757 169.607 74.0352C169.094 74.0994 168.601 74.2755 168.164 74.551C167.711 74.864 167.352 75.2958 167.128 75.799C166.892 76.3432 166.713 76.9107 166.596 77.4922C166.462 78.0912 166.342 78.711 166.15 79.3392C165.857 80.3469 165.26 81.2399 164.441 81.897C163.623 82.5541 162.622 82.9435 161.574 83.0125C160.863 83.0492 160.151 82.945 159.48 82.7058C158.809 82.4667 158.192 82.0973 157.664 81.6189C157.171 81.1672 156.757 80.6356 156.441 80.0464C156.173 79.4914 155.761 79.0186 155.247 78.6778C154.728 78.4075 154.138 78.3043 153.558 78.3824C152.998 78.4434 152.443 78.5378 151.894 78.6653C151.374 78.7872 150.843 78.8596 150.309 78.8816C149.811 78.8933 149.315 78.8143 148.845 78.6486C148.044 78.3672 147.328 77.8861 146.765 77.2509C146.334 76.776 146.002 76.2203 145.787 75.616C145.706 75.3984 145.644 75.1743 145.6 74.9462C145.579 74.7424 145.546 74.576 145.546 74.4387V74.1226C145.542 74.088 145.542 74.0531 145.546 74.0186C145.566 74.5546 145.671 75.0841 145.858 75.5869C146.081 76.1736 146.418 76.7107 146.848 77.1677C147.407 77.7817 148.115 78.2415 148.903 78.503C149.357 78.6572 149.834 78.729 150.313 78.7152C150.836 78.6891 151.356 78.6139 151.865 78.4906C152.413 78.3586 152.969 78.2586 153.529 78.191C154.147 78.1067 154.776 78.2157 155.33 78.503C155.876 78.8585 156.315 79.3543 156.603 79.9382C156.913 80.5081 157.315 81.0226 157.793 81.4608C158.816 82.3818 160.162 82.8617 161.537 82.7962C162.214 82.7453 162.874 82.558 163.476 82.2456C164.079 81.9332 164.612 81.5021 165.044 80.9782C165.905 79.959 166.109 78.6362 166.388 77.4464C166.508 76.8497 166.693 76.2679 166.941 75.7117C167.183 75.1784 167.565 74.7211 168.047 74.3888C168.509 74.1002 169.029 73.9183 169.57 73.8563C170.057 73.8004 170.548 73.781 171.038 73.7981C171.874 73.8642 172.716 73.8053 173.534 73.6234C174.143 73.4667 174.673 73.0922 175.024 72.5709C175.253 72.2472 175.369 71.8566 175.352 71.4602C175.334 71.3239 175.306 71.1891 175.269 71.0566Z" fill="white"/>
<path d="M155.039 92.492C154.999 92.4012 154.97 92.3063 154.952 92.2091L154.723 91.3771C154.46 90.3671 154.039 89.4052 153.475 88.5275C153.283 88.2452 153.061 87.9844 152.813 87.7496C152.542 87.5002 152.239 87.2888 151.911 87.1214C151.171 86.7761 150.353 86.6326 149.539 86.7054C148.631 86.7863 147.73 86.9436 146.848 87.1755C145.887 87.4316 144.897 87.5603 143.903 87.5582C142.88 87.5759 141.889 87.2058 141.128 86.5224C140.478 85.8282 140.09 84.9296 140.03 83.9806C139.969 83.1487 139.988 82.3128 140.088 81.4846C140.169 80.7707 140.187 80.051 140.142 79.3339C140.116 78.8171 139.989 78.3105 139.766 77.8435C139.543 77.3765 139.23 76.9583 138.844 76.6132C138.545 76.3793 138.203 76.2055 137.837 76.1016H137.912C137.987 76.1092 138.061 76.1245 138.133 76.1473C138.41 76.2297 138.669 76.3622 138.898 76.5384C139.306 76.8821 139.64 77.3048 139.88 77.7809C140.12 78.257 140.262 78.7767 140.296 79.3089C140.352 80.0349 140.342 80.7645 140.267 81.4888C140.177 82.308 140.164 83.134 140.229 83.9556C140.236 84.4268 140.338 84.8918 140.53 85.322C140.723 85.7522 141.001 86.1384 141.348 86.4571C141.695 86.7758 142.104 87.0202 142.549 87.1752C142.994 87.3302 143.466 87.3926 143.936 87.3585C144.919 87.363 145.898 87.2371 146.848 86.9841C147.741 86.7527 148.653 86.5982 149.573 86.5224C150.421 86.4553 151.272 86.6132 152.04 86.98C152.381 87.1591 152.696 87.3845 152.976 87.6497C153.228 87.9033 153.454 88.1821 153.65 88.4817C154.205 89.379 154.606 90.3634 154.835 91.3937C154.927 91.7515 154.985 92.0344 155.022 92.2257C155.036 92.3138 155.042 92.4029 155.039 92.492Z" fill="white"/>
<path d="M177.124 87.1803C176.545 86.8853 175.935 86.6524 175.307 86.4855C174.626 86.3236 173.924 86.2716 173.227 86.3316C172.372 86.4069 171.543 86.6606 170.793 87.0763C170.041 87.4962 169.381 88.0619 168.85 88.7403C168.414 89.2889 168.078 89.9098 167.856 90.5748C167.699 91.0195 167.668 91.4987 167.764 91.9601C167.813 92.1261 167.873 92.2887 167.943 92.4468C167.943 92.4468 167.906 92.4135 167.852 92.3428C167.78 92.23 167.722 92.1083 167.681 91.9809C167.55 91.506 167.558 91.0033 167.706 90.5332C167.916 89.8408 168.25 89.1924 168.692 88.6196C169.232 87.9154 169.91 87.3292 170.685 86.8974C171.462 86.4663 172.324 86.208 173.21 86.1403C173.929 86.0875 174.652 86.1564 175.348 86.3441C175.816 86.4708 176.268 86.6538 176.692 86.889C176.842 86.9722 176.95 87.0471 177.025 87.097C177.099 87.147 177.129 87.1719 177.124 87.1803Z" fill="white"/>
<path d="M181.609 75.956C181.588 75.956 181.459 75.7854 181.355 75.4401C181.227 74.9894 181.207 74.5147 181.297 74.0549C181.387 73.5931 181.584 73.1587 181.871 72.7861C182.096 72.5073 182.287 72.3701 182.287 72.4033C181.889 72.8933 181.618 73.4737 181.497 74.0933C181.377 74.7129 181.411 75.3526 181.596 75.956H181.609Z" fill="white"/>
<path d="M191.776 84.2014C191.769 84.2642 191.754 84.3257 191.73 84.3844C191.681 84.5559 191.617 84.7229 191.539 84.8836C191.252 85.481 190.845 86.0133 190.345 86.4478C189.6 87.1002 188.68 87.521 187.699 87.6583C186.576 87.8247 185.374 87.467 184.167 87.1674C183.582 87.0074 182.981 86.9153 182.374 86.8929C181.809 86.8844 181.247 86.9716 180.71 87.1508C179.805 87.4582 178.993 87.9891 178.348 88.6942C177.909 89.1678 177.558 89.7158 177.312 90.3124C177.137 90.7284 177.091 90.9905 177.066 90.9863C177.063 90.9229 177.072 90.8595 177.091 90.7991C177.126 90.6239 177.173 90.4515 177.233 90.2833C177.455 89.6606 177.794 89.086 178.231 88.5902C178.884 87.8492 179.716 87.2878 180.648 86.9594C181.2 86.7674 181.782 86.6731 182.366 86.6807C182.987 86.7033 183.604 86.7954 184.205 86.9553C185.424 87.259 186.593 87.6126 187.662 87.4587C188.609 87.3365 189.501 86.9453 190.233 86.3313C190.73 85.9181 191.143 85.4141 191.452 84.8462C191.697 84.4468 191.776 84.1931 191.776 84.2014Z" fill="white"/>
<path d="M136.157 91.8012C136.108 91.8072 136.06 91.8072 136.011 91.8012C135.873 91.8146 135.734 91.8146 135.595 91.8012C135.076 91.7677 134.567 91.6349 134.098 91.4101C133.395 91.0775 132.792 90.5652 132.35 89.925C132.093 89.5431 131.901 89.1215 131.781 88.677C131.668 88.2044 131.586 87.725 131.535 87.2418C131.423 86.2684 131.265 85.3199 130.703 84.6834C130.196 84.1384 129.518 83.7831 128.781 83.6767C128.282 83.589 127.778 83.5376 127.271 83.5228C127.082 83.5254 126.893 83.5143 126.705 83.4895C126.891 83.4494 127.081 83.4327 127.271 83.4396C127.786 83.4198 128.301 83.449 128.81 83.5269C129.591 83.6192 130.314 83.9829 130.853 84.5545C131.15 84.9123 131.365 85.3313 131.481 85.7817C131.602 86.2514 131.687 86.7299 131.735 87.2127C131.785 87.6858 131.865 88.1553 131.972 88.6188C132.082 89.0423 132.262 89.4445 132.504 89.8085C132.925 90.4298 133.498 90.9326 134.168 91.2687C134.789 91.5776 135.465 91.7586 136.157 91.8012Z" fill="white"/>
<path d="M153.4 162.566C154.027 163.73 154.437 164.999 154.611 166.31H156.832L166.205 166.147L166.134 166.314C166.134 166.314 167.665 159.125 167.943 156.987C168.172 155.223 169.262 151.005 167.943 149.141C167.705 148.814 167.371 148.569 166.987 148.44C166.603 148.312 166.188 148.307 165.801 148.426C165.53 148.504 165.286 148.655 165.096 148.863C164.906 149.07 164.777 149.327 164.724 149.603C164.724 149.603 164.611 147.107 162.822 147.074C161.034 147.041 160.971 148.434 160.971 148.434C160.971 148.434 160.48 145.585 158.475 145.61C158.09 145.645 157.726 145.797 157.429 146.044C157.132 146.291 156.916 146.623 156.811 146.995V141.587C156.813 141.059 156.613 140.55 156.253 140.164C155.893 139.778 155.4 139.543 154.873 139.507C154.605 139.499 154.338 139.544 154.088 139.639C153.838 139.735 153.61 139.88 153.416 140.065C153.222 140.25 153.067 140.472 152.961 140.718C152.854 140.963 152.796 141.227 152.793 141.495L152.672 154.009L149.631 150.107C148.837 149.096 146.94 149.595 146.719 150.464C146.719 150.464 146.17 151.608 147.306 153.293C148.096 154.554 153.4 162.566 153.4 162.566Z" fill="#EBEBEB"/>
<path d="M153.4 162.565C153.4 162.565 153.346 162.498 153.254 162.365L152.838 161.766L151.278 159.441L148.812 155.746L147.272 153.434C146.971 153.015 146.742 152.55 146.594 152.057C146.42 151.528 146.42 150.958 146.594 150.43C146.719 150.116 146.958 149.862 147.264 149.719C147.569 149.565 147.904 149.479 148.246 149.469C148.6 149.448 148.952 149.531 149.261 149.706C149.338 149.754 149.412 149.806 149.481 149.864C149.548 149.927 149.61 149.997 149.669 150.064L149.993 150.48L152.709 153.954L152.547 154.008C152.589 150.513 152.635 146.682 152.68 142.605V141.84C152.67 141.575 152.688 141.31 152.734 141.049C152.855 140.508 153.182 140.035 153.645 139.73C153.879 139.579 154.141 139.475 154.415 139.427C154.689 139.378 154.971 139.385 155.242 139.447C155.514 139.509 155.77 139.625 155.996 139.788C156.222 139.951 156.413 140.158 156.557 140.396C156.708 140.636 156.811 140.903 156.861 141.182C156.9 141.458 156.914 141.736 156.903 142.014V146.977L156.691 146.948C156.837 146.449 157.165 146.023 157.61 145.754C157.799 145.645 158.004 145.565 158.217 145.517C158.326 145.492 158.439 145.484 158.55 145.492C158.659 145.498 158.767 145.511 158.875 145.53C159.3 145.623 159.687 145.845 159.981 146.166C160.522 146.803 160.883 147.573 161.025 148.396H160.813C160.839 148.119 160.938 147.855 161.101 147.63C161.263 147.404 161.483 147.227 161.737 147.114C161.983 147.01 162.247 146.951 162.515 146.94C162.653 146.926 162.792 146.926 162.931 146.94L163.13 146.965L163.322 147.023C163.571 147.114 163.798 147.257 163.989 147.441C164.181 147.625 164.331 147.847 164.432 148.092C164.642 148.556 164.767 149.053 164.803 149.561L164.595 149.54C164.651 149.272 164.772 149.022 164.947 148.813C165.123 148.603 165.348 148.44 165.601 148.338C166.104 148.142 166.663 148.154 167.157 148.371C167.401 148.474 167.622 148.626 167.806 148.816C167.973 149.01 168.113 149.225 168.222 149.457C168.421 149.919 168.548 150.408 168.601 150.908C168.78 152.884 168.355 154.761 168.068 156.537C167.781 158.313 167.461 160.044 167.141 161.67C166.82 163.297 166.483 164.836 166.18 166.292L166.03 166.246L166.096 166.08L166.171 166.188L156.799 166.325L156.849 166.271V166.325H156.832H154.598H154.561V166.288C154.433 165.325 154.181 164.382 153.812 163.484C153.687 163.176 153.579 162.947 153.5 162.794C153.421 162.64 153.392 162.561 153.392 162.561C153.567 162.852 153.721 163.155 153.853 163.467C154.243 164.365 154.509 165.311 154.644 166.28L154.602 166.242H156.836L156.782 166.296V166.246H156.832L166.2 166.055H166.321L166.275 166.167L166.209 166.334L166.059 166.288C166.356 164.832 166.669 163.29 166.999 161.662C167.315 160.035 167.665 158.334 167.91 156.537C168.156 154.74 168.609 152.884 168.43 150.958C168.38 150.481 168.258 150.014 168.068 149.573C167.958 149.359 167.818 149.161 167.652 148.986C167.487 148.813 167.291 148.672 167.074 148.57C166.629 148.379 166.127 148.37 165.676 148.546C165.452 148.633 165.253 148.775 165.099 148.96C164.945 149.145 164.84 149.366 164.794 149.602L164.645 150.322L164.586 149.581C164.551 149.103 164.433 148.634 164.237 148.196C164.147 147.977 164.014 147.778 163.844 147.613C163.674 147.447 163.473 147.319 163.251 147.235C162.785 147.106 162.289 147.136 161.841 147.318C161.623 147.414 161.435 147.566 161.296 147.758C161.156 147.95 161.07 148.176 161.046 148.412L160.98 149.115L160.83 148.425C160.692 147.644 160.35 146.914 159.84 146.307C159.589 146.009 159.241 145.808 158.857 145.739C158.473 145.671 158.077 145.739 157.739 145.933C157.337 146.172 157.04 146.554 156.907 147.002L156.695 147.659V142.006C156.707 141.742 156.696 141.478 156.661 141.216C156.613 140.963 156.519 140.722 156.383 140.504C156.25 140.288 156.075 140.101 155.87 139.952C155.664 139.804 155.431 139.697 155.185 139.639C154.693 139.535 154.18 139.629 153.757 139.901C153.334 140.173 153.035 140.6 152.926 141.091C152.881 141.336 152.865 141.586 152.876 141.835V142.605C152.822 146.678 152.768 150.509 152.718 154.008V154.27L152.56 154.062L149.877 150.592C149.698 150.307 149.466 150.058 149.194 149.86C148.912 149.701 148.59 149.624 148.267 149.64C147.95 149.651 147.64 149.729 147.356 149.868C147.082 149.992 146.867 150.218 146.757 150.497C146.594 150.991 146.594 151.525 146.757 152.019C146.898 152.499 147.119 152.951 147.41 153.359L148.936 155.68L151.37 159.395L152.897 161.741C153.067 162.007 153.196 162.211 153.292 162.353C153.388 162.494 153.4 162.565 153.4 162.565Z" fill="#263238"/>
<path d="M166.338 166.146H154.602C153.711 166.146 152.988 166.869 152.988 167.761V167.877C152.988 168.768 153.711 169.491 154.602 169.491H166.338C167.229 169.491 167.952 168.768 167.952 167.877V167.761C167.952 166.869 167.229 166.146 166.338 166.146Z" fill="#EBEBEB"/>
<path d="M166.342 169.492C166.342 169.492 166.458 169.492 166.675 169.433C166.994 169.356 167.284 169.185 167.507 168.942C167.66 168.77 167.775 168.568 167.844 168.348C167.916 168.076 167.932 167.793 167.889 167.516C167.836 167.188 167.68 166.886 167.442 166.653C167.205 166.421 166.899 166.272 166.571 166.226H154.619C154.348 166.228 154.083 166.302 153.849 166.44C153.616 166.578 153.424 166.776 153.292 167.012C153.169 167.247 153.107 167.509 153.109 167.773C153.093 168.16 153.225 168.539 153.479 168.832C153.732 169.125 154.088 169.31 154.473 169.35C154.985 169.35 155.517 169.35 156.017 169.35L161.396 169.375L165.023 169.408L166.009 169.429C166.124 169.424 166.24 169.431 166.354 169.45C166.24 169.468 166.124 169.475 166.009 169.471H165.023L161.396 169.504L156.017 169.529C155.509 169.529 155.002 169.529 154.453 169.529C154.165 169.5 153.89 169.401 153.651 169.239C153.412 169.077 153.217 168.858 153.084 168.601C152.94 168.333 152.867 168.031 152.873 167.727C152.879 167.422 152.963 167.124 153.117 166.861C153.271 166.598 153.49 166.379 153.753 166.225C154.016 166.07 154.314 165.986 154.619 165.98C159.295 165.98 163.509 165.98 166.591 166.035C166.95 166.086 167.282 166.252 167.537 166.509C167.792 166.766 167.957 167.099 168.006 167.457C168.045 167.746 168.024 168.039 167.943 168.318C167.865 168.552 167.736 168.765 167.565 168.942C167.334 169.188 167.031 169.354 166.7 169.417C166.585 169.461 166.464 169.486 166.342 169.492Z" fill="#263238"/>
<path d="M156.745 151.567C156.6 149.955 156.6 148.333 156.745 146.721C156.889 148.333 156.889 149.955 156.745 151.567Z" fill="#263238"/>
<path d="M160.917 151.238C160.773 150.283 160.773 149.311 160.917 148.355C161.061 149.311 161.061 150.283 160.917 151.238Z" fill="#263238"/>
<path d="M164.736 152.451C164.586 151.495 164.586 150.521 164.736 149.564C164.88 150.521 164.88 151.495 164.736 152.451Z" fill="#263238"/>
<path d="M151.957 139.302C151.166 139.019 150.4 138.67 149.669 138.258C148.903 137.906 148.169 137.488 147.476 137.01C149.032 137.644 150.531 138.409 151.957 139.298V139.302Z" fill="#263238"/>
<path d="M153.987 138.159C153.715 137.116 153.514 136.057 153.383 134.989C153.18 133.93 153.048 132.858 152.988 131.781C153.264 132.824 153.467 133.884 153.596 134.955C153.796 136.013 153.927 137.083 153.987 138.159Z" fill="#263238"/>
<path d="M156.512 138.449C156.924 137.678 157.397 136.94 157.926 136.244C158.398 135.508 158.929 134.813 159.515 134.164C158.635 135.675 157.631 137.11 156.512 138.453V138.449Z" fill="#263238"/>
</svg>
