<svg width="23" height="20" viewBox="0 0 23 20" fill="none" xmlns="http://www.w3.org/2000/svg">
<path d="M18.4133 13.0399C18.7988 12.1039 19.008 11.1017 19.008 10.0004C19.008 9.2075 18.8869 8.44762 18.6776 7.7428C17.9618 7.90799 17.2129 7.9961 16.431 7.9961C14.8297 7.99781 13.2515 7.61453 11.8294 6.87855C10.4073 6.14256 9.18291 5.07546 8.25957 3.7672C7.27278 6.15778 5.40915 8.0805 3.05053 9.14142C3.00648 9.41674 3.00648 9.71409 3.00648 10.0004C3.00648 11.0518 3.21357 12.0929 3.61592 13.0643C4.01828 14.0357 4.60801 14.9183 5.35147 15.6617C6.85293 17.1632 8.88936 18.0067 11.0128 18.0067C12.1691 18.0067 13.2814 17.7534 14.2835 17.3019C14.9113 18.5023 15.1976 19.097 15.1756 19.097C13.3695 19.7027 11.9709 20 11.0128 20C8.34767 20 5.80372 18.9538 3.93155 17.0706C2.79179 15.9362 1.94515 14.5415 1.4647 13.0069H0V7.9961H1.20039C1.56408 6.22581 2.40022 4.587 3.6201 3.25355C4.83998 1.92011 6.39809 0.941772 8.1291 0.422356C9.86011 -0.097059 11.6994 -0.138178 13.4519 0.303362C15.2044 0.744901 16.8047 1.65263 18.0829 2.93023C19.4703 4.31297 20.4169 6.07578 20.8031 7.9961H22.0255V13.0069H21.9594L18.0389 16.6081L12.2021 15.9473V14.1082H17.5213L18.4133 13.0399ZM8.00628 9.74712C8.33666 9.74712 8.65603 9.87928 8.88729 10.1216C9.11971 10.3559 9.25013 10.6725 9.25013 11.0026C9.25013 11.3326 9.11971 11.6493 8.88729 11.8836C8.65603 12.1149 8.33666 12.247 8.00628 12.247C7.31247 12.247 6.75082 11.6964 6.75082 11.0026C6.75082 10.3088 7.31247 9.74712 8.00628 9.74712ZM14.0082 9.74712C14.702 9.74712 15.2527 10.3088 15.2527 11.0026C15.2527 11.6964 14.702 12.247 14.0082 12.247C13.3144 12.247 12.7528 11.6964 12.7528 11.0026C12.7528 10.6696 12.885 10.3503 13.1205 10.1148C13.3559 9.87939 13.6753 9.74712 14.0082 9.74712Z" fill="white"/>
</svg>
