<svg width="18" height="18" viewBox="0 0 18 18" fill="none" xmlns="http://www.w3.org/2000/svg">
<path d="M5 14C5.28333 14 5.521 13.904 5.713 13.712C5.905 13.52 6.00067 13.2827 6 13C5.99933 12.7173 5.90333 12.48 5.712 12.288C5.52067 12.096 5.28333 12 5 12C4.71667 12 4.47933 12.096 4.288 12.288C4.09667 12.48 4.00067 12.7173 4 13C3.99933 13.2827 4.09533 13.5203 4.288 13.713C4.48067 13.9057 4.718 14.0013 5 14ZM5 10C5.28333 10 5.521 9.904 5.713 9.712C5.905 9.52 6.00067 9.28267 6 9C5.99933 8.71733 5.90333 8.48 5.712 8.288C5.52067 8.096 5.28333 8 5 8C4.71667 8 4.47933 8.096 4.288 8.288C4.09667 8.48 4.00067 8.71733 4 9C3.99933 9.28267 4.09533 9.52033 4.288 9.713C4.48067 9.90567 4.718 10.0013 5 10ZM5 6C5.28333 6 5.521 5.904 5.713 5.712C5.905 5.52 6.00067 5.28267 6 5C5.99933 4.71733 5.90333 4.48 5.712 4.288C5.52067 4.096 5.28333 4 5 4C4.71667 4 4.47933 4.096 4.288 4.288C4.09667 4.48 4.00067 4.71733 4 5C3.99933 5.28267 4.09533 5.52033 4.288 5.713C4.48067 5.90567 4.718 6.00133 5 6ZM8 14H14V12H8V14ZM8 10H14V8H8V10ZM8 6H14V4H8V6ZM2 18C1.45 18 0.979333 17.8043 0.588 17.413C0.196667 17.0217 0.000666667 16.5507 0 16V2C0 1.45 0.196 0.979333 0.588 0.588C0.98 0.196667 1.45067 0.000666667 2 0H16C16.55 0 17.021 0.196 17.413 0.588C17.805 0.98 18.0007 1.45067 18 2V16C18 16.55 17.8043 17.021 17.413 17.413C17.0217 17.805 16.5507 18.0007 16 18H2ZM2 16H16V2H2V16Z" fill="white"/>
</svg>
