<svg width="90" height="90" viewBox="0 0 90 90" fill="none" xmlns="http://www.w3.org/2000/svg">
<circle cx="45" cy="45" r="45" fill="#222D40"/>
<path fill-rule="evenodd" clip-rule="evenodd" d="M33.9166 57.666H56.0833C56.5032 57.666 56.906 57.8328 57.2029 58.1298C57.4998 58.4267 57.6666 58.8294 57.6666 59.2493C57.6666 59.6693 57.4998 60.072 57.2029 60.3689C56.906 60.6659 56.5032 60.8327 56.0833 60.8327H33.9166C33.4967 60.8327 33.094 60.6659 32.7971 60.3689C32.5001 60.072 32.3333 59.6693 32.3333 59.2493C32.3333 58.8294 32.5001 58.4267 32.7971 58.1298C33.094 57.8328 33.4967 57.666 33.9166 57.666ZM32.3333 49.7493L48.1666 33.916L52.9166 38.666L37.0833 54.4993H32.3333V49.7493ZM49.75 32.3327L52.9166 29.166L57.6666 33.916L54.4984 37.0843L49.75 32.3327Z" fill="white"/>
</svg>
