<svg width="90" height="90" viewBox="0 0 90 90" fill="none" xmlns="http://www.w3.org/2000/svg">
<circle cx="45" cy="45" r="45" fill="#40C4AA"/>
<path d="M48.0382 65.5435C46.0918 67.4608 42.9668 67.4608 41.0205 65.5435L38.874 63.4291C37.9386 62.5077 36.6782 61.9912 35.3652 61.9912H32.5382C29.7767 61.9912 27.5381 59.7526 27.5381 56.9912V54.1641C27.5381 52.8511 27.0216 51.5907 26.1002 50.6553L23.9858 48.5089C22.0685 46.5625 22.0685 43.4375 23.9858 41.4912L26.1002 39.3447C27.0216 38.4093 27.5381 37.1489 27.5381 35.8359V33.0089C27.5381 30.2474 29.7767 28.0089 32.5381 28.0089H35.3652C36.6782 28.0089 37.9386 27.4923 38.874 26.5709L41.0205 24.4565C42.9668 22.5392 46.0918 22.5392 48.0382 24.4565L50.1846 26.5709C51.12 27.4923 52.3804 28.0089 53.6934 28.0089H56.5205C59.2819 28.0089 61.5205 30.2474 61.5205 33.0089V35.8359C61.5205 37.1489 62.037 38.4093 62.9585 39.3447L65.0728 41.4912C66.9901 43.4375 66.9901 46.5625 65.0728 48.5089L62.9584 50.6553C62.037 51.5907 61.5205 52.8511 61.5205 54.1641V56.9912C61.5205 59.7526 59.2819 61.9912 56.5205 61.9912H53.6934C52.3804 61.9912 51.12 62.5077 50.1846 63.4291L48.0382 65.5435Z" fill="white"/>
<path d="M51.7526 39.9941C51.0717 39.4451 50.0748 39.5521 49.526 40.2331L42.7303 48.6656L39.1233 45.2733C38.5624 44.7457 37.6878 44.7459 37.127 45.2736C36.5159 45.8488 36.5159 46.82 37.127 47.3951L41.443 51.4572C42.3307 52.2927 43.7397 52.2045 44.5163 51.2649L51.9791 42.2352C52.5409 41.5554 52.439 40.5477 51.7526 39.9941Z" fill="#40C4AA"/>
</svg>
